NotoSansGurmukhi-Light.ufo
<glyph name="quotedbl.guru" format="2">
  <advance width="400"/>
  <unicode hex="0022"/>
  <outline>
    <contour>
      <point x="116" y="471" type="line"/>
      <point x="139" y="471" type="line"/>
      <point x="142" y="729" type="line"/>
      <point x="113" y="729" type="line"/>
    </contour>
    <contour>
      <point x="262" y="471" type="line"/>
      <point x="285" y="471" type="line"/>
      <point x="288" y="729" type="line"/>
      <point x="259" y="729" type="line"/>
    </contour>
  </outline>
</glyph>
<glyph name="quotesingle.guru" format="2">
  <advance width="254"/>
  <unicode hex="0027"/>
  <outline>
    <contour>
      <point x="116" y="471" type="line"/>
      <point x="139" y="471" type="line"/>
      <point x="142" y="729" type="line"/>
      <point x="113" y="729" type="line"/>
    </contour>
  </outline>
</glyph>
<glyph name="asterisk.guru" format="2">
  <advance width="561"/>
  <unicode hex="002A"/>
  <outline>
    <contour>
      <point x="144" y="361" type="line"/>
      <point x="167" y="345" type="line"/>
      <point x="282" y="512" type="line"/>
      <point x="398" y="344" type="line"/>
      <point x="421" y="361" type="line"/>
      <point x="299" y="523" type="line"/>
      <point x="492" y="581" type="line"/>
      <point x="484" y="608" type="line"/>
      <point x="293" y="542" type="line"/>
      <point x="296" y="745" type="line"/>
      <point x="268" y="745" type="line"/>
      <point x="271" y="542" type="line"/>
      <point x="80" y="608" type="line"/>
      <point x="71" y="581" type="line"/>
      <point x="265" y="523" type="line"/>
    </contour>
  </outline>
</glyph>
<glyph name="hyphen.guru" format="2">
  <advance width="316"/>
  <unicode hex="002D"/>
  <outline>
    <contour>
      <point x="49" y="310" type="line"/>
      <point x="49" y="284" type="line"/>
      <point x="267" y="284" type="line"/>
      <point x="267" y="310" type="line"/>
    </contour>
  </outline>
</glyph>
<glyph name="period.guru" format="2">
  <advance width="208"/>
  <unicode hex="002E"/>
  <outline>
    <contour>
      <point x="78" y="23" type="curve" smooth="yes"/>
      <point x="78" y="6"/>
      <point x="83" y="-8"/>
      <point x="103" y="-8" type="curve" smooth="yes"/>
      <point x="127" y="-8"/>
      <point x="130" y="6"/>
      <point x="130" y="23" type="curve" smooth="yes"/>
      <point x="130" y="39"/>
      <point x="127" y="54"/>
      <point x="103" y="54" type="curve" smooth="yes"/>
      <point x="83" y="54"/>
      <point x="78" y="39"/>
    </contour>
  </outline>
</glyph>
<glyph name="slash.guru" format="2">
  <advance width="386"/>
  <unicode hex="002F"/>
  <outline>
    <contour>
      <point x="311" y="833" type="line"/>
      <point x="48" y="-166" type="line"/>
      <point x="75" y="-166" type="line"/>
      <point x="338" y="833" type="line"/>
    </contour>
  </outline>
</glyph>
<glyph name="less.guru" format="2">
  <advance width="551"/>
  <unicode hex="003C"/>
  <outline>
    <contour>
      <point x="57" y="307" type="line"/>
      <point x="493" y="95" type="line"/>
      <point x="493" y="125" type="line"/>
      <point x="88" y="320" type="line"/>
      <point x="493" y="516" type="line"/>
      <point x="493" y="546" type="line"/>
      <point x="57" y="333" type="line"/>
    </contour>
  </outline>
</glyph>
<glyph name="equal.guru" format="2">
  <advance width="551"/>
  <unicode hex="003D"/>
  <outline>
    <contour>
      <point x="58" y="435" type="line"/>
      <point x="58" y="409" type="line"/>
      <point x="494" y="409" type="line"/>
      <point x="494" y="435" type="line"/>
    </contour>
    <contour>
      <point x="58" y="231" type="line"/>
      <point x="58" y="206" type="line"/>
      <point x="494" y="206" type="line"/>
      <point x="494" y="231" type="line"/>
    </contour>
  </outline>
</glyph>
<glyph name="greater.guru" format="2">
  <advance width="551"/>
  <unicode hex="003E"/>
  <outline>
    <contour>
      <point x="57" y="125" type="line"/>
      <point x="57" y="95" type="line"/>
      <point x="493" y="308" type="line"/>
      <point x="493" y="334" type="line"/>
      <point x="57" y="546" type="line"/>
      <point x="57" y="516" type="line"/>
      <point x="462" y="321" type="line"/>
    </contour>
  </outline>
</glyph>
<glyph name="bracketleft.guru" format="2">
  <advance width="321"/>
  <unicode hex="005B"/>
  <outline>
    <contour>
      <point x="112" y="832" type="line"/>
      <point x="112" y="-166" type="line"/>
      <point x="261" y="-166" type="line"/>
      <point x="261" y="-140" type="line"/>
      <point x="138" y="-140" type="line"/>
      <point x="138" y="806" type="line"/>
      <point x="261" y="806" type="line"/>
      <point x="261" y="832" type="line"/>
    </contour>
  </outline>
</glyph>
<glyph name="backslash.guru" format="2">
  <advance width="384"/>
  <unicode hex="005C"/>
  <outline>
    <contour>
      <point x="48" y="833" type="line"/>
      <point x="309" y="-166" type="line"/>
      <point x="336" y="-166" type="line"/>
      <point x="75" y="833" type="line"/>
    </contour>
  </outline>
</glyph>
<glyph name="bracketright.guru" format="2">
  <advance width="321"/>
  <unicode hex="005D"/>
  <outline>
    <contour>
      <point x="60" y="-140" type="line"/>
      <point x="60" y="-166" type="line"/>
      <point x="209" y="-166" type="line"/>
      <point x="209" y="832" type="line"/>
      <point x="60" y="832" type="line"/>
      <point x="60" y="806" type="line"/>
      <point x="183" y="806" type="line"/>
      <point x="183" y="-140" type="line"/>
    </contour>
  </outline>
</glyph>
<glyph name="asciicircum.guru" format="2">
  <advance width="551"/>
  <unicode hex="005E"/>
  <outline>
    <contour>
      <point x="261" y="720" type="line"/>
      <point x="45" y="284" type="line"/>
      <point x="75" y="284" type="line"/>
      <point x="276" y="694" type="line"/>
      <point x="472" y="284" type="line"/>
      <point x="502" y="284" type="line"/>
      <point x="291" y="720" type="line"/>
    </contour>
  </outline>
</glyph>
<glyph name="uni0951" format="2">
  <unicode hex="0951"/>
  <outline>
    <contour>
      <point x="-126" y="672" type="line"/>
      <point x="-100" y="672" type="line"/>
      <point x="-100" y="886" type="line"/>
      <point x="-126" y="886" type="line"/>
    </contour>
  </outline>
</glyph>
<glyph name="uni0952" format="2">
  <unicode hex="0952"/>
  <outline>
    <contour>
      <point x="-425" y="-125" type="line"/>
      <point x="-72" y="-125" type="line"/>
      <point x="-72" y="-99" type="line"/>
      <point x="-425" y="-99" type="line"/>
    </contour>
  </outline>
</glyph>
<glyph name="danda.guru" format="2">
  <advance width="335"/>
  <unicode hex="0964"/>
  <outline>
    <contour>
      <point x="200" y="0" type="line"/>
      <point x="226" y="0" type="line"/>
      <point x="226" y="622" type="line"/>
      <point x="200" y="622" type="line"/>
    </contour>
  </outline>
</glyph>
<glyph name="dbldanda.guru" format="2">
  <advance width="527"/>
  <unicode hex="0965"/>
  <outline>
    <contour>
      <point x="392" y="0" type="line"/>
      <point x="418" y="0" type="line"/>
      <point x="418" y="622" type="line"/>
      <point x="392" y="622" type="line"/>
    </contour>
    <contour>
      <point x="200" y="0" type="line"/>
      <point x="226" y="0" type="line"/>
      <point x="226" y="622" type="line"/>
      <point x="200" y="622" type="line"/>
    </contour>
  </outline>
</glyph>
<glyph name="adakbindiguru" format="2">
  <unicode hex="0A01"/>
  <outline>
    <contour>
      <point x="-112" y="683" type="curve" smooth="yes"/>
      <point x="-19" y="683"/>
      <point x="31" y="739"/>
      <point x="46" y="847" type="curve"/>
      <point x="20" y="850" type="line"/>
      <point x="7" y="757"/>
      <point x="-27" y="708"/>
      <point x="-112" y="708" type="curve" smooth="yes"/>
      <point x="-199" y="708"/>
      <point x="-233" y="757"/>
      <point x="-246" y="850" type="curve"/>
      <point x="-272" y="847" type="line"/>
      <point x="-257" y="739"/>
      <point x="-207" y="683"/>
    </contour>
    <contour>
      <point x="-113" y="797" type="curve" smooth="yes"/>
      <point x="-96" y="797"/>
      <point x="-83" y="809"/>
      <point x="-83" y="835" type="curve" smooth="yes"/>
      <point x="-83" y="858"/>
      <point x="-94" y="873"/>
      <point x="-113" y="873" type="curve" smooth="yes"/>
      <point x="-131" y="873"/>
      <point x="-144" y="859"/>
      <point x="-144" y="835" type="curve" smooth="yes"/>
      <point x="-144" y="810"/>
      <point x="-129" y="797"/>
    </contour>
  </outline>
</glyph>
<glyph name="bindiguru" format="2">
  <unicode hex="0A02"/>
  <outline>
    <contour>
      <point x="-113" y="740" type="curve" smooth="yes"/>
      <point x="-96" y="740"/>
      <point x="-83" y="752"/>
      <point x="-83" y="778" type="curve" smooth="yes"/>
      <point x="-83" y="801"/>
      <point x="-94" y="816"/>
      <point x="-113" y="816" type="curve" smooth="yes"/>
      <point x="-131" y="816"/>
      <point x="-144" y="802"/>
      <point x="-144" y="778" type="curve" smooth="yes"/>
      <point x="-144" y="753"/>
      <point x="-129" y="740"/>
    </contour>
  </outline>
</glyph>
<glyph name="visargaguru" format="2">
  <advance width="400"/>
  <unicode hex="0A03"/>
  <outline>
    <contour>
      <point x="200" y="366" type="curve" smooth="yes"/>
      <point x="280" y="366"/>
      <point x="334" y="419"/>
      <point x="334" y="494" type="curve" smooth="yes"/>
      <point x="334" y="571"/>
      <point x="279" y="622"/>
      <point x="200" y="622" type="curve" smooth="yes"/>
      <point x="121" y="622"/>
      <point x="66" y="571"/>
      <point x="66" y="494" type="curve" smooth="yes"/>
      <point x="66" y="417"/>
      <point x="121" y="366"/>
    </contour>
    <contour>
      <point x="200" y="392" type="curve" smooth="yes"/>
      <point x="131" y="392"/>
      <point x="93" y="436"/>
      <point x="93" y="494" type="curve" smooth="yes"/>
      <point x="93" y="552"/>
      <point x="131" y="596"/>
      <point x="200" y="596" type="curve" smooth="yes"/>
      <point x="269" y="596"/>
      <point x="307" y="552"/>
      <point x="307" y="494" type="curve" smooth="yes"/>
      <point x="307" y="436"/>
      <point x="269" y="392"/>
    </contour>
    <contour>
      <point x="200" y="0" type="curve" smooth="yes"/>
      <point x="280" y="0"/>
      <point x="334" y="53"/>
      <point x="334" y="128" type="curve" smooth="yes"/>
      <point x="334" y="205"/>
      <point x="273" y="256"/>
      <point x="200" y="256" type="curve" smooth="yes"/>
      <point x="121" y="256"/>
      <point x="66" y="205"/>
      <point x="66" y="128" type="curve" smooth="yes"/>
      <point x="66" y="51"/>
      <point x="121" y="0"/>
    </contour>
    <contour>
      <point x="200" y="26" type="curve" smooth="yes"/>
      <point x="131" y="26"/>
      <point x="93" y="70"/>
      <point x="93" y="128" type="curve" smooth="yes"/>
      <point x="93" y="186"/>
      <point x="131" y="230"/>
      <point x="200" y="230" type="curve" smooth="yes"/>
      <point x="269" y="230"/>
      <point x="307" y="186"/>
      <point x="307" y="128" type="curve" smooth="yes"/>
      <point x="307" y="70"/>
      <point x="269" y="26"/>
    </contour>
  </outline>
</glyph>
<glyph name="aguru" format="2">
  <advance width="705"/>
  <unicode hex="0A05"/>
  <outline>
    <contour>
      <point x="579" y="0" type="line"/>
      <point x="605" y="0" type="line"/>
      <point x="605" y="596" type="line"/>
      <point x="712" y="596" type="line"/>
      <point x="712" y="622" type="line"/>
      <point x="579" y="622" type="line"/>
      <point x="579" y="427" type="line"/>
      <point x="591" y="435" type="line"/>
      <point x="488" y="417"/>
      <point x="409" y="365"/>
      <point x="380" y="331" type="curve"/>
      <point x="394" y="333" type="line"/>
      <point x="393" y="405"/>
      <point x="370" y="493"/>
      <point x="342" y="549" type="curve"/>
      <point x="250" y="522"/>
      <point x="174" y="472"/>
      <point x="139" y="431" type="curve"/>
      <point x="151" y="432" type="line"/>
      <point x="151" y="490"/>
      <point x="129" y="570"/>
      <point x="102" y="622" type="curve"/>
      <point x="-7" y="622" type="line"/>
      <point x="-7" y="596" type="line"/>
      <point x="109" y="596" type="line"/>
      <point x="80" y="608" type="line"/>
      <point x="107" y="557"/>
      <point x="126" y="492"/>
      <point x="128" y="423" type="curve"/>
      <point x="91" y="369"/>
      <point x="64" y="304"/>
      <point x="64" y="260" type="curve" smooth="yes"/>
      <point x="64" y="247"/>
      <point x="70" y="237"/>
      <point x="80" y="237" type="curve" smooth="yes"/>
      <point x="108" y="237"/>
      <point x="139" y="314"/>
      <point x="150" y="412" type="curve"/>
      <point x="141" y="400" type="line"/>
      <point x="192" y="455"/>
      <point x="266" y="497"/>
      <point x="342" y="520" type="curve"/>
      <point x="320" y="525" type="line"/>
      <point x="345" y="491"/>
      <point x="369" y="386"/>
      <point x="369" y="323" type="curve"/>
      <point x="332" y="269"/>
      <point x="305" y="204"/>
      <point x="305" y="160" type="curve" smooth="yes"/>
      <point x="305" y="147"/>
      <point x="311" y="137"/>
      <point x="321" y="137" type="curve" smooth="yes"/>
      <point x="348" y="137"/>
      <point x="381" y="214"/>
      <point x="392" y="312" type="curve"/>
      <point x="383" y="300" type="line"/>
      <point x="430" y="349"/>
      <point x="502" y="392"/>
      <point x="591" y="408" type="curve"/>
      <point x="579" y="415" type="line"/>
    </contour>
  </outline>
</glyph>
<glyph name="aaguru" format="2">
  <advance width="904"/>
  <unicode hex="0A06"/>
  <outline>
    <contour>
      <point x="787" y="261" type="line"/>
      <point x="813" y="261" type="line"/>
      <point x="813" y="596" type="line"/>
      <point x="911" y="596" type="line"/>
      <point x="911" y="622" type="line"/>
      <point x="698" y="622" type="line"/>
      <point x="698" y="596" type="line"/>
      <point x="787" y="596" type="line"/>
    </contour>
    <component base="aguru"/>
  </outline>
</glyph>
<glyph name="ooguru" format="2">
  <advance width="617"/>
  <unicode hex="0A13"/>
  <outline>
    <contour>
      <point x="332" y="0" type="curve" smooth="yes"/>
      <point x="441" y="0"/>
      <point x="508" y="59"/>
      <point x="508" y="168" type="curve" smooth="yes"/>
      <point x="508" y="269"/>
      <point x="448" y="331"/>
      <point x="338" y="345" type="curve"/>
      <point x="336" y="341" type="line"/>
      <point x="473" y="351"/>
      <point x="574" y="408"/>
      <point x="574" y="586" type="curve"/>
      <point x="574" y="605" type="line"/>
      <point x="548" y="600" type="line"/>
      <point x="548" y="578" type="line"/>
      <point x="548" y="486"/>
      <point x="516" y="432"/>
      <point x="462" y="400" type="curve" smooth="yes"/>
      <point x="416" y="372"/>
      <point x="358" y="359"/>
      <point x="245" y="359" type="curve" smooth="yes"/>
      <point x="88" y="359" type="line"/>
      <point x="98" y="333" type="line"/>
      <point x="238" y="333" type="line" smooth="yes"/>
      <point x="323" y="333"/>
      <point x="367" y="323"/>
      <point x="403" y="304" type="curve" smooth="yes"/>
      <point x="456" y="276"/>
      <point x="481" y="234"/>
      <point x="481" y="167" type="curve" smooth="yes"/>
      <point x="481" y="74"/>
      <point x="424" y="26"/>
      <point x="331" y="26" type="curve" smooth="yes"/>
      <point x="202" y="26"/>
      <point x="101" y="130"/>
      <point x="101" y="419" type="curve" smooth="yes"/>
      <point x="101" y="585"/>
      <point x="136" y="701"/>
      <point x="219" y="762" type="curve" smooth="yes"/>
      <point x="265" y="797"/>
      <point x="319" y="814"/>
      <point x="433" y="814" type="curve" smooth="yes"/>
      <point x="570" y="814" type="line"/>
      <point x="572" y="840" type="line"/>
      <point x="435" y="840" type="line" smooth="yes"/>
      <point x="315" y="840"/>
      <point x="256" y="822"/>
      <point x="202" y="782" type="curve" smooth="yes"/>
      <point x="117" y="719"/>
      <point x="74" y="602"/>
      <point x="74" y="419" type="curve" smooth="yes"/>
      <point x="74" y="123"/>
      <point x="181" y="0"/>
    </contour>
    <contour>
      <point x="-7" y="596" type="line"/>
      <point x="634" y="596" type="line"/>
      <point x="634" y="622" type="line"/>
      <point x="-7" y="622" type="line"/>
    </contour>
  </outline>
</glyph>
<glyph name="gaguru" format="2">
  <advance width="674"/>
  <unicode hex="0A17"/>
  <outline>
    <contour>
      <point x="279" y="0" type="curve" smooth="yes"/>
      <point x="359" y="0"/>
      <point x="384" y="62"/>
      <point x="384" y="137" type="curve" smooth="yes"/>
      <point x="384" y="596" type="line"/>
      <point x="517" y="596" type="line"/>
      <point x="517" y="622" type="line"/>
      <point x="-7" y="622" type="line"/>
      <point x="-7" y="596" type="line"/>
      <point x="358" y="596" type="line"/>
      <point x="358" y="397" type="line"/>
      <point x="221" y="397" type="line" smooth="yes"/>
      <point x="144" y="397"/>
      <point x="107" y="382"/>
      <point x="81" y="357" type="curve" smooth="yes"/>
      <point x="57" y="333"/>
      <point x="46" y="300"/>
      <point x="46" y="261" type="curve" smooth="yes"/>
      <point x="46" y="142"/>
      <point x="157" y="0"/>
    </contour>
    <contour>
      <point x="279" y="26" type="curve" smooth="yes"/>
      <point x="171" y="26"/>
      <point x="73" y="158"/>
      <point x="73" y="260" type="curve" smooth="yes"/>
      <point x="73" y="294"/>
      <point x="81" y="321"/>
      <point x="101" y="340" type="curve" smooth="yes"/>
      <point x="122" y="360"/>
      <point x="153" y="371"/>
      <point x="214" y="371" type="curve" smooth="yes"/>
      <point x="358" y="371" type="line"/>
      <point x="358" y="145" type="line" smooth="yes"/>
      <point x="358" y="104"/>
      <point x="353" y="69"/>
      <point x="334" y="48" type="curve" smooth="yes"/>
      <point x="321" y="34"/>
      <point x="303" y="26"/>
    </contour>
    <contour>
      <point x="548" y="0" type="line"/>
      <point x="574" y="0" type="line"/>
      <point x="574" y="596" type="line"/>
      <point x="681" y="596" type="line"/>
      <point x="681" y="622" type="line"/>
      <point x="437" y="622" type="line"/>
      <point x="437" y="596" type="line"/>
      <point x="548" y="596" type="line"/>
    </contour>
  </outline>
</glyph>
<glyph name="ghaguru" format="2">
  <advance width="706"/>
  <unicode hex="0A18"/>
  <outline>
    <contour>
      <point x="220" y="169" type="curve" smooth="yes"/>
      <point x="311" y="169"/>
      <point x="361" y="238"/>
      <point x="366" y="355" type="curve"/>
      <point x="348" y="355" type="line"/>
      <point x="353" y="225"/>
      <point x="406" y="169"/>
      <point x="492" y="169" type="curve" smooth="yes"/>
      <point x="546" y="169"/>
      <point x="577" y="191"/>
      <point x="603" y="220" type="curve"/>
      <point x="588" y="238" type="line"/>
      <point x="564" y="212"/>
      <point x="536" y="195"/>
      <point x="492" y="195" type="curve" smooth="yes"/>
      <point x="430" y="195"/>
      <point x="378" y="241"/>
      <point x="368" y="335" type="curve"/>
      <point x="373" y="409"/>
      <point x="379" y="478"/>
      <point x="379" y="529" type="curve" smooth="yes"/>
      <point x="379" y="588"/>
      <point x="374" y="606"/>
      <point x="356" y="606" type="curve" smooth="yes"/>
      <point x="340" y="606"/>
      <point x="333" y="587"/>
      <point x="333" y="529" type="curve" smooth="yes"/>
      <point x="333" y="475"/>
      <point x="339" y="409"/>
      <point x="344" y="336" type="curve"/>
      <point x="334" y="253"/>
      <point x="295" y="195"/>
      <point x="220" y="195" type="curve" smooth="yes"/>
      <point x="151" y="195"/>
      <point x="103" y="235"/>
      <point x="77" y="336" type="curve"/>
      <point x="77" y="322" type="line"/>
      <point x="122" y="370"/>
      <point x="150" y="414"/>
      <point x="150" y="479" type="curve" smooth="yes"/>
      <point x="150" y="530"/>
      <point x="136" y="575"/>
      <point x="115" y="622" type="curve"/>
      <point x="-7" y="622" type="line"/>
      <point x="-7" y="596" type="line"/>
      <point x="115" y="596" type="line"/>
      <point x="89" y="606" type="line"/>
      <point x="111" y="568"/>
      <point x="123" y="527"/>
      <point x="123" y="479" type="curve" smooth="yes"/>
      <point x="123" y="419"/>
      <point x="97" y="379"/>
      <point x="50" y="333" type="curve"/>
      <point x="84" y="208"/>
      <point x="144" y="169"/>
    </contour>
    <contour>
      <point x="580" y="0" type="line"/>
      <point x="606" y="0" type="line"/>
      <point x="606" y="596" type="line"/>
      <point x="713" y="596" type="line"/>
      <point x="713" y="622" type="line"/>
      <point x="580" y="622" type="line"/>
    </contour>
  </outline>
</glyph>
<glyph name="ngaguru" format="2">
  <advance width="537"/>
  <unicode hex="0A19"/>
  <outline>
    <contour>
      <point x="435" y="-7" type="curve"/>
      <point x="460" y="0" type="line"/>
      <point x="441" y="42"/>
      <point x="419" y="83"/>
      <point x="394" y="118" type="curve"/>
      <point x="331" y="210"/>
      <point x="259" y="260"/>
      <point x="173" y="260" type="curve" smooth="yes"/>
      <point x="99" y="260"/>
      <point x="51" y="218"/>
      <point x="51" y="155" type="curve" smooth="yes"/>
      <point x="51" y="89"/>
      <point x="109" y="40"/>
      <point x="220" y="40" type="curve" smooth="yes"/>
      <point x="373" y="40"/>
      <point x="491" y="149"/>
      <point x="491" y="281" type="curve" smooth="yes"/>
      <point x="491" y="327"/>
      <point x="477" y="362"/>
      <point x="450" y="387" type="curve" smooth="yes"/>
      <point x="418" y="417"/>
      <point x="375" y="431"/>
      <point x="288" y="431" type="curve" smooth="yes"/>
      <point x="126" y="431" type="line"/>
      <point x="126" y="596" type="line"/>
      <point x="544" y="596" type="line"/>
      <point x="544" y="622" type="line"/>
      <point x="-7" y="622" type="line"/>
      <point x="-7" y="596" type="line"/>
      <point x="100" y="596" type="line"/>
      <point x="100" y="420" type="line"/>
      <point x="117" y="405" type="line"/>
      <point x="278" y="405" type="line" smooth="yes"/>
      <point x="370" y="405"/>
      <point x="405" y="392"/>
      <point x="432" y="367" type="curve" smooth="yes"/>
      <point x="454" y="347"/>
      <point x="464" y="318"/>
      <point x="464" y="281" type="curve" smooth="yes"/>
      <point x="464" y="216"/>
      <point x="433" y="157"/>
      <point x="382" y="118" type="curve" smooth="yes"/>
      <point x="338" y="84"/>
      <point x="284" y="66"/>
      <point x="221" y="66" type="curve" smooth="yes"/>
      <point x="125" y="66"/>
      <point x="78" y="102"/>
      <point x="78" y="155" type="curve" smooth="yes"/>
      <point x="78" y="206"/>
      <point x="119" y="234"/>
      <point x="174" y="234" type="curve" smooth="yes"/>
      <point x="304" y="234"/>
      <point x="391" y="93"/>
    </contour>
  </outline>
</glyph>
<glyph name="caguru" format="2">
  <advance width="589"/>
  <unicode hex="0A1A"/>
  <outline>
    <contour>
      <point x="370" y="0" type="curve" smooth="yes"/>
      <point x="467" y="0"/>
      <point x="489" y="60"/>
      <point x="489" y="143" type="curve" smooth="yes"/>
      <point x="489" y="601" type="line"/>
      <point x="463" y="601" type="line"/>
      <point x="463" y="154" type="line" smooth="yes"/>
      <point x="463" y="104"/>
      <point x="458" y="71"/>
      <point x="439" y="50" type="curve" smooth="yes"/>
      <point x="427" y="37"/>
      <point x="410" y="26"/>
      <point x="369" y="26" type="curve" smooth="yes"/>
      <point x="263" y="26"/>
      <point x="134" y="128"/>
      <point x="116" y="343" type="curve"/>
      <point x="109" y="333" type="line"/>
      <point x="471" y="333" type="line"/>
      <point x="478" y="359" type="line"/>
      <point x="119" y="359" type="line"/>
      <point x="119" y="386" type="line" smooth="yes"/>
      <point x="119" y="403"/>
      <point x="116" y="419"/>
      <point x="101" y="419" type="curve" smooth="yes"/>
      <point x="76" y="419"/>
      <point x="40" y="378"/>
      <point x="40" y="354" type="curve" smooth="yes"/>
      <point x="40" y="337"/>
      <point x="57" y="333"/>
      <point x="80" y="333" type="curve" smooth="yes"/>
      <point x="99" y="333" type="line"/>
      <point x="89" y="340" type="line"/>
      <point x="94" y="269"/>
      <point x="117" y="192"/>
      <point x="151" y="138" type="curve" smooth="yes"/>
      <point x="203" y="54"/>
      <point x="282" y="0"/>
    </contour>
    <contour>
      <point x="-7" y="596" type="line"/>
      <point x="596" y="596" type="line"/>
      <point x="596" y="622" type="line"/>
      <point x="-7" y="622" type="line"/>
    </contour>
  </outline>
</glyph>
<glyph name="chaguru" format="2">
  <advance width="602"/>
  <unicode hex="0A1B"/>
  <outline>
    <contour>
      <point x="307" y="0" type="curve" smooth="yes"/>
      <point x="489" y="0"/>
      <point x="555" y="39"/>
      <point x="555" y="135" type="curve" smooth="yes"/>
      <point x="555" y="211"/>
      <point x="502" y="261"/>
      <point x="370" y="261" type="curve" smooth="yes"/>
      <point x="255" y="261" type="line" smooth="yes"/>
      <point x="146" y="261"/>
      <point x="86" y="279"/>
      <point x="86" y="347" type="curve" smooth="yes"/>
      <point x="86" y="371"/>
      <point x="96" y="388"/>
      <point x="113" y="400" type="curve" smooth="yes"/>
      <point x="133" y="414"/>
      <point x="160" y="419"/>
      <point x="208" y="419" type="curve" smooth="yes"/>
      <point x="475" y="419" type="line"/>
      <point x="492" y="434" type="line"/>
      <point x="492" y="596" type="line"/>
      <point x="609" y="596" type="line"/>
      <point x="609" y="622" type="line"/>
      <point x="-7" y="622" type="line"/>
      <point x="-7" y="596" type="line"/>
      <point x="466" y="596" type="line"/>
      <point x="466" y="445" type="line"/>
      <point x="211" y="445" type="line" smooth="yes"/>
      <point x="161" y="445"/>
      <point x="125" y="440"/>
      <point x="100" y="423" type="curve" smooth="yes"/>
      <point x="75" y="406"/>
      <point x="59" y="383"/>
      <point x="59" y="347" type="curve" smooth="yes"/>
      <point x="59" y="283"/>
      <point x="104" y="251"/>
      <point x="185" y="245" type="curve"/>
      <point x="184" y="235" type="line"/>
      <point x="371" y="235" type="line" smooth="yes"/>
      <point x="480" y="235"/>
      <point x="528" y="200"/>
      <point x="528" y="135" type="curve" smooth="yes"/>
      <point x="528" y="64"/>
      <point x="483" y="25"/>
      <point x="312" y="25" type="curve" smooth="yes"/>
      <point x="290" y="25" type="line" smooth="yes"/>
      <point x="158" y="25"/>
      <point x="82" y="54"/>
      <point x="82" y="135" type="curve" smooth="yes"/>
      <point x="82" y="196"/>
      <point x="132" y="235"/>
      <point x="246" y="235" type="curve"/>
      <point x="185" y="248" type="line"/>
      <point x="90" y="240"/>
      <point x="55" y="187"/>
      <point x="55" y="135" type="curve" smooth="yes"/>
      <point x="55" y="35"/>
      <point x="146" y="0"/>
    </contour>
    <contour>
      <point x="314" y="10" type="line"/>
      <point x="314" y="252" type="line"/>
      <point x="288" y="252" type="line"/>
      <point x="288" y="10" type="line"/>
    </contour>
  </outline>
</glyph>
<glyph name="jaguru" format="2">
  <advance width="562"/>
  <unicode hex="0A1C"/>
  <outline>
    <contour>
      <point x="104" y="0" type="line"/>
      <point x="130" y="0" type="line"/>
      <point x="130" y="333" type="line"/>
      <point x="436" y="333" type="line"/>
      <point x="436" y="0" type="line"/>
      <point x="462" y="0" type="line"/>
      <point x="462" y="596" type="line"/>
      <point x="569" y="596" type="line"/>
      <point x="569" y="622" type="line"/>
      <point x="-7" y="622" type="line"/>
      <point x="-7" y="596" type="line"/>
      <point x="436" y="596" type="line"/>
      <point x="436" y="359" type="line"/>
      <point x="132" y="359" type="line"/>
      <point x="132" y="386" type="line" smooth="yes"/>
      <point x="132" y="403"/>
      <point x="129" y="419"/>
      <point x="114" y="419" type="curve" smooth="yes"/>
      <point x="89" y="419"/>
      <point x="53" y="378"/>
      <point x="53" y="354" type="curve" smooth="yes"/>
      <point x="53" y="337"/>
      <point x="70" y="333"/>
      <point x="94" y="333" type="curve" smooth="yes"/>
      <point x="104" y="333" type="line"/>
    </contour>
  </outline>
</glyph>
<glyph name="jhaguru" format="2">
  <advance width="560"/>
  <unicode hex="0A1D"/>
  <outline>
    <contour>
      <point x="211" y="91" type="curve" smooth="yes"/>
      <point x="240" y="91"/>
      <point x="261" y="92"/>
      <point x="271" y="93" type="curve"/>
      <point x="276" y="93" type="line"/>
      <point x="392" y="96"/>
      <point x="496" y="154"/>
      <point x="496" y="258" type="curve" smooth="yes"/>
      <point x="496" y="346"/>
      <point x="416" y="406"/>
      <point x="266" y="406" type="curve" smooth="yes"/>
      <point x="211" y="406"/>
      <point x="119" y="396"/>
      <point x="38" y="370" type="curve"/>
      <point x="46" y="344" type="line"/>
      <point x="131" y="370"/>
      <point x="185" y="383"/>
      <point x="268" y="383" type="curve" smooth="yes"/>
      <point x="373" y="383"/>
      <point x="469" y="349"/>
      <point x="469" y="257" type="curve" smooth="yes"/>
      <point x="469" y="167"/>
      <point x="375" y="119"/>
      <point x="258" y="117" type="curve"/>
      <point x="218" y="132"/>
      <point x="183" y="143"/>
      <point x="136" y="143" type="curve" smooth="yes"/>
      <point x="96" y="143"/>
      <point x="84" y="137"/>
      <point x="84" y="123" type="curve" smooth="yes"/>
      <point x="84" y="101"/>
      <point x="133" y="91"/>
    </contour>
    <contour>
      <point x="379" y="-10" type="curve"/>
      <point x="398" y="9" type="line"/>
      <point x="359" y="45"/>
      <point x="304" y="87"/>
      <point x="257" y="111" type="curve"/>
      <point x="227" y="103" type="line"/>
      <point x="284" y="75"/>
      <point x="338" y="29"/>
    </contour>
    <contour>
      <point x="245" y="391" type="curve"/>
      <point x="290" y="407" type="line"/>
      <point x="184" y="407"/>
      <point x="118" y="466"/>
      <point x="118" y="601" type="curve"/>
      <point x="92" y="605" type="line"/>
      <point x="92" y="480"/>
      <point x="137" y="410"/>
    </contour>
    <contour>
      <point x="-7" y="596" type="line"/>
      <point x="567" y="596" type="line"/>
      <point x="567" y="622" type="line"/>
      <point x="-7" y="622" type="line"/>
    </contour>
    <contour>
      <point x="319" y="391" type="line"/>
      <point x="427" y="410"/>
      <point x="472" y="480"/>
      <point x="472" y="605" type="curve"/>
      <point x="446" y="601" type="line"/>
      <point x="446" y="466"/>
      <point x="380" y="407"/>
      <point x="273" y="407" type="curve"/>
    </contour>
  </outline>
</glyph>
<glyph name="nyaguru" format="2">
  <advance width="530"/>
  <unicode hex="0A1E"/>
  <outline>
    <contour>
      <point x="175" y="427" type="curve"/>
      <point x="197" y="436" type="line"/>
      <point x="175" y="489"/>
      <point x="134" y="562"/>
      <point x="96" y="613" type="curve"/>
      <point x="70" y="603" type="line"/>
      <point x="110" y="553"/>
      <point x="149" y="483"/>
    </contour>
    <component base="vaguru"/>
  </outline>
</glyph>
<glyph name="ttaguru" format="2">
  <advance width="535"/>
  <unicode hex="0A1F"/>
  <guideline x="155" y="226" angle="0"/>
  <guideline x="198" y="233" angle="0"/>
  <outline>
    <contour>
      <point x="314" y="0" type="curve" smooth="yes"/>
      <point x="381" y="0"/>
      <point x="437" y="13"/>
      <point x="497" y="44" type="curve"/>
      <point x="487" y="67" type="line"/>
      <point x="427" y="39"/>
      <point x="382" y="26"/>
      <point x="314" y="26" type="curve" smooth="yes"/>
      <point x="199" y="26"/>
      <point x="125" y="92"/>
      <point x="65" y="249" type="curve"/>
      <point x="60" y="208" type="line"/>
      <point x="96" y="265"/>
      <point x="136" y="311"/>
      <point x="187" y="346" type="curve" smooth="yes"/>
      <point x="235" y="379"/>
      <point x="282" y="392"/>
      <point x="385" y="392" type="curve" smooth="yes"/>
      <point x="418" y="392" type="line"/>
      <point x="435" y="407" type="line"/>
      <point x="435" y="596" type="line"/>
      <point x="542" y="596" type="line"/>
      <point x="542" y="622" type="line"/>
      <point x="-7" y="622" type="line"/>
      <point x="-7" y="596" type="line"/>
      <point x="409" y="596" type="line"/>
      <point x="409" y="418" type="line"/>
      <point x="382" y="418" type="line" smooth="yes"/>
      <point x="275" y="418"/>
      <point x="222" y="403"/>
      <point x="168" y="365" type="curve" smooth="yes"/>
      <point x="121" y="332"/>
      <point x="79" y="286"/>
      <point x="42" y="230" type="curve"/>
      <point x="108" y="76"/>
      <point x="182" y="0"/>
    </contour>
  </outline>
</glyph>
<glyph name="tthaguru" format="2">
  <advance width="614"/>
  <unicode hex="0A20"/>
  <outline>
    <contour>
      <point x="307" y="0" type="curve" smooth="yes"/>
      <point x="487" y="0"/>
      <point x="566" y="72"/>
      <point x="566" y="195" type="curve" smooth="yes"/>
      <point x="566" y="288"/>
      <point x="504" y="385"/>
      <point x="320" y="434" type="curve"/>
      <point x="320" y="596" type="line"/>
      <point x="621" y="596" type="line"/>
      <point x="621" y="622" type="line"/>
      <point x="-7" y="622" type="line"/>
      <point x="-7" y="596" type="line"/>
      <point x="294" y="596" type="line"/>
      <point x="294" y="434" type="line"/>
      <point x="110" y="385"/>
      <point x="48" y="288"/>
      <point x="48" y="195" type="curve" smooth="yes"/>
      <point x="48" y="72"/>
      <point x="127" y="0"/>
    </contour>
    <contour>
      <point x="307" y="26" type="curve" smooth="yes"/>
      <point x="147" y="26"/>
      <point x="75" y="81"/>
      <point x="75" y="195" type="curve" smooth="yes"/>
      <point x="75" y="296"/>
      <point x="155" y="373"/>
      <point x="307" y="412" type="curve"/>
      <point x="459" y="373"/>
      <point x="539" y="296"/>
      <point x="539" y="195" type="curve" smooth="yes"/>
      <point x="539" y="81"/>
      <point x="467" y="26"/>
    </contour>
  </outline>
</glyph>
<glyph name="ddaguru" format="2">
  <advance width="558"/>
  <unicode hex="0A21"/>
  <outline>
    <contour>
      <point x="227" y="0" type="curve" smooth="yes"/>
      <point x="404" y="0"/>
      <point x="493" y="83"/>
      <point x="493" y="200" type="curve" smooth="yes"/>
      <point x="493" y="285"/>
      <point x="448" y="340"/>
      <point x="364" y="377" type="curve"/>
      <point x="443" y="411"/>
      <point x="468" y="465"/>
      <point x="468" y="541" type="curve" smooth="yes"/>
      <point x="468" y="566"/>
      <point x="465" y="588"/>
      <point x="458" y="613" type="curve"/>
      <point x="453" y="596" type="line"/>
      <point x="565" y="596" type="line"/>
      <point x="565" y="622" type="line"/>
      <point x="-7" y="622" type="line"/>
      <point x="-7" y="596" type="line"/>
      <point x="444" y="596" type="line"/>
      <point x="430" y="613" type="line"/>
      <point x="438" y="590"/>
      <point x="442" y="569"/>
      <point x="442" y="541" type="curve" smooth="yes"/>
      <point x="442" y="462"/>
      <point x="410" y="418"/>
      <point x="334" y="389" type="curve"/>
      <point x="306" y="397"/>
      <point x="246" y="405"/>
      <point x="195" y="405" type="curve" smooth="yes"/>
      <point x="151" y="405"/>
      <point x="123" y="399"/>
      <point x="123" y="382" type="curve" smooth="yes"/>
      <point x="123" y="363"/>
      <point x="157" y="356"/>
      <point x="216" y="356" type="curve" smooth="yes"/>
      <point x="247" y="356"/>
      <point x="283" y="358"/>
      <point x="329" y="364" type="curve"/>
      <point x="408" y="339"/>
      <point x="466" y="289"/>
      <point x="466" y="200" type="curve" smooth="yes"/>
      <point x="466" y="101"/>
      <point x="399" y="26"/>
      <point x="227" y="26" type="curve" smooth="yes"/>
      <point x="129" y="26"/>
      <point x="71" y="62"/>
      <point x="71" y="117" type="curve" smooth="yes"/>
      <point x="71" y="170"/>
      <point x="112" y="198"/>
      <point x="165" y="198" type="curve" smooth="yes"/>
      <point x="253" y="198"/>
      <point x="321" y="137"/>
      <point x="384" y="55" type="curve"/>
      <point x="407" y="66" type="line"/>
      <point x="348" y="147"/>
      <point x="268" y="224"/>
      <point x="166" y="224" type="curve" smooth="yes"/>
      <point x="92" y="224"/>
      <point x="44" y="182"/>
      <point x="44" y="117" type="curve" smooth="yes"/>
      <point x="44" y="49"/>
      <point x="109" y="0"/>
    </contour>
  </outline>
</glyph>
<glyph name="ddhaguru" format="2">
  <advance width="587"/>
  <unicode hex="0A22"/>
  <outline>
    <contour>
      <point x="368" y="0" type="curve" smooth="yes"/>
      <point x="479" y="0"/>
      <point x="537" y="49"/>
      <point x="537" y="117" type="curve" smooth="yes"/>
      <point x="537" y="182"/>
      <point x="489" y="224"/>
      <point x="415" y="224" type="curve" smooth="yes"/>
      <point x="313" y="224"/>
      <point x="229" y="147"/>
      <point x="185" y="88" type="curve"/>
      <point x="205" y="73" type="line"/>
      <point x="256" y="137"/>
      <point x="328" y="198"/>
      <point x="416" y="198" type="curve" smooth="yes"/>
      <point x="469" y="198"/>
      <point x="510" y="170"/>
      <point x="510" y="117" type="curve" smooth="yes"/>
      <point x="510" y="62"/>
      <point x="460" y="26"/>
      <point x="367" y="26" type="curve" smooth="yes"/>
      <point x="231" y="26"/>
      <point x="117" y="131"/>
      <point x="117" y="360" type="curve"/>
      <point x="472" y="360" type="line"/>
      <point x="487" y="374" type="line"/>
      <point x="487" y="596" type="line"/>
      <point x="594" y="596" type="line"/>
      <point x="594" y="622" type="line"/>
      <point x="-7" y="622" type="line"/>
      <point x="-7" y="596" type="line"/>
      <point x="461" y="596" type="line"/>
      <point x="461" y="386" type="line"/>
      <point x="119" y="386" type="line"/>
      <point x="119" y="413" type="line" smooth="yes"/>
      <point x="119" y="430"/>
      <point x="116" y="446"/>
      <point x="101" y="446" type="curve" smooth="yes"/>
      <point x="76" y="446"/>
      <point x="40" y="405"/>
      <point x="40" y="381" type="curve" smooth="yes"/>
      <point x="40" y="364"/>
      <point x="57" y="360"/>
      <point x="80" y="360" type="curve" smooth="yes"/>
      <point x="91" y="360" type="line"/>
      <point x="91" y="352" type="line" smooth="yes"/>
      <point x="91" y="124"/>
      <point x="213" y="0"/>
    </contour>
  </outline>
</glyph>
<glyph name="nnaguru" format="2">
  <advance width="585"/>
  <unicode hex="0A23"/>
  <outline>
    <contour>
      <point x="335" y="0" type="curve" smooth="yes"/>
      <point x="412" y="0"/>
      <point x="473" y="18"/>
      <point x="547" y="51" type="curve"/>
      <point x="537" y="74" type="line"/>
      <point x="457" y="39"/>
      <point x="404" y="26"/>
      <point x="335" y="26" type="curve" smooth="yes"/>
      <point x="193" y="26"/>
      <point x="129" y="97"/>
      <point x="64" y="231" type="curve"/>
      <point x="62" y="194" type="line"/>
      <point x="110" y="285"/>
      <point x="181" y="345"/>
      <point x="257" y="345" type="curve" smooth="yes"/>
      <point x="289" y="345"/>
      <point x="312" y="340"/>
      <point x="343" y="327" type="curve"/>
      <point x="362" y="334" type="line"/>
      <point x="414" y="438" type="line"/>
      <point x="392" y="449" type="line"/>
      <point x="338" y="342" type="line"/>
      <point x="349" y="351" type="line"/>
      <point x="320" y="363"/>
      <point x="300" y="371"/>
      <point x="257" y="371" type="curve" smooth="yes"/>
      <point x="180" y="371"/>
      <point x="103" y="319"/>
      <point x="42" y="214" type="curve"/>
      <point x="111" y="77"/>
      <point x="181" y="0"/>
    </contour>
    <contour>
      <point x="524" y="370" type="curve"/>
      <point x="534" y="394" type="line"/>
      <point x="424" y="436"/>
      <point x="284" y="522"/>
      <point x="200" y="611" type="curve"/>
      <point x="200" y="596" type="line"/>
      <point x="592" y="596" type="line"/>
      <point x="592" y="622" type="line"/>
      <point x="-7" y="622" type="line"/>
      <point x="-7" y="596" type="line"/>
      <point x="195" y="596" type="line"/>
      <point x="169" y="605" type="line"/>
      <point x="280" y="493"/>
      <point x="396" y="425"/>
    </contour>
  </outline>
</glyph>
<glyph name="taguru" format="2">
  <advance width="517"/>
  <unicode hex="0A24"/>
  <outline>
    <contour>
      <point x="234" y="0" type="curve" smooth="yes"/>
      <point x="369" y="0"/>
      <point x="452" y="68"/>
      <point x="452" y="184" type="curve" smooth="yes"/>
      <point x="452" y="267"/>
      <point x="406" y="329"/>
      <point x="323" y="369" type="curve"/>
      <point x="402" y="403"/>
      <point x="427" y="457"/>
      <point x="427" y="533" type="curve" smooth="yes"/>
      <point x="427" y="558"/>
      <point x="424" y="588"/>
      <point x="417" y="605" type="curve"/>
      <point x="410" y="596" type="line"/>
      <point x="524" y="596" type="line"/>
      <point x="524" y="622" type="line"/>
      <point x="-7" y="622" type="line"/>
      <point x="-7" y="596" type="line"/>
      <point x="401" y="596" type="line"/>
      <point x="389" y="605" type="line"/>
      <point x="397" y="590"/>
      <point x="401" y="561"/>
      <point x="401" y="533" type="curve" smooth="yes"/>
      <point x="401" y="454"/>
      <point x="369" y="410"/>
      <point x="293" y="381" type="curve"/>
      <point x="265" y="389"/>
      <point x="205" y="397"/>
      <point x="154" y="397" type="curve" smooth="yes"/>
      <point x="110" y="397"/>
      <point x="82" y="391"/>
      <point x="82" y="374" type="curve" smooth="yes"/>
      <point x="82" y="355"/>
      <point x="116" y="348"/>
      <point x="175" y="348" type="curve" smooth="yes"/>
      <point x="206" y="348"/>
      <point x="242" y="350"/>
      <point x="288" y="356" type="curve"/>
      <point x="359" y="334"/>
      <point x="425" y="279"/>
      <point x="425" y="184" type="curve" smooth="yes"/>
      <point x="425" y="79"/>
      <point x="349" y="26"/>
      <point x="233" y="26" type="curve" smooth="yes"/>
      <point x="155" y="26"/>
      <point x="85" y="53"/>
      <point x="26" y="93" type="curve"/>
      <point x="15" y="70" type="line"/>
      <point x="66" y="34"/>
      <point x="145" y="0"/>
    </contour>
  </outline>
</glyph>
<glyph name="daguru" format="2">
  <advance width="556"/>
  <unicode hex="0A26"/>
  <outline>
    <contour>
      <point x="339" y="0" type="curve" smooth="yes"/>
      <point x="398" y="0"/>
      <point x="451" y="11"/>
      <point x="509" y="40" type="curve"/>
      <point x="499" y="63" type="line"/>
      <point x="436" y="35"/>
      <point x="394" y="26"/>
      <point x="339" y="26" type="curve" smooth="yes"/>
      <point x="217" y="26"/>
      <point x="117" y="91"/>
      <point x="117" y="333" type="curve"/>
      <point x="441" y="333" type="line"/>
      <point x="456" y="347" type="line"/>
      <point x="456" y="596" type="line"/>
      <point x="563" y="596" type="line"/>
      <point x="563" y="622" type="line"/>
      <point x="-7" y="622" type="line"/>
      <point x="-7" y="596" type="line"/>
      <point x="430" y="596" type="line"/>
      <point x="430" y="359" type="line"/>
      <point x="119" y="359" type="line"/>
      <point x="119" y="386" type="line" smooth="yes"/>
      <point x="119" y="403"/>
      <point x="116" y="419"/>
      <point x="101" y="419" type="curve" smooth="yes"/>
      <point x="76" y="419"/>
      <point x="40" y="378"/>
      <point x="40" y="354" type="curve" smooth="yes"/>
      <point x="40" y="337"/>
      <point x="57" y="333"/>
      <point x="80" y="333" type="curve" smooth="yes"/>
      <point x="91" y="333" type="line"/>
      <point x="91" y="320" type="line" smooth="yes"/>
      <point x="91" y="91"/>
      <point x="189" y="0"/>
    </contour>
  </outline>
</glyph>
<glyph name="dhaguru" format="2">
  <advance width="543"/>
  <unicode hex="0A27"/>
  <outline>
    <contour>
      <point x="417" y="0" type="line"/>
      <point x="443" y="0" type="line"/>
      <point x="443" y="596" type="line"/>
      <point x="550" y="596" type="line"/>
      <point x="550" y="622" type="line"/>
      <point x="97" y="622" type="line"/>
      <point x="108" y="596" type="line"/>
      <point x="417" y="596" type="line"/>
      <point x="417" y="232" type="line"/>
      <point x="421" y="246" type="line"/>
      <point x="373" y="207"/>
      <point x="321" y="194"/>
      <point x="271" y="194" type="curve" smooth="yes"/>
      <point x="184" y="194"/>
      <point x="114" y="243"/>
      <point x="78" y="334" type="curve"/>
      <point x="77" y="322" type="line"/>
      <point x="122" y="370"/>
      <point x="150" y="415"/>
      <point x="150" y="479" type="curve" smooth="yes"/>
      <point x="150" y="530"/>
      <point x="136" y="575"/>
      <point x="112" y="622" type="curve"/>
      <point x="-7" y="622" type="line"/>
      <point x="-7" y="596" type="line"/>
      <point x="95" y="596" type="line"/>
      <point x="111" y="564"/>
      <point x="123" y="527"/>
      <point x="123" y="479" type="curve" smooth="yes"/>
      <point x="123" y="420"/>
      <point x="97" y="379"/>
      <point x="50" y="333" type="curve"/>
      <point x="102" y="209"/>
      <point x="183" y="168"/>
      <point x="271" y="168" type="curve" smooth="yes"/>
      <point x="332" y="168"/>
      <point x="378" y="184"/>
      <point x="423" y="215" type="curve"/>
      <point x="417" y="226" type="line"/>
    </contour>
  </outline>
</glyph>
<glyph name="naguru" format="2">
  <advance width="606"/>
  <unicode hex="0A28"/>
  <outline>
    <contour>
      <point x="224" y="0" type="curve"/>
      <point x="225" y="26" type="line"/>
      <point x="132" y="26"/>
      <point x="75" y="86"/>
      <point x="75" y="185" type="curve" smooth="yes"/>
      <point x="75" y="297"/>
      <point x="157" y="373"/>
      <point x="303" y="412" type="curve"/>
      <point x="449" y="373"/>
      <point x="531" y="297"/>
      <point x="531" y="184" type="curve" smooth="yes"/>
      <point x="531" y="86"/>
      <point x="474" y="26"/>
      <point x="381" y="26" type="curve"/>
      <point x="382" y="0" type="line"/>
      <point x="497" y="0"/>
      <point x="558" y="79"/>
      <point x="558" y="184" type="curve" smooth="yes"/>
      <point x="558" y="292"/>
      <point x="492" y="384"/>
      <point x="316" y="434" type="curve"/>
      <point x="316" y="596" type="line"/>
      <point x="613" y="596" type="line"/>
      <point x="613" y="622" type="line"/>
      <point x="-7" y="622" type="line"/>
      <point x="-7" y="596" type="line"/>
      <point x="290" y="596" type="line"/>
      <point x="290" y="434" type="line"/>
      <point x="116" y="384"/>
      <point x="48" y="292"/>
      <point x="48" y="185" type="curve" smooth="yes"/>
      <point x="48" y="79"/>
      <point x="109" y="0"/>
    </contour>
  </outline>
</glyph>
<glyph name="phaguru" format="2">
  <advance width="537"/>
  <unicode hex="0A2B"/>
  <outline>
    <contour>
      <point x="317" y="0" type="curve" smooth="yes"/>
      <point x="428" y="0"/>
      <point x="486" y="49"/>
      <point x="486" y="117" type="curve" smooth="yes"/>
      <point x="486" y="182"/>
      <point x="438" y="224"/>
      <point x="364" y="224" type="curve" smooth="yes"/>
      <point x="264" y="224"/>
      <point x="181" y="150"/>
      <point x="136" y="91" type="curve"/>
      <point x="154" y="73" type="line"/>
      <point x="205" y="137"/>
      <point x="277" y="198"/>
      <point x="365" y="198" type="curve" smooth="yes"/>
      <point x="418" y="198"/>
      <point x="459" y="170"/>
      <point x="459" y="117" type="curve" smooth="yes"/>
      <point x="459" y="62"/>
      <point x="409" y="26"/>
      <point x="316" y="26" type="curve" smooth="yes"/>
      <point x="190" y="26"/>
      <point x="73" y="130"/>
      <point x="73" y="263" type="curve" smooth="yes"/>
      <point x="73" y="300"/>
      <point x="84" y="327"/>
      <point x="104" y="347" type="curve" smooth="yes"/>
      <point x="137" y="380"/>
      <point x="186" y="392"/>
      <point x="272" y="392" type="curve" smooth="yes"/>
      <point x="420" y="392" type="line"/>
      <point x="437" y="407" type="line"/>
      <point x="437" y="596" type="line"/>
      <point x="544" y="596" type="line"/>
      <point x="544" y="622" type="line"/>
      <point x="-7" y="622" type="line"/>
      <point x="-7" y="596" type="line"/>
      <point x="411" y="596" type="line"/>
      <point x="411" y="418" type="line"/>
      <point x="272" y="418" type="line" smooth="yes"/>
      <point x="179" y="418"/>
      <point x="122" y="402"/>
      <point x="84" y="364" type="curve" smooth="yes"/>
      <point x="60" y="340"/>
      <point x="46" y="307"/>
      <point x="46" y="264" type="curve" smooth="yes"/>
      <point x="46" y="120"/>
      <point x="171" y="0"/>
    </contour>
  </outline>
</glyph>
<glyph name="bhaguru" format="2">
  <advance width="531"/>
  <unicode hex="0A2D"/>
  <outline>
    <contour>
      <point x="234" y="0" type="curve" smooth="yes"/>
      <point x="375" y="0"/>
      <point x="459" y="68"/>
      <point x="459" y="204" type="curve" smooth="yes"/>
      <point x="459" y="263"/>
      <point x="441" y="317"/>
      <point x="406" y="359" type="curve"/>
      <point x="402" y="365" type="line"/>
      <point x="352" y="424"/>
      <point x="283" y="456"/>
      <point x="205" y="456" type="curve" smooth="yes"/>
      <point x="112" y="456"/>
      <point x="66" y="409"/>
      <point x="66" y="348" type="curve" smooth="yes"/>
      <point x="66" y="274"/>
      <point x="127" y="238"/>
      <point x="205" y="238" type="curve" smooth="yes"/>
      <point x="293" y="238"/>
      <point x="361" y="275"/>
      <point x="405" y="337" type="curve"/>
      <point x="408" y="342" type="line"/>
      <point x="436" y="383"/>
      <point x="450" y="432"/>
      <point x="450" y="485" type="curve" smooth="yes"/>
      <point x="450" y="535"/>
      <point x="443" y="570"/>
      <point x="431" y="605" type="curve"/>
      <point x="425" y="596" type="line"/>
      <point x="538" y="596" type="line"/>
      <point x="538" y="622" type="line"/>
      <point x="-7" y="622" type="line"/>
      <point x="-7" y="596" type="line"/>
      <point x="416" y="596" type="line"/>
      <point x="403" y="605" type="line"/>
      <point x="417" y="570"/>
      <point x="424" y="533"/>
      <point x="424" y="483" type="curve" smooth="yes"/>
      <point x="424" y="372"/>
      <point x="350" y="264"/>
      <point x="205" y="264" type="curve" smooth="yes"/>
      <point x="142" y="264"/>
      <point x="93" y="290"/>
      <point x="93" y="348" type="curve" smooth="yes"/>
      <point x="93" y="398"/>
      <point x="132" y="430"/>
      <point x="205" y="430" type="curve" smooth="yes"/>
      <point x="327" y="430"/>
      <point x="432" y="343"/>
      <point x="432" y="203" type="curve" smooth="yes"/>
      <point x="432" y="80"/>
      <point x="356" y="26"/>
      <point x="234" y="26" type="curve" smooth="yes"/>
      <point x="162" y="26"/>
      <point x="85" y="53"/>
      <point x="26" y="95" type="curve"/>
      <point x="15" y="72" type="line"/>
      <point x="64" y="35"/>
      <point x="150" y="0"/>
    </contour>
  </outline>
</glyph>
<glyph name="maguru" format="2">
  <advance width="544"/>
  <unicode hex="0A2E"/>
  <outline>
    <contour>
      <point x="418" y="0" type="line"/>
      <point x="444" y="0" type="line"/>
      <point x="444" y="596" type="line"/>
      <point x="551" y="596" type="line"/>
      <point x="551" y="622" type="line"/>
      <point x="418" y="622" type="line"/>
      <point x="418" y="327" type="line"/>
      <point x="155" y="327" type="line"/>
      <point x="153" y="409"/>
      <point x="126" y="527"/>
      <point x="91" y="622" type="curve"/>
      <point x="-7" y="622" type="line"/>
      <point x="-7" y="596" type="line"/>
      <point x="71" y="596" type="line"/>
      <point x="102" y="515"/>
      <point x="128" y="397"/>
      <point x="129" y="311" type="curve"/>
      <point x="101" y="264"/>
      <point x="68" y="189"/>
      <point x="68" y="147" type="curve" smooth="yes"/>
      <point x="68" y="132"/>
      <point x="73" y="122"/>
      <point x="84" y="122" type="curve" smooth="yes"/>
      <point x="112" y="122"/>
      <point x="145" y="198"/>
      <point x="154" y="301" type="curve"/>
      <point x="418" y="301" type="line"/>
    </contour>
  </outline>
</glyph>
<glyph name="yaguru" format="2">
  <advance width="644"/>
  <unicode hex="0A2F"/>
  <guideline x="165" y="596" angle="0"/>
  <outline>
    <contour>
      <point x="518" y="0" type="line"/>
      <point x="544" y="0" type="line"/>
      <point x="544" y="596" type="line"/>
      <point x="651" y="596" type="line"/>
      <point x="651" y="622" type="line"/>
      <point x="-7" y="622" type="line"/>
      <point x="-7" y="596" type="line"/>
      <point x="95" y="596" type="line"/>
      <point x="111" y="564"/>
      <point x="123" y="527"/>
      <point x="123" y="477" type="curve" smooth="yes"/>
      <point x="123" y="414"/>
      <point x="97" y="373"/>
      <point x="50" y="327" type="curve"/>
      <point x="102" y="201"/>
      <point x="181" y="156"/>
      <point x="270" y="156" type="curve" smooth="yes"/>
      <point x="303" y="156"/>
      <point x="328" y="161"/>
      <point x="352" y="167" type="curve"/>
      <point x="352" y="351" type="line"/>
      <point x="518" y="351" type="line"/>
    </contour>
    <contour>
      <point x="326" y="377" type="line"/>
      <point x="326" y="187" type="line"/>
      <point x="309" y="184"/>
      <point x="295" y="182"/>
      <point x="270" y="182" type="curve" smooth="yes"/>
      <point x="180" y="182"/>
      <point x="114" y="237"/>
      <point x="78" y="328" type="curve"/>
      <point x="77" y="316" type="line"/>
      <point x="122" y="364"/>
      <point x="150" y="409"/>
      <point x="150" y="477" type="curve" smooth="yes"/>
      <point x="150" y="527"/>
      <point x="140" y="558"/>
      <point x="125" y="596" type="curve"/>
      <point x="518" y="596" type="line"/>
      <point x="518" y="377" type="line"/>
    </contour>
  </outline>
</glyph>
<glyph name="raguru" format="2">
  <advance width="526"/>
  <unicode hex="0A30"/>
  <outline>
    <contour>
      <point x="307" y="0" type="curve" smooth="yes"/>
      <point x="404" y="0"/>
      <point x="426" y="60"/>
      <point x="426" y="143" type="curve" smooth="yes"/>
      <point x="426" y="596" type="line"/>
      <point x="533" y="596" type="line"/>
      <point x="533" y="622" type="line"/>
      <point x="-7" y="622" type="line"/>
      <point x="-7" y="596" type="line"/>
      <point x="400" y="596" type="line"/>
      <point x="400" y="397" type="line"/>
      <point x="218" y="397" type="line" smooth="yes"/>
      <point x="146" y="397"/>
      <point x="109" y="383"/>
      <point x="82" y="356" type="curve" smooth="yes"/>
      <point x="59" y="333"/>
      <point x="46" y="302"/>
      <point x="46" y="260" type="curve" smooth="yes"/>
      <point x="46" y="138"/>
      <point x="180" y="0"/>
    </contour>
    <contour>
      <point x="306" y="26" type="curve" smooth="yes"/>
      <point x="196" y="26"/>
      <point x="73" y="151"/>
      <point x="73" y="259" type="curve" smooth="yes"/>
      <point x="73" y="294"/>
      <point x="83" y="320"/>
      <point x="102" y="339" type="curve" smooth="yes"/>
      <point x="123" y="360"/>
      <point x="155" y="371"/>
      <point x="222" y="371" type="curve" smooth="yes"/>
      <point x="400" y="371" type="line"/>
      <point x="400" y="154" type="line" smooth="yes"/>
      <point x="400" y="104"/>
      <point x="395" y="71"/>
      <point x="376" y="50" type="curve" smooth="yes"/>
      <point x="364" y="37"/>
      <point x="347" y="26"/>
    </contour>
  </outline>
</glyph>
<glyph name="laguru" format="2">
  <advance width="638"/>
  <unicode hex="0A32"/>
  <outline>
    <contour>
      <point x="319" y="289" type="curve"/>
      <point x="424" y="350"/>
      <point x="495" y="469"/>
      <point x="515" y="596" type="curve"/>
      <point x="645" y="596" type="line"/>
      <point x="645" y="622" type="line"/>
      <point x="-7" y="622" type="line"/>
      <point x="-7" y="596" type="line"/>
      <point x="123" y="596" type="line"/>
      <point x="143" y="469"/>
      <point x="214" y="350"/>
    </contour>
    <contour>
      <point x="488" y="596" type="line"/>
      <point x="470" y="459"/>
      <point x="396" y="364"/>
      <point x="315" y="314" type="curve"/>
      <point x="323" y="314" type="line"/>
      <point x="242" y="364"/>
      <point x="168" y="459"/>
      <point x="149" y="596" type="curve"/>
    </contour>
    <contour>
      <point x="48" y="185" type="curve" smooth="yes"/>
      <point x="48" y="79"/>
      <point x="107" y="0"/>
      <point x="228" y="0" type="curve" smooth="yes"/>
      <point x="236" y="0" type="line"/>
      <point x="237" y="26" type="line"/>
      <point x="227" y="26" type="line" smooth="yes"/>
      <point x="138" y="26"/>
      <point x="75" y="79"/>
      <point x="75" y="185" type="curve" smooth="yes"/>
      <point x="75" y="268"/>
      <point x="118" y="332"/>
      <point x="216" y="382" type="curve"/>
      <point x="201" y="401" type="line"/>
      <point x="98" y="351"/>
      <point x="48" y="277"/>
    </contour>
    <contour>
      <point x="590" y="185" type="curve" smooth="yes"/>
      <point x="590" y="277"/>
      <point x="540" y="351"/>
      <point x="437" y="401" type="curve"/>
      <point x="421" y="382" type="line"/>
      <point x="520" y="332"/>
      <point x="563" y="268"/>
      <point x="563" y="185" type="curve" smooth="yes"/>
      <point x="563" y="79"/>
      <point x="500" y="26"/>
      <point x="411" y="26" type="curve" smooth="yes"/>
      <point x="401" y="26" type="line"/>
      <point x="402" y="0" type="line"/>
      <point x="410" y="0" type="line" smooth="yes"/>
      <point x="531" y="0"/>
      <point x="590" y="79"/>
    </contour>
  </outline>
</glyph>
<glyph name="vaguru" format="2">
  <advance width="530"/>
  <unicode hex="0A35"/>
  <outline>
    <contour>
      <point x="455" y="215" type="line"/>
      <point x="455" y="241" type="line"/>
      <point x="256" y="241" type="line" smooth="yes"/>
      <point x="178" y="241"/>
      <point x="140" y="248"/>
      <point x="112" y="265" type="curve" smooth="yes"/>
      <point x="86" y="281"/>
      <point x="73" y="304"/>
      <point x="73" y="338" type="curve" smooth="yes"/>
      <point x="73" y="368"/>
      <point x="87" y="389"/>
      <point x="109" y="401" type="curve" smooth="yes"/>
      <point x="131" y="413"/>
      <point x="159" y="419"/>
      <point x="207" y="419" type="curve" smooth="yes"/>
      <point x="421" y="419" type="line"/>
      <point x="438" y="434" type="line"/>
      <point x="438" y="596" type="line"/>
      <point x="537" y="596" type="line"/>
      <point x="537" y="622" type="line"/>
      <point x="-7" y="622" type="line"/>
      <point x="-7" y="596" type="line"/>
      <point x="412" y="596" type="line"/>
      <point x="412" y="445" type="line"/>
      <point x="221" y="445" type="line" smooth="yes"/>
      <point x="162" y="445"/>
      <point x="126" y="440"/>
      <point x="96" y="424" type="curve" smooth="yes"/>
      <point x="63" y="406"/>
      <point x="46" y="377"/>
      <point x="46" y="339" type="curve" smooth="yes"/>
      <point x="46" y="294"/>
      <point x="66" y="263"/>
      <point x="98" y="244" type="curve" smooth="yes"/>
      <point x="135" y="222"/>
      <point x="185" y="215"/>
      <point x="270" y="215" type="curve" smooth="yes"/>
    </contour>
    <contour>
      <point x="300" y="0" type="curve" smooth="yes"/>
      <point x="369" y="0"/>
      <point x="409" y="10"/>
      <point x="460" y="27" type="curve"/>
      <point x="453" y="52" type="line"/>
      <point x="395" y="32"/>
      <point x="365" y="26"/>
      <point x="300" y="26" type="curve" smooth="yes"/>
      <point x="211" y="26"/>
      <point x="152" y="55"/>
      <point x="152" y="125" type="curve" smooth="yes"/>
      <point x="152" y="156"/>
      <point x="165" y="179"/>
      <point x="186" y="193" type="curve" smooth="yes"/>
      <point x="209" y="208"/>
      <point x="234" y="215"/>
      <point x="288" y="215" type="curve" smooth="yes"/>
      <point x="321" y="215" type="line"/>
      <point x="238" y="229" type="line"/>
      <point x="174" y="224"/>
      <point x="125" y="189"/>
      <point x="125" y="125" type="curve" smooth="yes"/>
      <point x="125" y="40"/>
      <point x="194" y="0"/>
    </contour>
  </outline>
</glyph>
<glyph name="sanuktaguru" format="2">
  <advance width="549"/>
  <unicode hex="0A36"/>
  <outline>
    <contour>
      <point x="423" y="0" type="line"/>
      <point x="449" y="0" type="line"/>
      <point x="449" y="596" type="line"/>
      <point x="556" y="596" type="line"/>
      <point x="556" y="622" type="line"/>
      <point x="-7" y="622" type="line"/>
      <point x="-7" y="596" type="line"/>
      <point x="71" y="596" type="line"/>
      <point x="102" y="515"/>
      <point x="128" y="397"/>
      <point x="129" y="311" type="curve"/>
      <point x="101" y="264"/>
      <point x="68" y="189"/>
      <point x="68" y="147" type="curve" smooth="yes"/>
      <point x="68" y="132"/>
      <point x="73" y="122"/>
      <point x="84" y="122" type="curve" smooth="yes"/>
      <point x="112" y="122"/>
      <point x="145" y="198"/>
      <point x="154" y="301" type="curve"/>
      <point x="423" y="301" type="line"/>
    </contour>
    <contour>
      <point x="155" y="327" type="line"/>
      <point x="153" y="402"/>
      <point x="130" y="508"/>
      <point x="99" y="596" type="curve"/>
      <point x="423" y="596" type="line"/>
      <point x="423" y="327" type="line"/>
    </contour>
    <contour>
      <point x="245" y="-7" type="curve" smooth="yes"/>
      <point x="262" y="-7"/>
      <point x="275" y="5"/>
      <point x="275" y="31" type="curve" smooth="yes"/>
      <point x="275" y="54"/>
      <point x="264" y="69"/>
      <point x="245" y="69" type="curve" smooth="yes"/>
      <point x="227" y="69"/>
      <point x="214" y="55"/>
      <point x="214" y="31" type="curve" smooth="yes"/>
      <point x="214" y="6"/>
      <point x="229" y="-7"/>
    </contour>
  </outline>
</glyph>
<glyph name="saguru" format="2">
  <advance width="549"/>
  <unicode hex="0A38"/>
  <guideline x="99" y="596" angle="0"/>
  <outline>
    <contour>
      <point x="423" y="0" type="line"/>
      <point x="449" y="0" type="line"/>
      <point x="449" y="596" type="line"/>
      <point x="556" y="596" type="line"/>
      <point x="556" y="622" type="line"/>
      <point x="-7" y="622" type="line"/>
      <point x="-7" y="596" type="line"/>
      <point x="71" y="596" type="line"/>
      <point x="102" y="515"/>
      <point x="128" y="397"/>
      <point x="129" y="311" type="curve"/>
      <point x="101" y="264"/>
      <point x="68" y="189"/>
      <point x="68" y="147" type="curve" smooth="yes"/>
      <point x="68" y="132"/>
      <point x="73" y="122"/>
      <point x="84" y="122" type="curve" smooth="yes"/>
      <point x="112" y="122"/>
      <point x="145" y="198"/>
      <point x="154" y="301" type="curve"/>
      <point x="423" y="301" type="line"/>
    </contour>
    <contour>
      <point x="155" y="327" type="line"/>
      <point x="153" y="402"/>
      <point x="130" y="508"/>
      <point x="99" y="596" type="curve"/>
      <point x="423" y="596" type="line"/>
      <point x="423" y="327" type="line"/>
    </contour>
  </outline>
</glyph>
<glyph name="haguru" format="2">
  <advance width="523"/>
  <unicode hex="0A39"/>
  <outline>
    <contour>
      <point x="305" y="0" type="curve" smooth="yes"/>
      <point x="401" y="0"/>
      <point x="423" y="60"/>
      <point x="423" y="143" type="curve" smooth="yes"/>
      <point x="423" y="596" type="line"/>
      <point x="530" y="596" type="line"/>
      <point x="530" y="622" type="line"/>
      <point x="-7" y="622" type="line"/>
      <point x="-7" y="596" type="line"/>
      <point x="397" y="596" type="line"/>
      <point x="397" y="154" type="line" smooth="yes"/>
      <point x="397" y="104"/>
      <point x="392" y="71"/>
      <point x="373" y="50" type="curve" smooth="yes"/>
      <point x="361" y="37"/>
      <point x="344" y="26"/>
      <point x="305" y="26" type="curve" smooth="yes"/>
      <point x="196" y="26"/>
      <point x="73" y="151"/>
      <point x="73" y="259" type="curve" smooth="yes"/>
      <point x="73" y="331"/>
      <point x="118" y="373"/>
      <point x="202" y="373" type="curve" smooth="yes"/>
      <point x="217" y="373"/>
      <point x="234" y="372"/>
      <point x="254" y="369" type="curve"/>
      <point x="256" y="394" type="line"/>
      <point x="237" y="398"/>
      <point x="218" y="399"/>
      <point x="202" y="399" type="curve" smooth="yes"/>
      <point x="109" y="399"/>
      <point x="46" y="350"/>
      <point x="46" y="260" type="curve" smooth="yes"/>
      <point x="46" y="138"/>
      <point x="179" y="0"/>
    </contour>
  </outline>
</glyph>
<glyph name="aamatraguru" format="2">
  <advance width="199"/>
  <unicode hex="0A3E"/>
  <outline>
    <contour>
      <point x="82" y="261" type="line"/>
      <point x="108" y="261" type="line"/>
      <point x="108" y="596" type="line"/>
      <point x="206" y="596" type="line"/>
      <point x="206" y="622" type="line"/>
      <point x="-7" y="622" type="line"/>
      <point x="-7" y="596" type="line"/>
      <point x="82" y="596" type="line"/>
    </contour>
  </outline>
</glyph>
<glyph name="imatraguru" format="2">
  <advance width="226"/>
  <unicode hex="0A3F"/>
  <outline>
    <contour>
      <point x="100" y="0" type="line"/>
      <point x="126" y="0" type="line"/>
      <point x="126" y="596" type="line"/>
      <point x="233" y="596" type="line"/>
      <point x="233" y="622" type="line"/>
      <point x="126" y="622" type="line"/>
      <point x="126" y="679" type="line" smooth="yes"/>
      <point x="126" y="780"/>
      <point x="140" y="864"/>
      <point x="240" y="864" type="curve" smooth="yes"/>
      <point x="306" y="864"/>
      <point x="345" y="823"/>
      <point x="345" y="736" type="curve" smooth="yes"/>
      <point x="345" y="713"/>
      <point x="342" y="683"/>
      <point x="338" y="661" type="curve"/>
      <point x="363" y="659" type="line"/>
      <point x="368" y="685"/>
      <point x="371" y="713"/>
      <point x="371" y="737" type="curve" smooth="yes"/>
      <point x="371" y="835"/>
      <point x="318" y="890"/>
      <point x="243" y="890" type="curve" smooth="yes"/>
      <point x="134" y="890"/>
      <point x="100" y="814"/>
      <point x="100" y="696" type="curve" smooth="yes"/>
      <point x="100" y="622" type="line"/>
      <point x="-7" y="622" type="line"/>
      <point x="-7" y="596" type="line"/>
      <point x="100" y="596" type="line"/>
    </contour>
  </outline>
</glyph>
<glyph name="iimatraguru" format="2">
  <advance width="226"/>
  <unicode hex="0A40"/>
  <outline>
    <contour>
      <point x="100" y="0" type="line"/>
      <point x="126" y="0" type="line"/>
      <point x="126" y="596" type="line"/>
      <point x="233" y="596" type="line"/>
      <point x="233" y="622" type="line"/>
      <point x="126" y="622" type="line"/>
      <point x="126" y="693" type="line" smooth="yes"/>
      <point x="126" y="808"/>
      <point x="98" y="890"/>
      <point x="-11" y="890" type="curve" smooth="yes"/>
      <point x="-89" y="890"/>
      <point x="-145" y="838"/>
      <point x="-145" y="737" type="curve" smooth="yes"/>
      <point x="-145" y="713"/>
      <point x="-142" y="685"/>
      <point x="-137" y="659" type="curve"/>
      <point x="-112" y="661" type="line"/>
      <point x="-116" y="683"/>
      <point x="-119" y="713"/>
      <point x="-119" y="736" type="curve" smooth="yes"/>
      <point x="-119" y="821"/>
      <point x="-77" y="864"/>
      <point x="-11" y="864" type="curve" smooth="yes"/>
      <point x="93" y="864"/>
      <point x="100" y="771"/>
      <point x="100" y="677" type="curve" smooth="yes"/>
      <point x="100" y="622" type="line"/>
      <point x="-7" y="622" type="line"/>
      <point x="-7" y="596" type="line"/>
      <point x="100" y="596" type="line"/>
    </contour>
  </outline>
</glyph>
<glyph name="umatraguru" format="2">
  <unicode hex="0A41"/>
  <guideline x="-107" y="-52" angle="90"/>
  <guideline x="-450" y="22" angle="90"/>
  <outline>
    <contour>
      <point x="-281" y="-147" type="curve" smooth="yes"/>
      <point x="-205" y="-147"/>
      <point x="-145" y="-126"/>
      <point x="-107" y="-101" type="curve"/>
      <point x="-111" y="-76" type="line"/>
      <point x="-154" y="-102"/>
      <point x="-205" y="-121"/>
      <point x="-281" y="-121" type="curve" smooth="yes"/>
      <point x="-359" y="-121"/>
      <point x="-407" y="-102"/>
      <point x="-450" y="-76" type="curve"/>
      <point x="-454" y="-101" type="line"/>
      <point x="-415" y="-127"/>
      <point x="-359" y="-147"/>
    </contour>
  </outline>
</glyph>
<glyph name="uumatraguru" format="2">
  <unicode hex="0A42"/>
  <outline>
    <contour>
      <point x="-281" y="-133" type="curve" smooth="yes"/>
      <point x="-205" y="-133"/>
      <point x="-145" y="-112"/>
      <point x="-107" y="-87" type="curve"/>
      <point x="-111" y="-62" type="line"/>
      <point x="-154" y="-88"/>
      <point x="-205" y="-107"/>
      <point x="-281" y="-107" type="curve" smooth="yes"/>
      <point x="-359" y="-107"/>
      <point x="-407" y="-88"/>
      <point x="-450" y="-62" type="curve"/>
      <point x="-454" y="-87" type="line"/>
      <point x="-415" y="-113"/>
      <point x="-359" y="-133"/>
    </contour>
    <contour>
      <point x="-281" y="-253" type="curve" smooth="yes"/>
      <point x="-205" y="-253"/>
      <point x="-145" y="-232"/>
      <point x="-107" y="-207" type="curve"/>
      <point x="-111" y="-182" type="line"/>
      <point x="-154" y="-208"/>
      <point x="-205" y="-227"/>
      <point x="-281" y="-227" type="curve" smooth="yes"/>
      <point x="-359" y="-227"/>
      <point x="-407" y="-208"/>
      <point x="-450" y="-182" type="curve"/>
      <point x="-454" y="-207" type="line"/>
      <point x="-415" y="-233"/>
      <point x="-359" y="-253"/>
    </contour>
  </outline>
</glyph>
<glyph name="eematraguru" format="2">
  <unicode hex="0A47"/>
  <outline>
    <contour>
      <point x="-127" y="615" type="curve"/>
      <point x="-101" y="615" type="line"/>
      <point x="-144" y="806"/>
      <point x="-208" y="890"/>
      <point x="-362" y="890" type="curve" smooth="yes"/>
      <point x="-367" y="890"/>
      <point x="-377" y="890"/>
      <point x="-386" y="889" type="curve"/>
      <point x="-384" y="863" type="line"/>
      <point x="-375" y="864"/>
      <point x="-369" y="864"/>
      <point x="-364" y="864" type="curve" smooth="yes"/>
      <point x="-228" y="864"/>
      <point x="-171" y="796"/>
    </contour>
  </outline>
</glyph>
<glyph name="aimatraguru" format="2">
  <unicode hex="0A48"/>
  <outline>
    <contour>
      <point x="-117" y="613" type="curve"/>
      <point x="-97" y="615" type="line"/>
      <point x="-139" y="810"/>
      <point x="-203" y="890"/>
      <point x="-351" y="890" type="curve" smooth="yes"/>
      <point x="-359" y="890"/>
      <point x="-365" y="890"/>
      <point x="-374" y="889" type="curve"/>
      <point x="-372" y="863" type="line"/>
      <point x="-365" y="864"/>
      <point x="-359" y="864"/>
      <point x="-352" y="864" type="curve" smooth="yes"/>
      <point x="-223" y="864"/>
      <point x="-171" y="803"/>
    </contour>
    <contour>
      <point x="-124" y="593" type="curve"/>
      <point x="-116" y="614" type="line"/>
      <point x="-190" y="725"/>
      <point x="-254" y="755"/>
      <point x="-367" y="755" type="curve" smooth="yes"/>
      <point x="-375" y="755"/>
      <point x="-380" y="755"/>
      <point x="-391" y="754" type="curve"/>
      <point x="-389" y="728" type="line"/>
      <point x="-379" y="729"/>
      <point x="-375" y="729"/>
      <point x="-366" y="729" type="curve" smooth="yes"/>
      <point x="-266" y="729"/>
      <point x="-206" y="705"/>
    </contour>
  </outline>
</glyph>
<glyph name="oomatraguru" format="2">
  <unicode hex="0A4B"/>
  <outline>
    <contour>
      <point x="-126" y="615" type="curve"/>
      <point x="-100" y="615" type="line"/>
      <point x="-109" y="753"/>
      <point x="-160" y="785"/>
      <point x="-229" y="785" type="curve" smooth="yes"/>
      <point x="-253" y="785"/>
      <point x="-286" y="781"/>
      <point x="-304" y="781" type="curve" smooth="yes"/>
      <point x="-363" y="781"/>
      <point x="-382" y="809"/>
      <point x="-409" y="890" type="curve"/>
      <point x="-434" y="883" type="line"/>
      <point x="-404" y="795"/>
      <point x="-377" y="755"/>
      <point x="-304" y="755" type="curve" smooth="yes"/>
      <point x="-282" y="755"/>
      <point x="-255" y="759"/>
      <point x="-229" y="759" type="curve" smooth="yes"/>
      <point x="-161" y="759"/>
      <point x="-135" y="718"/>
    </contour>
  </outline>
</glyph>
<glyph name="aumatraguru" format="2">
  <unicode hex="0A4C"/>
  <outline>
    <contour>
      <point x="-211" y="682" type="curve"/>
      <point x="-187" y="687" type="line"/>
      <point x="-195" y="708"/>
      <point x="-201" y="733"/>
      <point x="-201" y="756" type="curve" smooth="yes"/>
      <point x="-201" y="806"/>
      <point x="-174" y="843"/>
      <point x="-113" y="843" type="curve" smooth="yes"/>
      <point x="-51" y="843"/>
      <point x="-24" y="806"/>
      <point x="-24" y="756" type="curve" smooth="yes"/>
      <point x="-24" y="731"/>
      <point x="-29" y="710"/>
      <point x="-37" y="687" type="curve"/>
      <point x="-12" y="683" type="line"/>
      <point x="-3" y="707"/>
      <point x="2" y="733"/>
      <point x="2" y="757" type="curve" smooth="yes"/>
      <point x="2" y="824"/>
      <point x="-42" y="868"/>
      <point x="-113" y="868" type="curve" smooth="yes"/>
      <point x="-182" y="868"/>
      <point x="-227" y="824"/>
      <point x="-227" y="756" type="curve" smooth="yes"/>
      <point x="-227" y="733"/>
      <point x="-222" y="707"/>
    </contour>
    <contour>
      <point x="-275" y="784" type="curve" smooth="yes"/>
      <point x="-234" y="784"/>
      <point x="-209" y="799"/>
      <point x="-177" y="825" type="curve"/>
      <point x="-187" y="843" type="line"/>
      <point x="-216" y="819"/>
      <point x="-236" y="809"/>
      <point x="-274" y="809" type="curve" smooth="yes"/>
      <point x="-312" y="809"/>
      <point x="-345" y="822"/>
      <point x="-364" y="890" type="curve"/>
      <point x="-389" y="884" type="line"/>
      <point x="-369" y="805"/>
      <point x="-323" y="784"/>
    </contour>
  </outline>
</glyph>
<glyph name="halantguru" format="2">
  <unicode hex="0A4D"/>
  <outline>
    <contour>
      <point x="75" y="-246" type="curve"/>
      <point x="100" y="-238" type="line"/>
      <point x="51" y="-95"/>
      <point x="-35" y="-45"/>
      <point x="-127" y="-45" type="curve" smooth="yes"/>
      <point x="-133" y="-45"/>
      <point x="-141" y="-45"/>
      <point x="-150" y="-46" type="curve"/>
      <point x="-148" y="-72" type="line"/>
      <point x="-138" y="-71"/>
      <point x="-131" y="-71"/>
      <point x="-127" y="-71" type="curve" smooth="yes"/>
      <point x="-50" y="-71"/>
      <point x="28" y="-111"/>
    </contour>
  </outline>
</glyph>
<glyph name="udaatguru" format="2">
  <unicode hex="0A51"/>
  <outline>
    <contour>
      <point x="142" y="-281" type="curve"/>
      <point x="144" y="-255" type="line"/>
      <point x="139" y="-256"/>
      <point x="133" y="-256"/>
      <point x="128" y="-256" type="curve" smooth="yes"/>
      <point x="11" y="-256"/>
      <point x="-54" y="-193"/>
      <point x="-97" y="-31" type="curve"/>
      <point x="-122" y="-39" type="line"/>
      <point x="-79" y="-208"/>
      <point x="-2" y="-282"/>
      <point x="127" y="-282" type="curve" smooth="yes"/>
      <point x="130" y="-282"/>
      <point x="137" y="-282"/>
    </contour>
  </outline>
</glyph>
<glyph name="januktaguru" format="2">
  <advance width="562"/>
  <unicode hex="0A5B"/>
  <outline>
    <contour>
      <point x="104" y="0" type="line"/>
      <point x="130" y="0" type="line"/>
      <point x="130" y="333" type="line"/>
      <point x="436" y="333" type="line"/>
      <point x="436" y="0" type="line"/>
      <point x="462" y="0" type="line"/>
      <point x="462" y="596" type="line"/>
      <point x="569" y="596" type="line"/>
      <point x="569" y="622" type="line"/>
      <point x="-7" y="622" type="line"/>
      <point x="-7" y="596" type="line"/>
      <point x="436" y="596" type="line"/>
      <point x="436" y="359" type="line"/>
      <point x="132" y="359" type="line"/>
      <point x="132" y="386" type="line" smooth="yes"/>
      <point x="132" y="403"/>
      <point x="129" y="419"/>
      <point x="114" y="419" type="curve" smooth="yes"/>
      <point x="89" y="419"/>
      <point x="53" y="378"/>
      <point x="53" y="354" type="curve" smooth="yes"/>
      <point x="53" y="337"/>
      <point x="70" y="333"/>
      <point x="94" y="333" type="curve" smooth="yes"/>
      <point x="104" y="333" type="line"/>
    </contour>
    <contour>
      <point x="283" y="-7" type="curve" smooth="yes"/>
      <point x="300" y="-7"/>
      <point x="313" y="5"/>
      <point x="313" y="31" type="curve" smooth="yes"/>
      <point x="313" y="54"/>
      <point x="302" y="69"/>
      <point x="283" y="69" type="curve" smooth="yes"/>
      <point x="265" y="69"/>
      <point x="252" y="55"/>
      <point x="252" y="31" type="curve" smooth="yes"/>
      <point x="252" y="6"/>
      <point x="267" y="-7"/>
    </contour>
  </outline>
</glyph>
<glyph name="rraguru" format="2">
  <advance width="528"/>
  <unicode hex="0A5C"/>
  <outline>
    <contour>
      <point x="261" y="87" type="curve" smooth="yes"/>
      <point x="399" y="87"/>
      <point x="463" y="147"/>
      <point x="463" y="231" type="curve" smooth="yes"/>
      <point x="463" y="301"/>
      <point x="416" y="351"/>
      <point x="334" y="379" type="curve"/>
      <point x="414" y="413"/>
      <point x="438" y="467"/>
      <point x="438" y="543" type="curve" smooth="yes"/>
      <point x="438" y="568"/>
      <point x="435" y="590"/>
      <point x="428" y="615" type="curve"/>
      <point x="432" y="596" type="line"/>
      <point x="535" y="596" type="line"/>
      <point x="535" y="622" type="line"/>
      <point x="-7" y="622" type="line"/>
      <point x="-7" y="596" type="line"/>
      <point x="423" y="596" type="line"/>
      <point x="400" y="615" type="line"/>
      <point x="408" y="592"/>
      <point x="412" y="571"/>
      <point x="412" y="543" type="curve" smooth="yes"/>
      <point x="412" y="464"/>
      <point x="380" y="420"/>
      <point x="304" y="391" type="curve"/>
      <point x="276" y="399"/>
      <point x="216" y="407"/>
      <point x="165" y="407" type="curve" smooth="yes"/>
      <point x="121" y="407"/>
      <point x="93" y="401"/>
      <point x="93" y="384" type="curve" smooth="yes"/>
      <point x="93" y="365"/>
      <point x="127" y="358"/>
      <point x="186" y="358" type="curve" smooth="yes"/>
      <point x="220" y="358"/>
      <point x="253" y="360"/>
      <point x="299" y="366" type="curve"/>
      <point x="377" y="346"/>
      <point x="436" y="303"/>
      <point x="436" y="230" type="curve" smooth="yes"/>
      <point x="436" y="157"/>
      <point x="380" y="113"/>
      <point x="263" y="113" type="curve" smooth="yes"/>
      <point x="183" y="113"/>
      <point x="114" y="138"/>
      <point x="43" y="179" type="curve"/>
      <point x="27" y="157" type="line"/>
      <point x="57" y="145" type="line"/>
      <point x="116" y="109"/>
      <point x="193" y="87"/>
    </contour>
    <contour>
      <point x="119" y="-12" type="curve"/>
      <point x="144" y="-1" type="line"/>
      <point x="117" y="53"/>
      <point x="79" y="121"/>
      <point x="54" y="153" type="curve"/>
      <point x="27" y="157" type="line"/>
      <point x="53" y="115"/>
      <point x="98" y="33"/>
    </contour>
    <contour>
      <point x="421" y="-12" type="curve"/>
      <point x="446" y="-1" type="line"/>
      <point x="423" y="41"/>
      <point x="396" y="84"/>
      <point x="374" y="112" type="curve"/>
      <point x="360" y="113" type="line"/>
      <point x="346" y="108" type="line"/>
      <point x="374" y="70"/>
      <point x="398" y="32"/>
    </contour>
  </outline>
</glyph>
<glyph name="zeroguru" format="2">
  <advance width="551"/>
  <unicode hex="0A66"/>
  <outline>
    <contour>
      <point x="276" y="85" type="curve" smooth="yes"/>
      <point x="412" y="85"/>
      <point x="506" y="175"/>
      <point x="506" y="316" type="curve" smooth="yes"/>
      <point x="506" y="456"/>
      <point x="413" y="546"/>
      <point x="276" y="546" type="curve" smooth="yes"/>
      <point x="140" y="546"/>
      <point x="46" y="456"/>
      <point x="46" y="316" type="curve" smooth="yes"/>
      <point x="46" y="176"/>
      <point x="139" y="85"/>
    </contour>
    <contour>
      <point x="276" y="111" type="curve" smooth="yes"/>
      <point x="145" y="111"/>
      <point x="73" y="199"/>
      <point x="73" y="316" type="curve" smooth="yes"/>
      <point x="73" y="433"/>
      <point x="145" y="520"/>
      <point x="276" y="520" type="curve" smooth="yes"/>
      <point x="407" y="520"/>
      <point x="479" y="432"/>
      <point x="479" y="316" type="curve" smooth="yes"/>
      <point x="479" y="198"/>
      <point x="407" y="111"/>
    </contour>
  </outline>
</glyph>
<glyph name="oneguru" format="2">
  <advance width="551"/>
  <unicode hex="0A67"/>
  <outline>
    <contour>
      <point x="506" y="0" type="curve"/>
      <point x="509" y="26" type="line"/>
      <point x="435" y="34"/>
      <point x="408" y="57"/>
      <point x="408" y="153" type="curve" smooth="yes"/>
      <point x="408" y="445" type="line" smooth="yes"/>
      <point x="408" y="509"/>
      <point x="397" y="557"/>
      <point x="361" y="589" type="curve" smooth="yes"/>
      <point x="333" y="614"/>
      <point x="300" y="628"/>
      <point x="243" y="628" type="curve" smooth="yes"/>
      <point x="143" y="628"/>
      <point x="79" y="565"/>
      <point x="79" y="473" type="curve" smooth="yes"/>
      <point x="79" y="389"/>
      <point x="127" y="319"/>
      <point x="243" y="319" type="curve" smooth="yes"/>
      <point x="305" y="319"/>
      <point x="350" y="342"/>
      <point x="401" y="384" type="curve"/>
      <point x="392" y="411" type="line"/>
      <point x="350" y="371"/>
      <point x="305" y="345"/>
      <point x="243" y="345" type="curve" smooth="yes"/>
      <point x="152" y="345"/>
      <point x="106" y="393"/>
      <point x="106" y="473" type="curve" smooth="yes"/>
      <point x="106" y="554"/>
      <point x="160" y="602"/>
      <point x="243" y="602" type="curve" smooth="yes"/>
      <point x="292" y="602"/>
      <point x="323" y="589"/>
      <point x="344" y="568" type="curve" smooth="yes"/>
      <point x="372" y="541"/>
      <point x="382" y="499"/>
      <point x="382" y="440" type="curve" smooth="yes"/>
      <point x="382" y="149" type="line" smooth="yes"/>
      <point x="382" y="87"/>
      <point x="391" y="56"/>
      <point x="418" y="32" type="curve" smooth="yes"/>
      <point x="437" y="15"/>
      <point x="464" y="4"/>
    </contour>
  </outline>
</glyph>
<glyph name="twoguru" format="2">
  <advance width="551"/>
  <unicode hex="0A68"/>
  <outline>
    <contour>
      <point x="191" y="179" type="curve" smooth="yes"/>
      <point x="362" y="179"/>
      <point x="453" y="284"/>
      <point x="453" y="414" type="curve" smooth="yes"/>
      <point x="453" y="538"/>
      <point x="371" y="626"/>
      <point x="230" y="626" type="curve" smooth="yes"/>
      <point x="175" y="626"/>
      <point x="126" y="617"/>
      <point x="62" y="588" type="curve"/>
      <point x="73" y="563" type="line"/>
      <point x="126" y="588"/>
      <point x="175" y="600"/>
      <point x="230" y="600" type="curve" smooth="yes"/>
      <point x="352" y="600"/>
      <point x="426" y="527"/>
      <point x="426" y="414" type="curve" smooth="yes"/>
      <point x="426" y="313"/>
      <point x="365" y="222"/>
      <point x="228" y="204" type="curve"/>
      <point x="264" y="203" type="line"/>
      <point x="252" y="205" type="line"/>
      <point x="212" y="226"/>
      <point x="178" y="235"/>
      <point x="132" y="235" type="curve" smooth="yes"/>
      <point x="106" y="235"/>
      <point x="83" y="230"/>
      <point x="83" y="211" type="curve" smooth="yes"/>
      <point x="83" y="188"/>
      <point x="108" y="179"/>
    </contour>
    <contour>
      <point x="472" y="-10" type="curve"/>
      <point x="491" y="9" type="line"/>
      <point x="424" y="76"/>
      <point x="316" y="172"/>
      <point x="258" y="197" type="curve"/>
      <point x="245" y="195" type="line"/>
      <point x="224" y="191" type="line"/>
      <point x="300" y="150"/>
      <point x="404" y="63"/>
    </contour>
  </outline>
</glyph>
<glyph name="threeguru" format="2">
  <advance width="551"/>
  <unicode hex="0A69"/>
  <outline>
    <contour>
      <point x="454" y="-60" type="curve"/>
      <point x="473" y="-41" type="line"/>
      <point x="408" y="17"/>
      <point x="331" y="76"/>
      <point x="271" y="104" type="curve"/>
      <point x="237" y="98" type="line"/>
      <point x="316" y="57"/>
      <point x="397" y="-7"/>
    </contour>
    <contour>
      <point x="337" y="356" type="line"/>
      <point x="418" y="381"/>
      <point x="455" y="427"/>
      <point x="455" y="489" type="curve" smooth="yes"/>
      <point x="455" y="573"/>
      <point x="381" y="626"/>
      <point x="257" y="626" type="curve" smooth="yes"/>
      <point x="169" y="626"/>
      <point x="118" y="611"/>
      <point x="63" y="588" type="curve"/>
      <point x="73" y="564" type="line"/>
      <point x="129" y="586"/>
      <point x="178" y="600"/>
      <point x="257" y="600" type="curve" smooth="yes"/>
      <point x="370" y="600"/>
      <point x="428" y="555"/>
      <point x="428" y="490" type="curve" smooth="yes"/>
      <point x="428" y="426"/>
      <point x="382" y="391"/>
      <point x="311" y="373" type="curve"/>
      <point x="326" y="373" type="line"/>
      <point x="289" y="382"/>
      <point x="241" y="389"/>
      <point x="193" y="389" type="curve" smooth="yes"/>
      <point x="148" y="389"/>
      <point x="123" y="383"/>
      <point x="123" y="365" type="curve" smooth="yes"/>
      <point x="123" y="346"/>
      <point x="150" y="341"/>
      <point x="210" y="341" type="curve" smooth="yes"/>
      <point x="234" y="341"/>
      <point x="283" y="343"/>
      <point x="325" y="353" type="curve"/>
      <point x="300" y="353" type="line"/>
      <point x="382" y="337"/>
      <point x="433" y="301"/>
      <point x="433" y="238" type="curve" smooth="yes"/>
      <point x="433" y="168"/>
      <point x="380" y="122"/>
      <point x="246" y="113" type="curve"/>
      <point x="265" y="111" type="line"/>
      <point x="223" y="129"/>
      <point x="174" y="138"/>
      <point x="131" y="138" type="curve" smooth="yes"/>
      <point x="101" y="138"/>
      <point x="79" y="135"/>
      <point x="79" y="117" type="curve" smooth="yes"/>
      <point x="79" y="97"/>
      <point x="122" y="86"/>
      <point x="188" y="86" type="curve" smooth="yes"/>
      <point x="350" y="86"/>
      <point x="460" y="125"/>
      <point x="460" y="238" type="curve" smooth="yes"/>
      <point x="460" y="307"/>
      <point x="411" y="349"/>
      <point x="336" y="367" type="curve"/>
    </contour>
  </outline>
</glyph>
<glyph name="fourguru" format="2">
  <advance width="551"/>
  <unicode hex="0A6A"/>
  <outline>
    <contour>
      <point x="275" y="294" type="curve" smooth="yes"/>
      <point x="408" y="294"/>
      <point x="489" y="351"/>
      <point x="489" y="457" type="curve" smooth="yes"/>
      <point x="489" y="538"/>
      <point x="437" y="601"/>
      <point x="342" y="624" type="curve"/>
      <point x="336" y="599" type="line"/>
      <point x="409" y="581"/>
      <point x="462" y="535"/>
      <point x="462" y="457" type="curve" smooth="yes"/>
      <point x="462" y="360"/>
      <point x="384" y="316"/>
      <point x="272" y="316" type="curve" smooth="yes"/>
      <point x="160" y="316"/>
      <point x="88" y="365"/>
      <point x="88" y="458" type="curve" smooth="yes"/>
      <point x="88" y="535"/>
      <point x="141" y="581"/>
      <point x="214" y="599" type="curve"/>
      <point x="208" y="624" type="line"/>
      <point x="113" y="601"/>
      <point x="61" y="538"/>
      <point x="61" y="458" type="curve" smooth="yes"/>
      <point x="61" y="349"/>
      <point x="142" y="294"/>
    </contour>
    <contour>
      <point x="276" y="-4" type="curve" smooth="yes"/>
      <point x="405" y="-4"/>
      <point x="472" y="64"/>
      <point x="472" y="155" type="curve" smooth="yes"/>
      <point x="472" y="252"/>
      <point x="400" y="313"/>
      <point x="273" y="313" type="curve" smooth="yes"/>
      <point x="153" y="313"/>
      <point x="77" y="253"/>
      <point x="77" y="157" type="curve" smooth="yes"/>
      <point x="77" y="68"/>
      <point x="138" y="-4"/>
    </contour>
    <contour>
      <point x="275" y="22" type="curve" smooth="yes"/>
      <point x="156" y="22"/>
      <point x="104" y="80"/>
      <point x="104" y="157" type="curve" smooth="yes"/>
      <point x="104" y="232"/>
      <point x="160" y="291"/>
      <point x="275" y="291" type="curve" smooth="yes"/>
      <point x="382" y="291"/>
      <point x="445" y="239"/>
      <point x="445" y="157" type="curve" smooth="yes"/>
      <point x="445" y="84"/>
      <point x="397" y="22"/>
    </contour>
  </outline>
</glyph>
<glyph name="fiveguru" format="2">
  <advance width="551"/>
  <unicode hex="0A6B"/>
  <outline>
    <contour>
      <point x="413" y="0" type="line"/>
      <point x="439" y="0" type="line"/>
      <point x="439" y="622" type="line"/>
      <point x="413" y="622" type="line"/>
      <point x="413" y="249" type="line"/>
      <point x="427" y="263" type="line"/>
      <point x="379" y="224"/>
      <point x="327" y="211"/>
      <point x="277" y="211" type="curve" smooth="yes"/>
      <point x="190" y="211"/>
      <point x="125" y="258"/>
      <point x="88" y="341" type="curve"/>
      <point x="88" y="328" type="line"/>
      <point x="133" y="376"/>
      <point x="161" y="420"/>
      <point x="161" y="485" type="curve" smooth="yes"/>
      <point x="161" y="537"/>
      <point x="143" y="590"/>
      <point x="121" y="632" type="curve"/>
      <point x="97" y="622" type="line"/>
      <point x="117" y="585"/>
      <point x="134" y="541"/>
      <point x="134" y="485" type="curve" smooth="yes"/>
      <point x="134" y="426"/>
      <point x="108" y="385"/>
      <point x="61" y="339" type="curve"/>
      <point x="113" y="225"/>
      <point x="189" y="185"/>
      <point x="277" y="185" type="curve" smooth="yes"/>
      <point x="338" y="185"/>
      <point x="384" y="201"/>
      <point x="429" y="232" type="curve"/>
      <point x="413" y="243" type="line"/>
    </contour>
  </outline>
</glyph>
<glyph name="sixguru" format="2">
  <advance width="551"/>
  <unicode hex="0A6C"/>
  <outline>
    <contour>
      <point x="364" y="540" type="curve"/>
      <point x="393" y="544" type="line"/>
      <point x="351" y="580"/>
      <point x="325" y="622"/>
      <point x="325" y="673" type="curve" smooth="yes"/>
      <point x="325" y="740"/>
      <point x="379" y="762"/>
      <point x="435" y="762" type="curve" smooth="yes"/>
      <point x="449" y="762"/>
      <point x="467" y="761"/>
      <point x="486" y="757" type="curve"/>
      <point x="490" y="782" type="line"/>
      <point x="470" y="786"/>
      <point x="450" y="787"/>
      <point x="434" y="787" type="curve" smooth="yes"/>
      <point x="367" y="787"/>
      <point x="298" y="756"/>
      <point x="298" y="674" type="curve" smooth="yes"/>
      <point x="298" y="618"/>
      <point x="328" y="573"/>
    </contour>
    <contour>
      <point x="484" y="61" type="line"/>
      <point x="442" y="43"/>
      <point x="382" y="22"/>
      <point x="300" y="22" type="curve" smooth="yes"/>
      <point x="202" y="22"/>
      <point x="122" y="54"/>
      <point x="122" y="149" type="curve" smooth="yes"/>
      <point x="122" y="211"/>
      <point x="166" y="257"/>
      <point x="258" y="277" type="curve"/>
      <point x="237" y="276" type="line"/>
      <point x="278" y="268"/>
      <point x="318" y="261"/>
      <point x="365" y="261" type="curve" smooth="yes"/>
      <point x="412" y="261"/>
      <point x="437" y="266"/>
      <point x="437" y="283" type="curve" smooth="yes"/>
      <point x="437" y="302"/>
      <point x="411" y="310"/>
      <point x="361" y="310" type="curve" smooth="yes"/>
      <point x="323" y="310"/>
      <point x="277" y="305"/>
      <point x="235" y="295" type="curve"/>
      <point x="256" y="297" type="line"/>
      <point x="175" y="312"/>
      <point x="121" y="344"/>
      <point x="121" y="417" type="curve" smooth="yes"/>
      <point x="121" y="488"/>
      <point x="191" y="533"/>
      <point x="328" y="533" type="curve" smooth="yes"/>
      <point x="361" y="533"/>
      <point x="381" y="531"/>
      <point x="404" y="528" type="curve"/>
      <point x="354" y="540" type="line"/>
      <point x="381" y="513"/>
      <point x="417" y="493"/>
      <point x="451" y="493" type="curve" smooth="yes"/>
      <point x="467" y="493"/>
      <point x="481" y="496"/>
      <point x="481" y="512" type="curve" smooth="yes"/>
      <point x="481" y="535"/>
      <point x="431" y="559"/>
      <point x="328" y="559" type="curve" smooth="yes"/>
      <point x="183" y="559"/>
      <point x="94" y="507"/>
      <point x="94" y="418" type="curve" smooth="yes"/>
      <point x="94" y="335"/>
      <point x="152" y="300"/>
      <point x="219" y="283" type="curve"/>
      <point x="221" y="289" type="line"/>
      <point x="142" y="269"/>
      <point x="95" y="218"/>
      <point x="95" y="149" type="curve" smooth="yes"/>
      <point x="95" y="42"/>
      <point x="183" y="-4"/>
      <point x="301" y="-4" type="curve" smooth="yes"/>
      <point x="376" y="-4"/>
      <point x="437" y="13"/>
      <point x="492" y="37" type="curve"/>
    </contour>
  </outline>
</glyph>
<glyph name="sevenguru" format="2">
  <advance width="551"/>
  <unicode hex="0A6D"/>
  <outline>
    <contour>
      <point x="49" y="-7" type="line"/>
      <point x="254" y="14"/>
      <point x="467" y="136"/>
      <point x="467" y="369" type="curve" smooth="yes"/>
      <point x="467" y="534"/>
      <point x="382" y="626"/>
      <point x="264" y="626" type="curve" smooth="yes"/>
      <point x="164" y="626"/>
      <point x="93" y="563"/>
      <point x="93" y="469" type="curve" smooth="yes"/>
      <point x="93" y="422"/>
      <point x="111" y="377"/>
      <point x="140" y="339" type="curve"/>
      <point x="163" y="353" type="line"/>
      <point x="138" y="384"/>
      <point x="120" y="426"/>
      <point x="120" y="469" type="curve" smooth="yes"/>
      <point x="120" y="546"/>
      <point x="177" y="600"/>
      <point x="265" y="600" type="curve" smooth="yes"/>
      <point x="382" y="600"/>
      <point x="440" y="499"/>
      <point x="440" y="368" type="curve" smooth="yes"/>
      <point x="440" y="171"/>
      <point x="267" y="43"/>
      <point x="49" y="20" type="curve"/>
    </contour>
  </outline>
</glyph>
<glyph name="eightguru" format="2">
  <advance width="551"/>
  <unicode hex="0A6E"/>
  <outline>
    <contour>
      <point x="414" y="0" type="curve" smooth="yes"/>
      <point x="444" y="0"/>
      <point x="470" y="2"/>
      <point x="506" y="8" type="curve"/>
      <point x="504" y="33" type="line"/>
      <point x="470" y="28"/>
      <point x="442" y="26"/>
      <point x="414" y="26" type="curve" smooth="yes"/>
      <point x="319" y="26"/>
      <point x="253" y="47"/>
      <point x="212" y="92" type="curve" smooth="yes"/>
      <point x="173" y="134"/>
      <point x="156" y="193"/>
      <point x="156" y="301" type="curve" smooth="yes"/>
      <point x="156" y="528" type="line"/>
      <point x="493" y="528" type="line"/>
      <point x="493" y="554" type="line"/>
      <point x="158" y="554" type="line"/>
      <point x="158" y="588" type="line" smooth="yes"/>
      <point x="158" y="605"/>
      <point x="155" y="622"/>
      <point x="139" y="622" type="curve" smooth="yes"/>
      <point x="117" y="622"/>
      <point x="76" y="580"/>
      <point x="76" y="550" type="curve" smooth="yes"/>
      <point x="76" y="533"/>
      <point x="96" y="528"/>
      <point x="119" y="528" type="curve" smooth="yes"/>
      <point x="130" y="528" type="line"/>
      <point x="130" y="293" type="line" smooth="yes"/>
      <point x="130" y="175"/>
      <point x="150" y="119"/>
      <point x="194" y="73" type="curve" smooth="yes"/>
      <point x="239" y="25"/>
      <point x="311" y="0"/>
    </contour>
  </outline>
</glyph>
<glyph name="nineguru" format="2">
  <advance width="551"/>
  <unicode hex="0A6F"/>
  <outline>
    <contour>
      <point x="414" y="0" type="curve" smooth="yes"/>
      <point x="444" y="0"/>
      <point x="470" y="2"/>
      <point x="506" y="8" type="curve"/>
      <point x="504" y="33" type="line"/>
      <point x="470" y="28"/>
      <point x="442" y="26"/>
      <point x="414" y="26" type="curve" smooth="yes"/>
      <point x="319" y="26"/>
      <point x="253" y="47"/>
      <point x="212" y="92" type="curve" smooth="yes"/>
      <point x="173" y="134"/>
      <point x="156" y="193"/>
      <point x="156" y="301" type="curve" smooth="yes"/>
      <point x="156" y="528" type="line"/>
      <point x="493" y="528" type="line"/>
      <point x="493" y="554" type="line"/>
      <point x="158" y="554" type="line"/>
      <point x="158" y="588" type="line" smooth="yes"/>
      <point x="158" y="605"/>
      <point x="155" y="622"/>
      <point x="139" y="622" type="curve" smooth="yes"/>
      <point x="117" y="622"/>
      <point x="76" y="580"/>
      <point x="76" y="550" type="curve" smooth="yes"/>
      <point x="76" y="533"/>
      <point x="96" y="528"/>
      <point x="119" y="528" type="curve" smooth="yes"/>
      <point x="130" y="528" type="line"/>
      <point x="130" y="293" type="line" smooth="yes"/>
      <point x="130" y="175"/>
      <point x="150" y="119"/>
      <point x="194" y="73" type="curve" smooth="yes"/>
      <point x="239" y="25"/>
      <point x="311" y="0"/>
    </contour>
    <contour>
      <point x="432" y="540" type="curve"/>
      <point x="461" y="544" type="line"/>
      <point x="419" y="580"/>
      <point x="393" y="622"/>
      <point x="393" y="673" type="curve" smooth="yes"/>
      <point x="393" y="740"/>
      <point x="447" y="762"/>
      <point x="503" y="762" type="curve" smooth="yes"/>
      <point x="517" y="762"/>
      <point x="535" y="761"/>
      <point x="554" y="757" type="curve"/>
      <point x="558" y="782" type="line"/>
      <point x="538" y="786"/>
      <point x="518" y="787"/>
      <point x="502" y="787" type="curve" smooth="yes"/>
      <point x="435" y="787"/>
      <point x="366" y="756"/>
      <point x="366" y="674" type="curve" smooth="yes"/>
      <point x="366" y="618"/>
      <point x="396" y="573"/>
    </contour>
  </outline>
</glyph>
<glyph name="tippiguru" format="2">
  <unicode hex="0A70"/>
  <outline>
    <contour>
      <point x="-218" y="683" type="curve"/>
      <point x="-193" y="687" type="line"/>
      <point x="-201" y="710"/>
      <point x="-206" y="731"/>
      <point x="-206" y="756" type="curve" smooth="yes"/>
      <point x="-206" y="806"/>
      <point x="-179" y="843"/>
      <point x="-113" y="843" type="curve" smooth="yes"/>
      <point x="-46" y="843"/>
      <point x="-19" y="806"/>
      <point x="-19" y="756" type="curve" smooth="yes"/>
      <point x="-19" y="731"/>
      <point x="-24" y="710"/>
      <point x="-32" y="687" type="curve"/>
      <point x="-7" y="683" type="line"/>
      <point x="2" y="707"/>
      <point x="7" y="733"/>
      <point x="7" y="757" type="curve" smooth="yes"/>
      <point x="7" y="824"/>
      <point x="-37" y="868"/>
      <point x="-113" y="868" type="curve" smooth="yes"/>
      <point x="-188" y="868"/>
      <point x="-232" y="824"/>
      <point x="-232" y="756" type="curve" smooth="yes"/>
      <point x="-232" y="733"/>
      <point x="-227" y="707"/>
    </contour>
  </outline>
</glyph>
<glyph name="addakguru" format="2">
  <unicode hex="0A71"/>
  <outline>
    <contour>
      <point x="-116" y="696" type="curve" smooth="yes"/>
      <point x="-37" y="696"/>
      <point x="9" y="755"/>
      <point x="11" y="864" type="curve"/>
      <point x="-15" y="866" type="line"/>
      <point x="-19" y="773"/>
      <point x="-50" y="721"/>
      <point x="-116" y="721" type="curve" smooth="yes"/>
      <point x="-186" y="721"/>
      <point x="-217" y="773"/>
      <point x="-221" y="866" type="curve"/>
      <point x="-247" y="864" type="line"/>
      <point x="-245" y="755"/>
      <point x="-199" y="696"/>
    </contour>
  </outline>
</glyph>
<glyph name="iriguru" format="2">
  <advance width="523"/>
  <unicode hex="0A72"/>
  <guideline x="150" y="198" angle="0"/>
  <outline>
    <contour>
      <point x="46" y="198" type="curve"/>
      <point x="95" y="94"/>
      <point x="162" y="0"/>
      <point x="308" y="0" type="curve" smooth="yes"/>
      <point x="369" y="0"/>
      <point x="420" y="12"/>
      <point x="474" y="39" type="curve"/>
      <point x="464" y="62" type="line"/>
      <point x="404" y="35"/>
      <point x="365" y="26"/>
      <point x="308" y="26" type="curve" smooth="yes"/>
      <point x="182" y="26"/>
      <point x="114" y="106"/>
      <point x="68" y="216" type="curve"/>
      <point x="65" y="177" type="line"/>
      <point x="97" y="232"/>
      <point x="145" y="281"/>
      <point x="197" y="310" type="curve" smooth="yes"/>
      <point x="226" y="326"/>
      <point x="257" y="333"/>
      <point x="304" y="333" type="curve" smooth="yes"/>
      <point x="414" y="333" type="line"/>
      <point x="431" y="348" type="line"/>
      <point x="431" y="596" type="line"/>
      <point x="530" y="596" type="line"/>
      <point x="530" y="622" type="line"/>
      <point x="-7" y="622" type="line"/>
      <point x="-7" y="596" type="line"/>
      <point x="64" y="596" type="line"/>
      <point x="64" y="434"/>
      <point x="112" y="344"/>
      <point x="262" y="339" type="curve"/>
      <point x="256" y="346" type="line"/>
      <point x="162" y="346"/>
      <point x="95" y="271"/>
    </contour>
    <contour>
      <point x="295" y="359" type="line" smooth="yes"/>
      <point x="219" y="359"/>
      <point x="178" y="373"/>
      <point x="149" y="400" type="curve" smooth="yes"/>
      <point x="106" y="440"/>
      <point x="90" y="508"/>
      <point x="90" y="596" type="curve"/>
      <point x="405" y="596" type="line"/>
      <point x="405" y="359" type="line"/>
    </contour>
  </outline>
</glyph>
<glyph name="uraguru" format="2">
  <advance width="617"/>
  <unicode hex="0A73"/>
  <outline>
    <contour>
      <point x="332" y="0" type="curve" smooth="yes"/>
      <point x="441" y="0"/>
      <point x="508" y="59"/>
      <point x="508" y="168" type="curve" smooth="yes"/>
      <point x="508" y="269"/>
      <point x="448" y="331"/>
      <point x="338" y="345" type="curve"/>
      <point x="336" y="341" type="line"/>
      <point x="473" y="351"/>
      <point x="574" y="408"/>
      <point x="574" y="586" type="curve" smooth="yes"/>
      <point x="574" y="765"/>
      <point x="489" y="852"/>
      <point x="355" y="852" type="curve" smooth="yes"/>
      <point x="216" y="852"/>
      <point x="132" y="754"/>
      <point x="96" y="617" type="curve"/>
      <point x="94" y="607" type="line"/>
      <point x="81" y="551"/>
      <point x="74" y="486"/>
      <point x="74" y="419" type="curve" smooth="yes"/>
      <point x="74" y="123"/>
      <point x="181" y="0"/>
    </contour>
    <contour>
      <point x="331" y="26" type="curve" smooth="yes"/>
      <point x="202" y="26"/>
      <point x="101" y="130"/>
      <point x="101" y="419" type="curve" smooth="yes"/>
      <point x="101" y="484"/>
      <point x="108" y="549"/>
      <point x="122" y="605" type="curve"/>
      <point x="124" y="615" type="line"/>
      <point x="159" y="741"/>
      <point x="231" y="826"/>
      <point x="355" y="826" type="curve" smooth="yes"/>
      <point x="481" y="826"/>
      <point x="548" y="740"/>
      <point x="548" y="592" type="curve" smooth="yes"/>
      <point x="548" y="578" type="line" smooth="yes"/>
      <point x="548" y="486"/>
      <point x="516" y="432"/>
      <point x="462" y="400" type="curve" smooth="yes"/>
      <point x="416" y="372"/>
      <point x="358" y="359"/>
      <point x="245" y="359" type="curve" smooth="yes"/>
      <point x="88" y="359" type="line"/>
      <point x="98" y="333" type="line"/>
      <point x="238" y="333" type="line" smooth="yes"/>
      <point x="323" y="333"/>
      <point x="367" y="322"/>
      <point x="403" y="304" type="curve" smooth="yes"/>
      <point x="456" y="276"/>
      <point x="481" y="234"/>
      <point x="481" y="167" type="curve" smooth="yes"/>
      <point x="481" y="74"/>
      <point x="425" y="26"/>
    </contour>
    <contour>
      <point x="-7" y="596" type="line"/>
      <point x="634" y="596" type="line"/>
      <point x="634" y="622" type="line"/>
      <point x="-7" y="622" type="line"/>
    </contour>
  </outline>
</glyph>
<glyph name="ekonkarguru" format="2">
  <advance width="1414"/>
  <unicode hex="0A74"/>
  <outline>
    <contour>
      <point x="786" y="0" type="curve" smooth="yes"/>
      <point x="895" y="0"/>
      <point x="962" y="59"/>
      <point x="962" y="168" type="curve" smooth="yes"/>
      <point x="962" y="269"/>
      <point x="902" y="331"/>
      <point x="792" y="345" type="curve"/>
      <point x="790" y="341" type="line"/>
      <point x="927" y="351"/>
      <point x="1028" y="408"/>
      <point x="1028" y="586" type="curve"/>
      <point x="1028" y="608" type="line"/>
      <point x="1002" y="604" type="line"/>
      <point x="1002" y="578" type="line" smooth="yes"/>
      <point x="1002" y="486"/>
      <point x="970" y="432"/>
      <point x="916" y="400" type="curve" smooth="yes"/>
      <point x="870" y="373"/>
      <point x="812" y="359"/>
      <point x="699" y="359" type="curve" smooth="yes"/>
      <point x="542" y="359" type="line"/>
      <point x="552" y="333" type="line"/>
      <point x="692" y="333" type="line" smooth="yes"/>
      <point x="777" y="333"/>
      <point x="821" y="322"/>
      <point x="857" y="304" type="curve" smooth="yes"/>
      <point x="911" y="277"/>
      <point x="935" y="234"/>
      <point x="935" y="167" type="curve" smooth="yes"/>
      <point x="935" y="74"/>
      <point x="879" y="26"/>
      <point x="785" y="26" type="curve" smooth="yes"/>
      <point x="656" y="26"/>
      <point x="555" y="130"/>
      <point x="555" y="419" type="curve" smooth="yes"/>
      <point x="555" y="484"/>
      <point x="562" y="549"/>
      <point x="576" y="605" type="curve"/>
      <point x="578" y="615" type="line"/>
      <point x="613" y="741"/>
      <point x="685" y="826"/>
      <point x="809" y="826" type="curve" smooth="yes"/>
      <point x="911" y="826"/>
      <point x="966" y="770"/>
      <point x="997" y="687" type="curve"/>
      <point x="1022" y="689" type="line"/>
      <point x="1072" y="804"/>
      <point x="1136" y="851"/>
      <point x="1227" y="851" type="curve" smooth="yes"/>
      <point x="1332" y="851"/>
      <point x="1389" y="791"/>
      <point x="1418" y="688" type="curve"/>
      <point x="1444" y="692" type="line"/>
      <point x="1415" y="809"/>
      <point x="1342" y="877"/>
      <point x="1228" y="877" type="curve" smooth="yes"/>
      <point x="1126" y="877"/>
      <point x="1049" y="823"/>
      <point x="1000" y="697" type="curve"/>
      <point x="1016" y="698" type="line"/>
      <point x="981" y="800"/>
      <point x="915" y="852"/>
      <point x="809" y="852" type="curve" smooth="yes"/>
      <point x="670" y="852"/>
      <point x="586" y="754"/>
      <point x="550" y="617" type="curve"/>
      <point x="548" y="607" type="line"/>
      <point x="535" y="551"/>
      <point x="528" y="486"/>
      <point x="528" y="419" type="curve" smooth="yes"/>
      <point x="528" y="123"/>
      <point x="635" y="0"/>
    </contour>
    <contour>
      <point x="475" y="596" type="line"/>
      <point x="1088" y="596" type="line"/>
      <point x="1088" y="622" type="line"/>
      <point x="475" y="622" type="line"/>
    </contour>
    <component base="oneguru" xOffset="-13"/>
  </outline>
</glyph>
<glyph name="yakashguru" format="2">
  <unicode hex="0A75"/>
  <outline>
    <contour>
      <point x="-90" y="-283" type="curve" smooth="yes"/>
      <point x="-38" y="-283"/>
      <point x="-6" y="-254"/>
      <point x="17" y="-206" type="curve"/>
      <point x="-7" y="-194" type="line"/>
      <point x="-25" y="-234"/>
      <point x="-46" y="-257"/>
      <point x="-88" y="-257" type="curve" smooth="yes"/>
      <point x="-138" y="-257"/>
      <point x="-162" y="-229"/>
      <point x="-162" y="-149" type="curve" smooth="yes"/>
      <point x="-162" y="-115"/>
      <point x="-158" y="-77"/>
      <point x="-153" y="-45" type="curve"/>
      <point x="-179" y="-42" type="line"/>
      <point x="-184" y="-76"/>
      <point x="-188" y="-114"/>
      <point x="-188" y="-149" type="curve" smooth="yes"/>
      <point x="-188" y="-237"/>
      <point x="-157" y="-283"/>
    </contour>
  </outline>
</glyph>
<glyph name="uni0A76" format="2">
  <advance width="217"/>
  <unicode hex="0A76"/>
  <outline>
    <contour>
      <point x="78" y="348" type="curve" smooth="yes"/>
      <point x="78" y="323"/>
      <point x="93" y="310"/>
      <point x="109" y="310" type="curve" smooth="yes"/>
      <point x="126" y="310"/>
      <point x="139" y="322"/>
      <point x="139" y="348" type="curve" smooth="yes"/>
      <point x="139" y="371"/>
      <point x="128" y="386"/>
      <point x="109" y="386" type="curve" smooth="yes"/>
      <point x="91" y="386"/>
      <point x="78" y="372"/>
    </contour>
  </outline>
</glyph>
<glyph name="endash.guru" format="2">
  <advance width="500"/>
  <unicode hex="2013"/>
  <outline>
    <contour>
      <point x="40" y="310" type="line"/>
      <point x="40" y="284" type="line"/>
      <point x="460" y="284" type="line"/>
      <point x="460" y="310" type="line"/>
    </contour>
  </outline>
</glyph>
<glyph name="minus.guru" format="2">
  <advance width="551"/>
  <unicode hex="2212"/>
  <outline>
    <contour>
      <point x="58" y="335" type="line"/>
      <point x="58" y="309" type="line"/>
      <point x="494" y="309" type="line"/>
      <point x="494" y="335" type="line"/>
    </contour>
  </outline>
</glyph>
<glyph name="uni262C" format="2">
  <advance width="949"/>
  <unicode hex="262C"/>
  <outline>
    <contour>
      <point x="475" y="-198" type="curve" smooth="yes"/>
      <point x="514" y="-198"/>
      <point x="547" y="-164"/>
      <point x="547" y="-120" type="curve" smooth="yes"/>
      <point x="547" y="-56"/>
      <point x="510" y="-42"/>
      <point x="510" y="25" type="curve" smooth="yes"/>
      <point x="510" y="61"/>
      <point x="543" y="84"/>
      <point x="543" y="84" type="curve"/>
      <point x="576" y="50"/>
      <point x="619" y="-4"/>
      <point x="619" y="-38" type="curve" smooth="yes"/>
      <point x="619" y="-49"/>
      <point x="607" y="-51"/>
      <point x="607" y="-79" type="curve" smooth="yes"/>
      <point x="607" y="-105"/>
      <point x="625" y="-130"/>
      <point x="659" y="-130" type="curve" smooth="yes"/>
      <point x="692" y="-130"/>
      <point x="708" y="-107"/>
      <point x="708" y="-76" type="curve" smooth="yes"/>
      <point x="708" y="-36"/>
      <point x="655" y="42"/>
      <point x="580" y="103" type="curve"/>
      <point x="598" y="109"/>
      <point x="618" y="114"/>
      <point x="639" y="114" type="curve" smooth="yes"/>
      <point x="723" y="114"/>
      <point x="764" y="48"/>
      <point x="767" y="-13" type="curve"/>
      <point x="790" y="20"/>
      <point x="889" y="155"/>
      <point x="889" y="396" type="curve" smooth="yes"/>
      <point x="889" y="578"/>
      <point x="780" y="686"/>
      <point x="729" y="718" type="curve"/>
      <point x="767" y="651"/>
      <point x="790" y="583"/>
      <point x="790" y="468" type="curve" smooth="yes"/>
      <point x="790" y="317"/>
      <point x="697" y="172"/>
      <point x="510" y="158" type="curve"/>
      <point x="510" y="236" type="line"/>
      <point x="543" y="240"/>
      <point x="578" y="250"/>
      <point x="593" y="256" type="curve"/>
      <point x="585" y="268"/>
      <point x="578" y="280"/>
      <point x="572" y="292" type="curve"/>
      <point x="656" y="333"/>
      <point x="715" y="417"/>
      <point x="715" y="517" type="curve" smooth="yes"/>
      <point x="715" y="628"/>
      <point x="641" y="721"/>
      <point x="539" y="750" type="curve"/>
      <point x="546" y="789"/>
      <point x="558" y="802"/>
      <point x="588" y="802" type="curve"/>
      <point x="588" y="830" type="line"/>
      <point x="533" y="830"/>
      <point x="512" y="880"/>
      <point x="471" y="880" type="curve" smooth="yes"/>
      <point x="428" y="880"/>
      <point x="417" y="830"/>
      <point x="361" y="830" type="curve"/>
      <point x="361" y="802" type="line"/>
      <point x="392" y="802"/>
      <point x="404" y="789"/>
      <point x="411" y="750" type="curve"/>
      <point x="310" y="721"/>
      <point x="235" y="628"/>
      <point x="235" y="517" type="curve" smooth="yes"/>
      <point x="235" y="417"/>
      <point x="293" y="333"/>
      <point x="378" y="292" type="curve"/>
      <point x="372" y="280"/>
      <point x="364" y="268"/>
      <point x="357" y="256" type="curve"/>
      <point x="372" y="250"/>
      <point x="407" y="240"/>
      <point x="440" y="236" type="curve"/>
      <point x="440" y="158" type="line"/>
      <point x="253" y="172"/>
      <point x="160" y="317"/>
      <point x="160" y="468" type="curve" smooth="yes"/>
      <point x="160" y="583"/>
      <point x="183" y="651"/>
      <point x="221" y="718" type="curve"/>
      <point x="170" y="686"/>
      <point x="61" y="578"/>
      <point x="61" y="396" type="curve" smooth="yes"/>
      <point x="61" y="155"/>
      <point x="160" y="20"/>
      <point x="183" y="-13" type="curve"/>
      <point x="187" y="48"/>
      <point x="227" y="114"/>
      <point x="311" y="114" type="curve" smooth="yes"/>
      <point x="332" y="114"/>
      <point x="352" y="109"/>
      <point x="371" y="103" type="curve"/>
      <point x="295" y="42"/>
      <point x="242" y="-36"/>
      <point x="242" y="-76" type="curve" smooth="yes"/>
      <point x="242" y="-107"/>
      <point x="257" y="-130"/>
      <point x="291" y="-130" type="curve" smooth="yes"/>
      <point x="325" y="-130"/>
      <point x="343" y="-105"/>
      <point x="343" y="-79" type="curve" smooth="yes"/>
      <point x="343" y="-51"/>
      <point x="331" y="-49"/>
      <point x="331" y="-38" type="curve" smooth="yes"/>
      <point x="331" y="-4"/>
      <point x="374" y="50"/>
      <point x="407" y="84" type="curve"/>
      <point x="407" y="84"/>
      <point x="440" y="61"/>
      <point x="440" y="25" type="curve" smooth="yes"/>
      <point x="440" y="-42"/>
      <point x="403" y="-56"/>
      <point x="403" y="-120" type="curve" smooth="yes"/>
      <point x="403" y="-164"/>
      <point x="436" y="-198"/>
    </contour>
    <contour>
      <point x="403" y="351" type="curve"/>
      <point x="340" y="378"/>
      <point x="297" y="442"/>
      <point x="297" y="517" type="curve" smooth="yes"/>
      <point x="297" y="598"/>
      <point x="349" y="665"/>
      <point x="422" y="688" type="curve"/>
      <point x="427" y="654"/>
      <point x="432" y="607"/>
      <point x="432" y="544" type="curve" smooth="yes"/>
      <point x="432" y="460"/>
      <point x="419" y="399"/>
    </contour>
    <contour>
      <point x="547" y="351" type="curve"/>
      <point x="530" y="399"/>
      <point x="519" y="460"/>
      <point x="519" y="544" type="curve" smooth="yes"/>
      <point x="519" y="607"/>
      <point x="523" y="654"/>
      <point x="527" y="688" type="curve"/>
      <point x="601" y="665"/>
      <point x="652" y="598"/>
      <point x="652" y="517" type="curve" smooth="yes"/>
      <point x="652" y="442"/>
      <point x="610" y="378"/>
    </contour>
  </outline>
</glyph>
<glyph name="uniA831" format="2">
  <advance width="377"/>
  <unicode hex="A831"/>
  <outline>
    <contour>
      <point x="270" y="0" type="line"/>
      <point x="296" y="0" type="line"/>
      <point x="296" y="622" type="line"/>
      <point x="270" y="622" type="line"/>
    </contour>
    <contour>
      <point x="81" y="0" type="line"/>
      <point x="107" y="0" type="line"/>
      <point x="107" y="622" type="line"/>
      <point x="81" y="622" type="line"/>
    </contour>
  </outline>
</glyph>
<glyph name="uniA832" format="2">
  <advance width="566"/>
  <unicode hex="A832"/>
  <outline>
    <contour>
      <point x="459" y="0" type="line"/>
      <point x="485" y="0" type="line"/>
      <point x="485" y="622" type="line"/>
      <point x="459" y="622" type="line"/>
    </contour>
    <contour>
      <point x="270" y="0" type="line"/>
      <point x="296" y="0" type="line"/>
      <point x="296" y="622" type="line"/>
      <point x="270" y="622" type="line"/>
    </contour>
    <contour>
      <point x="81" y="0" type="line"/>
      <point x="107" y="0" type="line"/>
      <point x="107" y="622" type="line"/>
      <point x="81" y="622" type="line"/>
    </contour>
  </outline>
</glyph>
<glyph name="uniA833" format="2">
  <advance width="618"/>
  <unicode hex="A833"/>
  <outline>
    <contour>
      <point x="51" y="452" type="line"/>
      <point x="574" y="583" type="line"/>
      <point x="567" y="608" type="line"/>
      <point x="44" y="477" type="line"/>
    </contour>
  </outline>
</glyph>
<glyph name="uniA834" format="2">
  <advance width="618"/>
  <unicode hex="A834"/>
  <outline>
    <contour>
      <point x="51" y="452" type="line"/>
      <point x="574" y="583" type="line"/>
      <point x="567" y="608" type="line"/>
      <point x="44" y="477" type="line"/>
    </contour>
    <contour>
      <point x="51" y="246" type="line"/>
      <point x="574" y="377" type="line"/>
      <point x="567" y="402" type="line"/>
      <point x="44" y="271" type="line"/>
    </contour>
  </outline>
</glyph>
<glyph name="uniA835" format="2">
  <advance width="618"/>
  <unicode hex="A835"/>
  <outline>
    <contour>
      <point x="51" y="452" type="line"/>
      <point x="574" y="583" type="line"/>
      <point x="567" y="608" type="line"/>
      <point x="44" y="477" type="line"/>
    </contour>
    <contour>
      <point x="51" y="246" type="line"/>
      <point x="574" y="377" type="line"/>
      <point x="567" y="402" type="line"/>
      <point x="44" y="271" type="line"/>
    </contour>
    <contour>
      <point x="51" y="40" type="line"/>
      <point x="574" y="171" type="line"/>
      <point x="567" y="196" type="line"/>
      <point x="44" y="65" type="line"/>
    </contour>
  </outline>
</glyph>
<glyph name="uniA837" format="2">
  <advance width="499"/>
  <unicode hex="A837"/>
  <outline>
    <contour>
      <point x="220" y="92" type="curve" smooth="yes"/>
      <point x="316" y="92"/>
      <point x="374" y="156"/>
      <point x="374" y="240" type="curve" smooth="yes"/>
      <point x="374" y="327"/>
      <point x="314" y="391"/>
      <point x="221" y="391" type="curve" smooth="yes"/>
      <point x="192" y="391"/>
      <point x="159" y="382"/>
      <point x="133" y="361" type="curve"/>
      <point x="135" y="346" type="line"/>
      <point x="199" y="389"/>
      <point x="276" y="446"/>
      <point x="322" y="482" type="curve" smooth="yes"/>
      <point x="479" y="603" type="line"/>
      <point x="463" y="623" type="line"/>
      <point x="141" y="377" type="line" smooth="yes"/>
      <point x="88" y="336"/>
      <point x="67" y="300"/>
      <point x="67" y="243" type="curve" smooth="yes"/>
      <point x="67" y="157"/>
      <point x="126" y="92"/>
    </contour>
    <contour>
      <point x="220" y="118" type="curve" smooth="yes"/>
      <point x="139" y="118"/>
      <point x="94" y="170"/>
      <point x="94" y="243" type="curve" smooth="yes"/>
      <point x="94" y="314"/>
      <point x="139" y="366"/>
      <point x="220" y="366" type="curve" smooth="yes"/>
      <point x="302" y="366"/>
      <point x="347" y="314"/>
      <point x="347" y="241" type="curve" smooth="yes"/>
      <point x="347" y="169"/>
      <point x="301" y="118"/>
    </contour>
  </outline>
</glyph>
<glyph name="uniA839" format="2">
  <advance width="313"/>
  <unicode hex="A839"/>
  <outline>
    <contour>
      <point x="-167" y="-195" type="curve"/>
      <point x="-168" y="-221" type="line"/>
      <point x="-157" y="-222"/>
      <point x="-133" y="-224"/>
      <point x="-114" y="-224" type="curve" smooth="yes"/>
      <point x="175" y="-224"/>
      <point x="213" y="-72"/>
      <point x="213" y="29" type="curve" smooth="yes"/>
      <point x="213" y="187"/>
      <point x="102" y="317"/>
      <point x="102" y="437" type="curve" smooth="yes"/>
      <point x="102" y="534"/>
      <point x="182" y="578"/>
      <point x="302" y="608" type="curve"/>
      <point x="295" y="632" type="line"/>
      <point x="150" y="595"/>
      <point x="75" y="540"/>
      <point x="75" y="436" type="curve" smooth="yes"/>
      <point x="75" y="304"/>
      <point x="186" y="189"/>
      <point x="186" y="21" type="curve" smooth="yes"/>
      <point x="186" y="-95"/>
      <point x="125" y="-198"/>
      <point x="-112" y="-198" type="curve" smooth="yes"/>
      <point x="-132" y="-198"/>
      <point x="-153" y="-197"/>
    </contour>
  </outline>
</glyph>
<glyph name="addakbaraltguru" format="2">
  <advance width="192"/>
  <outline>
    <contour>
      <point x="155" y="696" type="curve" smooth="yes"/>
      <point x="234" y="696"/>
      <point x="280" y="755"/>
      <point x="282" y="864" type="curve"/>
      <point x="256" y="866" type="line"/>
      <point x="252" y="773"/>
      <point x="221" y="721"/>
      <point x="155" y="721" type="curve" smooth="yes"/>
      <point x="85" y="721"/>
      <point x="54" y="773"/>
      <point x="50" y="866" type="curve"/>
      <point x="24" y="864" type="line"/>
      <point x="26" y="755"/>
      <point x="72" y="696"/>
    </contour>
    <contour>
      <point x="-7" y="596" type="line"/>
      <point x="198" y="596" type="line"/>
      <point x="198" y="622" type="line"/>
      <point x="-7" y="622" type="line"/>
    </contour>
  </outline>
</glyph>
<glyph name="aimatraaddakguru" format="2">
  <outline>
    <contour>
      <point x="-117" y="613" type="curve"/>
      <point x="-97" y="615" type="line"/>
      <point x="-149" y="812"/>
      <point x="-209" y="890"/>
      <point x="-361" y="890" type="curve" smooth="yes"/>
      <point x="-369" y="890"/>
      <point x="-375" y="890"/>
      <point x="-384" y="889" type="curve"/>
      <point x="-382" y="863" type="line"/>
      <point x="-375" y="864"/>
      <point x="-369" y="864"/>
      <point x="-362" y="864" type="curve" smooth="yes"/>
      <point x="-228" y="864"/>
      <point x="-178" y="803"/>
    </contour>
    <contour>
      <point x="-124" y="593" type="curve"/>
      <point x="-116" y="614" type="line"/>
      <point x="-190" y="725"/>
      <point x="-259" y="755"/>
      <point x="-377" y="755" type="curve" smooth="yes"/>
      <point x="-385" y="755"/>
      <point x="-390" y="755"/>
      <point x="-401" y="754" type="curve"/>
      <point x="-399" y="728" type="line"/>
      <point x="-389" y="729"/>
      <point x="-385" y="729"/>
      <point x="-376" y="729" type="curve" smooth="yes"/>
      <point x="-272" y="729"/>
      <point x="-206" y="705"/>
    </contour>
    <contour>
      <point x="-38" y="696" type="curve" smooth="yes"/>
      <point x="36" y="696"/>
      <point x="82" y="755"/>
      <point x="84" y="864" type="curve"/>
      <point x="58" y="866" type="line"/>
      <point x="54" y="773"/>
      <point x="23" y="721"/>
      <point x="-38" y="721" type="curve" smooth="yes"/>
      <point x="-103" y="721"/>
      <point x="-134" y="773"/>
      <point x="-138" y="866" type="curve"/>
      <point x="-164" y="864" type="line"/>
      <point x="-162" y="755"/>
      <point x="-116" y="696"/>
    </contour>
  </outline>
</glyph>
<glyph name="aimatrabindiguru" format="2">
  <outline>
    <contour>
      <point x="-117" y="613" type="curve"/>
      <point x="-97" y="615" type="line"/>
      <point x="-139" y="810"/>
      <point x="-203" y="890"/>
      <point x="-351" y="890" type="curve" smooth="yes"/>
      <point x="-359" y="890"/>
      <point x="-365" y="890"/>
      <point x="-374" y="889" type="curve"/>
      <point x="-372" y="863" type="line"/>
      <point x="-365" y="864"/>
      <point x="-359" y="864"/>
      <point x="-352" y="864" type="curve" smooth="yes"/>
      <point x="-223" y="864"/>
      <point x="-171" y="803"/>
    </contour>
    <contour>
      <point x="-124" y="593" type="curve"/>
      <point x="-116" y="614" type="line"/>
      <point x="-190" y="725"/>
      <point x="-254" y="755"/>
      <point x="-367" y="755" type="curve" smooth="yes"/>
      <point x="-375" y="755"/>
      <point x="-380" y="755"/>
      <point x="-391" y="754" type="curve"/>
      <point x="-389" y="728" type="line"/>
      <point x="-379" y="729"/>
      <point x="-375" y="729"/>
      <point x="-366" y="729" type="curve" smooth="yes"/>
      <point x="-266" y="729"/>
      <point x="-206" y="705"/>
    </contour>
    <contour>
      <point x="-100" y="814" type="curve" smooth="yes"/>
      <point x="-83" y="814"/>
      <point x="-70" y="826"/>
      <point x="-70" y="852" type="curve" smooth="yes"/>
      <point x="-70" y="875"/>
      <point x="-81" y="890"/>
      <point x="-100" y="890" type="curve" smooth="yes"/>
      <point x="-118" y="890"/>
      <point x="-131" y="876"/>
      <point x="-131" y="852" type="curve" smooth="yes"/>
      <point x="-131" y="827"/>
      <point x="-116" y="814"/>
    </contour>
  </outline>
</glyph>
<glyph name="aumatraaddakguru" format="2">
  <outline>
    <contour>
      <point x="-280" y="682" type="curve"/>
      <point x="-256" y="687" type="line"/>
      <point x="-264" y="708"/>
      <point x="-270" y="733"/>
      <point x="-270" y="756" type="curve" smooth="yes"/>
      <point x="-270" y="806"/>
      <point x="-243" y="843"/>
      <point x="-187" y="843" type="curve" smooth="yes"/>
      <point x="-130" y="843"/>
      <point x="-103" y="806"/>
      <point x="-103" y="756" type="curve" smooth="yes"/>
      <point x="-103" y="731"/>
      <point x="-108" y="710"/>
      <point x="-116" y="687" type="curve"/>
      <point x="-91" y="683" type="line"/>
      <point x="-82" y="707"/>
      <point x="-78" y="733"/>
      <point x="-78" y="757" type="curve" smooth="yes"/>
      <point x="-78" y="823"/>
      <point x="-121" y="868"/>
      <point x="-187" y="868" type="curve" smooth="yes"/>
      <point x="-251" y="868"/>
      <point x="-296" y="824"/>
      <point x="-296" y="756" type="curve" smooth="yes"/>
      <point x="-296" y="733"/>
      <point x="-291" y="707"/>
    </contour>
    <contour>
      <point x="-340" y="784" type="curve" smooth="yes"/>
      <point x="-303" y="784"/>
      <point x="-278" y="799"/>
      <point x="-246" y="825" type="curve"/>
      <point x="-256" y="843" type="line"/>
      <point x="-285" y="819"/>
      <point x="-305" y="809"/>
      <point x="-339" y="809" type="curve" smooth="yes"/>
      <point x="-371" y="809"/>
      <point x="-404" y="822"/>
      <point x="-423" y="890" type="curve"/>
      <point x="-448" y="884" type="line"/>
      <point x="-428" y="805"/>
      <point x="-382" y="784"/>
    </contour>
    <contour>
      <point x="25" y="720" type="curve" smooth="yes"/>
      <point x="99" y="720"/>
      <point x="145" y="779"/>
      <point x="147" y="888" type="curve"/>
      <point x="121" y="890" type="line"/>
      <point x="117" y="797"/>
      <point x="86" y="745"/>
      <point x="25" y="745" type="curve" smooth="yes"/>
      <point x="-40" y="745"/>
      <point x="-71" y="797"/>
      <point x="-75" y="890" type="curve"/>
      <point x="-101" y="888" type="line"/>
      <point x="-99" y="779"/>
      <point x="-50" y="720"/>
    </contour>
  </outline>
</glyph>
<glyph name="aumatrabindiguru" format="2">
  <outline>
    <contour>
      <point x="-252" y="682" type="curve"/>
      <point x="-228" y="687" type="line"/>
      <point x="-236" y="708"/>
      <point x="-242" y="733"/>
      <point x="-242" y="756" type="curve" smooth="yes"/>
      <point x="-242" y="806"/>
      <point x="-215" y="843"/>
      <point x="-154" y="843" type="curve" smooth="yes"/>
      <point x="-92" y="843"/>
      <point x="-65" y="806"/>
      <point x="-65" y="756" type="curve" smooth="yes"/>
      <point x="-65" y="731"/>
      <point x="-70" y="710"/>
      <point x="-78" y="687" type="curve"/>
      <point x="-53" y="683" type="line"/>
      <point x="-44" y="707"/>
      <point x="-39" y="733"/>
      <point x="-39" y="757" type="curve" smooth="yes"/>
      <point x="-39" y="824"/>
      <point x="-83" y="868"/>
      <point x="-154" y="868" type="curve" smooth="yes"/>
      <point x="-223" y="868"/>
      <point x="-268" y="824"/>
      <point x="-268" y="756" type="curve" smooth="yes"/>
      <point x="-268" y="733"/>
      <point x="-263" y="707"/>
    </contour>
    <contour>
      <point x="-316" y="784" type="curve" smooth="yes"/>
      <point x="-275" y="784"/>
      <point x="-250" y="799"/>
      <point x="-218" y="825" type="curve"/>
      <point x="-228" y="843" type="line"/>
      <point x="-257" y="819"/>
      <point x="-277" y="809"/>
      <point x="-315" y="809" type="curve" smooth="yes"/>
      <point x="-353" y="809"/>
      <point x="-386" y="822"/>
      <point x="-405" y="890" type="curve"/>
      <point x="-430" y="884" type="line"/>
      <point x="-410" y="805"/>
      <point x="-364" y="784"/>
    </contour>
    <contour>
      <point x="14" y="814" type="curve" smooth="yes"/>
      <point x="31" y="814"/>
      <point x="44" y="826"/>
      <point x="44" y="852" type="curve" smooth="yes"/>
      <point x="44" y="875"/>
      <point x="33" y="890"/>
      <point x="14" y="890" type="curve" smooth="yes"/>
      <point x="-4" y="890"/>
      <point x="-17" y="876"/>
      <point x="-17" y="852" type="curve" smooth="yes"/>
      <point x="-17" y="827"/>
      <point x="-2" y="814"/>
    </contour>
  </outline>
</glyph>
<glyph name="baUIguru" format="2">
  <advance width="565"/>
  <outline>
    <contour>
      <point x="47" y="256" type="curve"/>
      <point x="93" y="163"/>
      <point x="171" y="95"/>
      <point x="289" y="95" type="curve" smooth="yes"/>
      <point x="349" y="95"/>
      <point x="406" y="112"/>
      <point x="448" y="134" type="curve"/>
      <point x="442" y="159" type="line"/>
      <point x="401" y="136"/>
      <point x="344" y="121"/>
      <point x="289" y="121" type="curve" smooth="yes"/>
      <point x="183" y="121"/>
      <point x="112" y="183"/>
      <point x="72" y="265" type="curve"/>
      <point x="68" y="240" type="line"/>
      <point x="118" y="314"/>
      <point x="173" y="370"/>
      <point x="292" y="370" type="curve" smooth="yes"/>
      <point x="450" y="370" type="line"/>
      <point x="452" y="396" type="line"/>
      <point x="289" y="396" type="line" smooth="yes"/>
      <point x="211" y="396"/>
      <point x="175" y="411"/>
      <point x="147" y="435" type="curve" smooth="yes"/>
      <point x="102" y="473"/>
      <point x="91" y="535"/>
      <point x="91" y="612" type="curve"/>
      <point x="83" y="596" type="line"/>
      <point x="510" y="596" type="line"/>
      <point x="510" y="622" type="line"/>
      <point x="-7" y="622" type="line"/>
      <point x="-7" y="596" type="line"/>
      <point x="73" y="596" type="line"/>
      <point x="65" y="609" type="line"/>
      <point x="65" y="471"/>
      <point x="106" y="390"/>
      <point x="242" y="378" type="curve"/>
      <point x="252" y="385" type="line"/>
      <point x="155" y="381"/>
      <point x="105" y="337"/>
    </contour>
    <contour>
      <point x="439" y="56" type="line"/>
      <point x="465" y="56" type="line"/>
      <point x="465" y="596" type="line"/>
      <point x="572" y="596" type="line"/>
      <point x="572" y="622" type="line"/>
      <point x="326" y="622" type="line"/>
      <point x="326" y="596" type="line"/>
      <point x="439" y="596" type="line"/>
    </contour>
  </outline>
</glyph>
<glyph name="eematraaddakaltguru" format="2">
  <advance width="14"/>
  <outline>
    <contour>
      <point x="21" y="596" type="line"/>
      <point x="21" y="622" type="line"/>
      <point x="-7" y="622" type="line"/>
      <point x="-7" y="596" type="line"/>
    </contour>
    <component base="eematraaddakguru"/>
  </outline>
</glyph>
<glyph name="eematraaddakguru" format="2">
  <outline>
    <contour>
      <point x="-127" y="615" type="curve"/>
      <point x="-101" y="615" type="line"/>
      <point x="-150" y="806"/>
      <point x="-208" y="890"/>
      <point x="-362" y="890" type="curve" smooth="yes"/>
      <point x="-367" y="890"/>
      <point x="-377" y="890"/>
      <point x="-386" y="889" type="curve"/>
      <point x="-384" y="863" type="line"/>
      <point x="-375" y="864"/>
      <point x="-371" y="864"/>
      <point x="-364" y="864" type="curve" smooth="yes"/>
      <point x="-228" y="864"/>
      <point x="-177" y="796"/>
    </contour>
    <contour>
      <point x="-38" y="696" type="curve" smooth="yes"/>
      <point x="36" y="696"/>
      <point x="82" y="755"/>
      <point x="84" y="864" type="curve"/>
      <point x="58" y="866" type="line"/>
      <point x="54" y="773"/>
      <point x="23" y="721"/>
      <point x="-38" y="721" type="curve" smooth="yes"/>
      <point x="-103" y="721"/>
      <point x="-134" y="773"/>
      <point x="-138" y="866" type="curve"/>
      <point x="-164" y="864" type="line"/>
      <point x="-162" y="755"/>
      <point x="-116" y="696"/>
    </contour>
  </outline>
</glyph>
<glyph name="eematrabindiguru" format="2">
  <outline>
    <contour>
      <point x="-127" y="615" type="curve"/>
      <point x="-101" y="615" type="line"/>
      <point x="-144" y="806"/>
      <point x="-208" y="890"/>
      <point x="-362" y="890" type="curve" smooth="yes"/>
      <point x="-367" y="890"/>
      <point x="-377" y="890"/>
      <point x="-386" y="889" type="curve"/>
      <point x="-384" y="863" type="line"/>
      <point x="-375" y="864"/>
      <point x="-369" y="864"/>
      <point x="-364" y="864" type="curve" smooth="yes"/>
      <point x="-228" y="864"/>
      <point x="-171" y="796"/>
    </contour>
    <contour>
      <point x="-104" y="813" type="curve" smooth="yes"/>
      <point x="-87" y="813"/>
      <point x="-74" y="825"/>
      <point x="-74" y="851" type="curve" smooth="yes"/>
      <point x="-74" y="874"/>
      <point x="-85" y="889"/>
      <point x="-104" y="889" type="curve" smooth="yes"/>
      <point x="-122" y="889"/>
      <point x="-135" y="875"/>
      <point x="-135" y="851" type="curve" smooth="yes"/>
      <point x="-135" y="826"/>
      <point x="-120" y="813"/>
    </contour>
  </outline>
</glyph>
<glyph name="gaUIguru" format="2">
  <advance width="674"/>
  <outline>
    <contour>
      <point x="279" y="41" type="curve" smooth="yes"/>
      <point x="359" y="41"/>
      <point x="384" y="103"/>
      <point x="384" y="178" type="curve" smooth="yes"/>
      <point x="384" y="596" type="line"/>
      <point x="517" y="596" type="line"/>
      <point x="517" y="622" type="line"/>
      <point x="-7" y="622" type="line"/>
      <point x="-7" y="596" type="line"/>
      <point x="358" y="596" type="line"/>
      <point x="358" y="438" type="line"/>
      <point x="221" y="438" type="line" smooth="yes"/>
      <point x="144" y="438"/>
      <point x="107" y="424"/>
      <point x="81" y="398" type="curve" smooth="yes"/>
      <point x="57" y="374"/>
      <point x="46" y="341"/>
      <point x="46" y="302" type="curve" smooth="yes"/>
      <point x="46" y="183"/>
      <point x="157" y="41"/>
    </contour>
    <contour>
      <point x="279" y="67" type="curve" smooth="yes"/>
      <point x="171" y="67"/>
      <point x="73" y="199"/>
      <point x="73" y="301" type="curve" smooth="yes"/>
      <point x="73" y="335"/>
      <point x="81" y="362"/>
      <point x="101" y="381" type="curve" smooth="yes"/>
      <point x="122" y="401"/>
      <point x="153" y="412"/>
      <point x="214" y="412" type="curve" smooth="yes"/>
      <point x="358" y="412" type="line"/>
      <point x="358" y="186" type="line" smooth="yes"/>
      <point x="358" y="145"/>
      <point x="353" y="110"/>
      <point x="334" y="89" type="curve" smooth="yes"/>
      <point x="321" y="75"/>
      <point x="303" y="67"/>
    </contour>
    <contour>
      <point x="548" y="56" type="line"/>
      <point x="574" y="56" type="line"/>
      <point x="574" y="596" type="line"/>
      <point x="681" y="596" type="line"/>
      <point x="681" y="622" type="line"/>
      <point x="437" y="622" type="line"/>
      <point x="437" y="596" type="line"/>
      <point x="548" y="596" type="line"/>
    </contour>
  </outline>
</glyph>
<glyph name="hasubscript1guru" format="2">
  <outline>
    <contour>
      <point x="-196" y="-307" type="curve" smooth="yes"/>
      <point x="-166" y="-307"/>
      <point x="-141" y="-299"/>
      <point x="-125" y="-281" type="curve" smooth="yes"/>
      <point x="-109" y="-264"/>
      <point x="-100" y="-241"/>
      <point x="-100" y="-194" type="curve" smooth="yes"/>
      <point x="-100" y="34" type="line"/>
      <point x="-126" y="24" type="line"/>
      <point x="-126" y="-194" type="line" smooth="yes"/>
      <point x="-126" y="-255"/>
      <point x="-144" y="-281"/>
      <point x="-197" y="-281" type="curve" smooth="yes"/>
      <point x="-268" y="-281"/>
      <point x="-320" y="-223"/>
      <point x="-320" y="-167" type="curve" smooth="yes"/>
      <point x="-320" y="-118"/>
      <point x="-287" y="-107"/>
      <point x="-218" y="-107" type="curve"/>
      <point x="-217" y="-81" type="line"/>
      <point x="-220" y="-81" type="line"/>
      <point x="-274" y="-81"/>
      <point x="-305" y="-89"/>
      <point x="-327" y="-111" type="curve" smooth="yes"/>
      <point x="-339" y="-124"/>
      <point x="-346" y="-142"/>
      <point x="-346" y="-167" type="curve" smooth="yes"/>
      <point x="-346" y="-243"/>
      <point x="-275" y="-307"/>
    </contour>
  </outline>
</glyph>
<glyph name="hasubscriptUIguru" format="2">
  <outline>
    <contour>
      <point x="-196" y="-271" type="curve" smooth="yes"/>
      <point x="-166" y="-271"/>
      <point x="-142" y="-263"/>
      <point x="-125" y="-245" type="curve" smooth="yes"/>
      <point x="-109" y="-228"/>
      <point x="-100" y="-205"/>
      <point x="-100" y="-158" type="curve" smooth="yes"/>
      <point x="-100" y="0" type="line"/>
      <point x="-126" y="0" type="line"/>
      <point x="-126" y="-158" type="line" smooth="yes"/>
      <point x="-126" y="-219"/>
      <point x="-144" y="-245"/>
      <point x="-197" y="-245" type="curve" smooth="yes"/>
      <point x="-268" y="-245"/>
      <point x="-320" y="-187"/>
      <point x="-320" y="-131" type="curve" smooth="yes"/>
      <point x="-320" y="-82"/>
      <point x="-287" y="-71"/>
      <point x="-218" y="-71" type="curve"/>
      <point x="-217" y="-45" type="line"/>
      <point x="-220" y="-45" type="line"/>
      <point x="-274" y="-45"/>
      <point x="-305" y="-53"/>
      <point x="-327" y="-75" type="curve" smooth="yes"/>
      <point x="-340" y="-88"/>
      <point x="-346" y="-106"/>
      <point x="-346" y="-131" type="curve" smooth="yes"/>
      <point x="-346" y="-207"/>
      <point x="-275" y="-271"/>
    </contour>
  </outline>
</glyph>
<glyph name="hasubscripthalantguru" format="2">
  <outline>
    <contour>
      <point x="-196" y="-283" type="curve" smooth="yes"/>
      <point x="-166" y="-283"/>
      <point x="-142" y="-275"/>
      <point x="-125" y="-257" type="curve" smooth="yes"/>
      <point x="-109" y="-240"/>
      <point x="-100" y="-217"/>
      <point x="-100" y="-170" type="curve" smooth="yes"/>
      <point x="-100" y="0" type="line"/>
      <point x="-126" y="0" type="line"/>
      <point x="-126" y="-170" type="line" smooth="yes"/>
      <point x="-126" y="-231"/>
      <point x="-144" y="-257"/>
      <point x="-197" y="-257" type="curve" smooth="yes"/>
      <point x="-268" y="-257"/>
      <point x="-320" y="-199"/>
      <point x="-320" y="-143" type="curve" smooth="yes"/>
      <point x="-320" y="-94"/>
      <point x="-287" y="-83"/>
      <point x="-218" y="-83" type="curve"/>
      <point x="-217" y="-57" type="line"/>
      <point x="-220" y="-57" type="line"/>
      <point x="-274" y="-57"/>
      <point x="-305" y="-65"/>
      <point x="-327" y="-87" type="curve" smooth="yes"/>
      <point x="-340" y="-100"/>
      <point x="-346" y="-118"/>
      <point x="-346" y="-143" type="curve" smooth="yes"/>
      <point x="-346" y="-219"/>
      <point x="-275" y="-283"/>
    </contour>
    <contour>
      <point x="115" y="-398" type="curve"/>
      <point x="140" y="-390" type="line"/>
      <point x="90" y="-270"/>
      <point x="9" y="-225"/>
      <point x="-77" y="-225" type="curve" smooth="yes"/>
      <point x="-83" y="-225"/>
      <point x="-91" y="-225"/>
      <point x="-100" y="-226" type="curve"/>
      <point x="-98" y="-252" type="line"/>
      <point x="-88" y="-251"/>
      <point x="-81" y="-251"/>
      <point x="-77" y="-251" type="curve" smooth="yes"/>
      <point x="-6" y="-251"/>
      <point x="68" y="-287"/>
    </contour>
  </outline>
</glyph>
<glyph name="hasubscriptuUIguru" format="2">
  <outline>
    <contour>
      <point x="-196" y="-195" type="curve" smooth="yes"/>
      <point x="-166" y="-195"/>
      <point x="-142" y="-187"/>
      <point x="-125" y="-169" type="curve" smooth="yes"/>
      <point x="-109" y="-152"/>
      <point x="-100" y="-129"/>
      <point x="-100" y="-82" type="curve" smooth="yes"/>
      <point x="-100" y="60" type="line"/>
      <point x="-126" y="60" type="line"/>
      <point x="-126" y="-82" type="line" smooth="yes"/>
      <point x="-126" y="-143"/>
      <point x="-144" y="-169"/>
      <point x="-197" y="-169" type="curve" smooth="yes"/>
      <point x="-268" y="-169"/>
      <point x="-320" y="-111"/>
      <point x="-320" y="-55" type="curve" smooth="yes"/>
      <point x="-320" y="-6"/>
      <point x="-287" y="5"/>
      <point x="-218" y="5" type="curve"/>
      <point x="-217" y="31" type="line"/>
      <point x="-220" y="31" type="line"/>
      <point x="-274" y="31"/>
      <point x="-305" y="23"/>
      <point x="-327" y="1" type="curve" smooth="yes"/>
      <point x="-340" y="-12"/>
      <point x="-346" y="-30"/>
      <point x="-346" y="-55" type="curve" smooth="yes"/>
      <point x="-346" y="-131"/>
      <point x="-275" y="-195"/>
    </contour>
    <contour>
      <point x="-321" y="-266" type="curve" smooth="yes"/>
      <point x="-245" y="-266"/>
      <point x="-184" y="-243"/>
      <point x="-144" y="-217" type="curve"/>
      <point x="-149" y="-196" type="line"/>
      <point x="-194" y="-222"/>
      <point x="-247" y="-242"/>
      <point x="-321" y="-242" type="curve" smooth="yes"/>
      <point x="-394" y="-242"/>
      <point x="-447" y="-220"/>
      <point x="-492" y="-194" type="curve"/>
      <point x="-497" y="-215" type="line"/>
      <point x="-456" y="-243"/>
      <point x="-398" y="-266"/>
    </contour>
  </outline>
</glyph>
<glyph name="hasubscriptuguru" format="2">
  <outline>
    <contour>
      <point x="-196" y="-279" type="curve" smooth="yes"/>
      <point x="-166" y="-279"/>
      <point x="-142" y="-271"/>
      <point x="-125" y="-253" type="curve" smooth="yes"/>
      <point x="-109" y="-236"/>
      <point x="-100" y="-213"/>
      <point x="-100" y="-166" type="curve" smooth="yes"/>
      <point x="-100" y="0" type="line"/>
      <point x="-126" y="0" type="line"/>
      <point x="-126" y="-166" type="line" smooth="yes"/>
      <point x="-126" y="-227"/>
      <point x="-144" y="-253"/>
      <point x="-197" y="-253" type="curve" smooth="yes"/>
      <point x="-268" y="-253"/>
      <point x="-320" y="-195"/>
      <point x="-320" y="-139" type="curve" smooth="yes"/>
      <point x="-320" y="-90"/>
      <point x="-287" y="-79"/>
      <point x="-218" y="-79" type="curve"/>
      <point x="-217" y="-53" type="line"/>
      <point x="-220" y="-53" type="line"/>
      <point x="-274" y="-53"/>
      <point x="-305" y="-61"/>
      <point x="-327" y="-83" type="curve" smooth="yes"/>
      <point x="-340" y="-96"/>
      <point x="-346" y="-114"/>
      <point x="-346" y="-139" type="curve" smooth="yes"/>
      <point x="-346" y="-215"/>
      <point x="-275" y="-279"/>
    </contour>
    <contour>
      <point x="-281" y="-369" type="curve" smooth="yes"/>
      <point x="-205" y="-369"/>
      <point x="-145" y="-348"/>
      <point x="-107" y="-323" type="curve"/>
      <point x="-111" y="-298" type="line"/>
      <point x="-154" y="-324"/>
      <point x="-205" y="-343"/>
      <point x="-281" y="-343" type="curve" smooth="yes"/>
      <point x="-359" y="-343"/>
      <point x="-407" y="-324"/>
      <point x="-450" y="-298" type="curve"/>
      <point x="-454" y="-323" type="line"/>
      <point x="-415" y="-349"/>
      <point x="-359" y="-369"/>
    </contour>
  </outline>
</glyph>
<glyph name="hasubscriptuuUIguru" format="2">
  <outline>
    <contour>
      <point x="-196" y="-195" type="curve" smooth="yes"/>
      <point x="-166" y="-195"/>
      <point x="-142" y="-187"/>
      <point x="-125" y="-169" type="curve" smooth="yes"/>
      <point x="-109" y="-152"/>
      <point x="-100" y="-129"/>
      <point x="-100" y="-82" type="curve" smooth="yes"/>
      <point x="-100" y="60" type="line"/>
      <point x="-126" y="60" type="line"/>
      <point x="-126" y="-82" type="line" smooth="yes"/>
      <point x="-126" y="-143"/>
      <point x="-144" y="-169"/>
      <point x="-197" y="-169" type="curve" smooth="yes"/>
      <point x="-268" y="-169"/>
      <point x="-320" y="-111"/>
      <point x="-320" y="-55" type="curve" smooth="yes"/>
      <point x="-320" y="-6"/>
      <point x="-287" y="5"/>
      <point x="-218" y="5" type="curve"/>
      <point x="-217" y="31" type="line"/>
      <point x="-220" y="31" type="line"/>
      <point x="-274" y="31"/>
      <point x="-305" y="23"/>
      <point x="-327" y="1" type="curve" smooth="yes"/>
      <point x="-340" y="-12"/>
      <point x="-346" y="-30"/>
      <point x="-346" y="-55" type="curve" smooth="yes"/>
      <point x="-346" y="-131"/>
      <point x="-275" y="-195"/>
    </contour>
    <contour>
      <point x="-364" y="-143" type="curve" smooth="yes"/>
      <point x="-346" y="-143"/>
      <point x="-325" y="-141"/>
      <point x="-309" y="-138" type="curve"/>
      <point x="-320" y="-114" type="line"/>
      <point x="-333" y="-116"/>
      <point x="-348" y="-117"/>
      <point x="-364" y="-117" type="curve" smooth="yes"/>
      <point x="-439" y="-117"/>
      <point x="-485" y="-98"/>
      <point x="-528" y="-72" type="curve"/>
      <point x="-532" y="-97" type="line"/>
      <point x="-493" y="-123"/>
      <point x="-439" y="-143"/>
    </contour>
    <contour>
      <point x="-364" y="-263" type="curve" smooth="yes"/>
      <point x="-291" y="-263"/>
      <point x="-233" y="-242"/>
      <point x="-195" y="-217" type="curve"/>
      <point x="-199" y="-192" type="line"/>
      <point x="-242" y="-218"/>
      <point x="-291" y="-237"/>
      <point x="-364" y="-237" type="curve" smooth="yes"/>
      <point x="-439" y="-237"/>
      <point x="-485" y="-218"/>
      <point x="-528" y="-192" type="curve"/>
      <point x="-532" y="-217" type="line"/>
      <point x="-493" y="-243"/>
      <point x="-439" y="-263"/>
    </contour>
  </outline>
</glyph>
<glyph name="hasubscriptuuguru" format="2">
  <outline>
    <contour>
      <point x="-196" y="-262" type="curve" smooth="yes"/>
      <point x="-166" y="-262"/>
      <point x="-142" y="-254"/>
      <point x="-125" y="-236" type="curve" smooth="yes"/>
      <point x="-109" y="-219"/>
      <point x="-100" y="-196"/>
      <point x="-100" y="-149" type="curve" smooth="yes"/>
      <point x="-100" y="0" type="line"/>
      <point x="-126" y="0" type="line"/>
      <point x="-126" y="-149" type="line" smooth="yes"/>
      <point x="-126" y="-210"/>
      <point x="-144" y="-236"/>
      <point x="-197" y="-236" type="curve" smooth="yes"/>
      <point x="-268" y="-236"/>
      <point x="-320" y="-178"/>
      <point x="-320" y="-122" type="curve" smooth="yes"/>
      <point x="-320" y="-73"/>
      <point x="-287" y="-62"/>
      <point x="-218" y="-62" type="curve"/>
      <point x="-217" y="-36" type="line"/>
      <point x="-220" y="-36" type="line"/>
      <point x="-274" y="-36"/>
      <point x="-305" y="-44"/>
      <point x="-327" y="-66" type="curve" smooth="yes"/>
      <point x="-340" y="-79"/>
      <point x="-346" y="-97"/>
      <point x="-346" y="-122" type="curve" smooth="yes"/>
      <point x="-346" y="-198"/>
      <point x="-273" y="-262"/>
    </contour>
    <contour>
      <point x="-311" y="-254" type="curve" smooth="yes"/>
      <point x="-281" y="-254"/>
      <point x="-253" y="-251"/>
      <point x="-228" y="-245" type="curve"/>
      <point x="-261" y="-225" type="line"/>
      <point x="-276" y="-227"/>
      <point x="-293" y="-228"/>
      <point x="-311" y="-228" type="curve" smooth="yes"/>
      <point x="-389" y="-228"/>
      <point x="-437" y="-209"/>
      <point x="-480" y="-183" type="curve"/>
      <point x="-484" y="-208" type="line"/>
      <point x="-445" y="-234"/>
      <point x="-389" y="-254"/>
    </contour>
    <contour>
      <point x="-311" y="-374" type="curve" smooth="yes"/>
      <point x="-235" y="-374"/>
      <point x="-175" y="-353"/>
      <point x="-137" y="-328" type="curve"/>
      <point x="-141" y="-303" type="line"/>
      <point x="-184" y="-329"/>
      <point x="-235" y="-348"/>
      <point x="-311" y="-348" type="curve" smooth="yes"/>
      <point x="-389" y="-348"/>
      <point x="-437" y="-329"/>
      <point x="-480" y="-303" type="curve"/>
      <point x="-484" y="-328" type="line"/>
      <point x="-445" y="-354"/>
      <point x="-389" y="-374"/>
    </contour>
  </outline>
</glyph>
<glyph name="iimatraaddakguru" format="2">
  <advance width="226"/>
  <outline>
    <contour>
      <point x="100" y="0" type="line"/>
      <point x="126" y="0" type="line"/>
      <point x="126" y="596" type="line"/>
      <point x="233" y="596" type="line"/>
      <point x="233" y="622" type="line"/>
      <point x="126" y="622" type="line"/>
      <point x="126" y="688" type="line" smooth="yes"/>
      <point x="126" y="803"/>
      <point x="97" y="890"/>
      <point x="-11" y="890" type="curve" smooth="yes"/>
      <point x="-89" y="890"/>
      <point x="-145" y="838"/>
      <point x="-145" y="737" type="curve" smooth="yes"/>
      <point x="-145" y="713"/>
      <point x="-142" y="685"/>
      <point x="-137" y="659" type="curve"/>
      <point x="-112" y="661" type="line"/>
      <point x="-116" y="683"/>
      <point x="-119" y="713"/>
      <point x="-119" y="736" type="curve" smooth="yes"/>
      <point x="-119" y="821"/>
      <point x="-77" y="864"/>
      <point x="-11" y="864" type="curve" smooth="yes"/>
      <point x="93" y="864"/>
      <point x="100" y="771"/>
      <point x="100" y="677" type="curve" smooth="yes"/>
      <point x="100" y="622" type="line"/>
      <point x="-7" y="622" type="line"/>
      <point x="-7" y="596" type="line"/>
      <point x="100" y="596" type="line"/>
    </contour>
    <contour>
      <point x="221" y="720" type="curve" smooth="yes"/>
      <point x="295" y="720"/>
      <point x="341" y="779"/>
      <point x="343" y="888" type="curve"/>
      <point x="317" y="890" type="line"/>
      <point x="313" y="797"/>
      <point x="282" y="745"/>
      <point x="221" y="745" type="curve" smooth="yes"/>
      <point x="156" y="745"/>
      <point x="125" y="797"/>
      <point x="121" y="890" type="curve"/>
      <point x="95" y="888" type="line"/>
      <point x="96" y="856"/>
      <point x="101" y="829"/>
      <point x="109" y="805" type="curve" smooth="yes"/>
      <point x="129" y="752"/>
      <point x="167" y="720"/>
    </contour>
  </outline>
</glyph>
<glyph name="kaUIguru" format="2">
  <advance width="582"/>
  <outline>
    <contour>
      <point x="492" y="60" type="curve"/>
      <point x="519" y="60" type="line"/>
      <point x="506" y="166"/>
      <point x="481" y="233"/>
      <point x="445" y="303" type="curve"/>
      <point x="440" y="311" type="line"/>
      <point x="390" y="400"/>
      <point x="317" y="453"/>
      <point x="215" y="453" type="curve" smooth="yes"/>
      <point x="114" y="453"/>
      <point x="43" y="394"/>
      <point x="43" y="290" type="curve" smooth="yes"/>
      <point x="43" y="201"/>
      <point x="101" y="129"/>
      <point x="213" y="129" type="curve" smooth="yes"/>
      <point x="317" y="129"/>
      <point x="397" y="175"/>
      <point x="444" y="271" type="curve"/>
      <point x="449" y="282" type="line"/>
      <point x="473" y="334"/>
      <point x="485" y="400"/>
      <point x="485" y="476" type="curve" smooth="yes"/>
      <point x="485" y="517"/>
      <point x="478" y="562"/>
      <point x="470" y="596" type="curve"/>
      <point x="589" y="596" type="line"/>
      <point x="589" y="622" type="line"/>
      <point x="-7" y="622" type="line"/>
      <point x="-7" y="596" type="line"/>
      <point x="443" y="596" type="line"/>
      <point x="453" y="562"/>
      <point x="459" y="507"/>
      <point x="459" y="476" type="curve" smooth="yes"/>
      <point x="459" y="410"/>
      <point x="451" y="354"/>
      <point x="433" y="307" type="curve"/>
      <point x="427" y="293" type="line"/>
      <point x="385" y="200"/>
      <point x="313" y="155"/>
      <point x="213" y="155" type="curve" smooth="yes"/>
      <point x="129" y="155"/>
      <point x="71" y="202"/>
      <point x="71" y="290" type="curve" smooth="yes"/>
      <point x="71" y="377"/>
      <point x="125" y="427"/>
      <point x="215" y="427" type="curve" smooth="yes"/>
      <point x="313" y="427"/>
      <point x="382" y="372"/>
      <point x="428" y="281" type="curve"/>
      <point x="433" y="271" type="line"/>
      <point x="459" y="214"/>
      <point x="479" y="150"/>
    </contour>
  </outline>
</glyph>
<glyph name="karaguru" format="2">
  <advance width="582"/>
  <outline>
    <contour>
      <point x="385" y="-248" type="curve"/>
      <point x="406" y="-232" type="line"/>
      <point x="362" y="-176"/>
      <point x="309" y="-135"/>
      <point x="253" y="-109" type="curve"/>
      <point x="261" y="-90"/>
      <point x="264" y="-69"/>
      <point x="264" y="-17" type="curve" smooth="yes"/>
      <point x="264" y="146" type="line"/>
      <point x="238" y="146" type="line"/>
      <point x="238" y="-45" type="line" smooth="yes"/>
      <point x="238" y="-77"/>
      <point x="233" y="-95"/>
      <point x="230" y="-100" type="curve"/>
      <point x="217" y="-96"/>
      <point x="198" y="-91"/>
      <point x="170" y="-91" type="curve" smooth="yes"/>
      <point x="122" y="-91"/>
      <point x="106" y="-104"/>
      <point x="106" y="-120" type="curve" smooth="yes"/>
      <point x="106" y="-139"/>
      <point x="124" y="-149"/>
      <point x="163" y="-149" type="curve" smooth="yes"/>
      <point x="193" y="-149"/>
      <point x="218" y="-142"/>
      <point x="237" y="-129" type="curve"/>
      <point x="293" y="-155"/>
      <point x="343" y="-195"/>
    </contour>
    <component base="kaguru"/>
  </outline>
</glyph>
<glyph name="laUIguru" format="2">
  <advance width="648"/>
  <outline>
    <contour>
      <point x="319" y="309" type="curve"/>
      <point x="424" y="366"/>
      <point x="495" y="477"/>
      <point x="515" y="596" type="curve"/>
      <point x="645" y="596" type="line"/>
      <point x="645" y="622" type="line"/>
      <point x="-7" y="622" type="line"/>
      <point x="-7" y="596" type="line"/>
      <point x="123" y="596" type="line"/>
      <point x="143" y="477"/>
      <point x="214" y="366"/>
    </contour>
    <contour>
      <point x="488" y="596" type="line"/>
      <point x="470" y="469"/>
      <point x="396" y="380"/>
      <point x="315" y="334" type="curve"/>
      <point x="323" y="334" type="line"/>
      <point x="242" y="380"/>
      <point x="168" y="469"/>
      <point x="149" y="596" type="curve"/>
    </contour>
    <contour>
      <point x="48" y="225" type="curve" smooth="yes"/>
      <point x="48" y="128"/>
      <point x="107" y="56"/>
      <point x="228" y="56" type="curve" smooth="yes"/>
      <point x="236" y="56" type="line"/>
      <point x="237" y="82" type="line"/>
      <point x="227" y="82" type="line" smooth="yes"/>
      <point x="138" y="82"/>
      <point x="75" y="131"/>
      <point x="75" y="225" type="curve" smooth="yes"/>
      <point x="75" y="300"/>
      <point x="118" y="358"/>
      <point x="216" y="404" type="curve"/>
      <point x="201" y="423" type="line"/>
      <point x="98" y="378"/>
      <point x="48" y="310"/>
    </contour>
    <contour>
      <point x="590" y="225" type="curve" smooth="yes"/>
      <point x="590" y="310"/>
      <point x="540" y="378"/>
      <point x="437" y="423" type="curve"/>
      <point x="421" y="404" type="line"/>
      <point x="520" y="358"/>
      <point x="563" y="300"/>
      <point x="563" y="225" type="curve" smooth="yes"/>
      <point x="563" y="131"/>
      <point x="500" y="82"/>
      <point x="411" y="82" type="curve" smooth="yes"/>
      <point x="401" y="82" type="line"/>
      <point x="402" y="56" type="line"/>
      <point x="410" y="56" type="line" smooth="yes"/>
      <point x="531" y="56"/>
      <point x="590" y="128"/>
    </contour>
  </outline>
</glyph>
<glyph name="oobindiguru" format="2">
  <advance width="617"/>
  <outline>
    <contour>
      <point x="332" y="0" type="curve" smooth="yes"/>
      <point x="441" y="0"/>
      <point x="508" y="59"/>
      <point x="508" y="168" type="curve" smooth="yes"/>
      <point x="508" y="269"/>
      <point x="448" y="331"/>
      <point x="338" y="345" type="curve"/>
      <point x="336" y="341" type="line"/>
      <point x="473" y="351"/>
      <point x="574" y="408"/>
      <point x="574" y="586" type="curve"/>
      <point x="574" y="605" type="line"/>
      <point x="548" y="600" type="line"/>
      <point x="548" y="578" type="line"/>
      <point x="548" y="486"/>
      <point x="516" y="432"/>
      <point x="462" y="400" type="curve" smooth="yes"/>
      <point x="416" y="372"/>
      <point x="358" y="359"/>
      <point x="245" y="359" type="curve" smooth="yes"/>
      <point x="88" y="359" type="line"/>
      <point x="98" y="333" type="line"/>
      <point x="238" y="333" type="line" smooth="yes"/>
      <point x="323" y="333"/>
      <point x="367" y="323"/>
      <point x="403" y="304" type="curve" smooth="yes"/>
      <point x="456" y="276"/>
      <point x="481" y="234"/>
      <point x="481" y="167" type="curve" smooth="yes"/>
      <point x="481" y="74"/>
      <point x="424" y="26"/>
      <point x="331" y="26" type="curve" smooth="yes"/>
      <point x="202" y="26"/>
      <point x="101" y="130"/>
      <point x="101" y="419" type="curve" smooth="yes"/>
      <point x="101" y="585"/>
      <point x="136" y="701"/>
      <point x="219" y="762" type="curve" smooth="yes"/>
      <point x="265" y="797"/>
      <point x="319" y="814"/>
      <point x="433" y="814" type="curve" smooth="yes"/>
      <point x="519" y="814" type="line"/>
      <point x="521" y="840" type="line"/>
      <point x="435" y="840" type="line" smooth="yes"/>
      <point x="315" y="840"/>
      <point x="256" y="822"/>
      <point x="202" y="782" type="curve" smooth="yes"/>
      <point x="117" y="719"/>
      <point x="74" y="602"/>
      <point x="74" y="419" type="curve" smooth="yes"/>
      <point x="74" y="123"/>
      <point x="181" y="0"/>
    </contour>
    <contour>
      <point x="-7" y="596" type="line"/>
      <point x="634" y="596" type="line"/>
      <point x="634" y="622" type="line"/>
      <point x="-7" y="622" type="line"/>
    </contour>
    <contour>
      <point x="564" y="693" type="curve" smooth="yes"/>
      <point x="581" y="693"/>
      <point x="594" y="705"/>
      <point x="594" y="731" type="curve" smooth="yes"/>
      <point x="594" y="754"/>
      <point x="583" y="769"/>
      <point x="564" y="769" type="curve" smooth="yes"/>
      <point x="546" y="769"/>
      <point x="533" y="755"/>
      <point x="533" y="731" type="curve" smooth="yes"/>
      <point x="533" y="706"/>
      <point x="548" y="693"/>
    </contour>
  </outline>
</glyph>
<glyph name="oomatraaddakaltguru" format="2">
  <advance width="14"/>
  <outline>
    <contour>
      <point x="21" y="596" type="line"/>
      <point x="21" y="622" type="line"/>
      <point x="-7" y="622" type="line"/>
      <point x="-7" y="596" type="line"/>
    </contour>
    <component base="oomatraaddakguru"/>
  </outline>
</glyph>
<glyph name="oomatraaddakguru" format="2">
  <outline>
    <contour>
      <point x="-126" y="615" type="curve"/>
      <point x="-100" y="615" type="line"/>
      <point x="-113" y="747"/>
      <point x="-160" y="785"/>
      <point x="-229" y="785" type="curve" smooth="yes"/>
      <point x="-253" y="785"/>
      <point x="-286" y="781"/>
      <point x="-304" y="781" type="curve" smooth="yes"/>
      <point x="-363" y="781"/>
      <point x="-382" y="809"/>
      <point x="-409" y="890" type="curve"/>
      <point x="-434" y="883" type="line"/>
      <point x="-404" y="795"/>
      <point x="-377" y="755"/>
      <point x="-304" y="755" type="curve" smooth="yes"/>
      <point x="-282" y="755"/>
      <point x="-255" y="759"/>
      <point x="-229" y="759" type="curve" smooth="yes"/>
      <point x="-164" y="759"/>
      <point x="-135" y="713"/>
    </contour>
    <contour>
      <point x="-38" y="696" type="curve" smooth="yes"/>
      <point x="36" y="696"/>
      <point x="82" y="755"/>
      <point x="84" y="864" type="curve"/>
      <point x="58" y="866" type="line"/>
      <point x="54" y="773"/>
      <point x="23" y="721"/>
      <point x="-38" y="721" type="curve" smooth="yes"/>
      <point x="-103" y="721"/>
      <point x="-134" y="773"/>
      <point x="-138" y="866" type="curve"/>
      <point x="-164" y="864" type="line"/>
      <point x="-162" y="755"/>
      <point x="-113" y="696"/>
    </contour>
  </outline>
</glyph>
<glyph name="oomatrabindi1guru" format="2">
  <outline>
    <contour>
      <point x="-126" y="615" type="curve"/>
      <point x="-100" y="615" type="line"/>
      <point x="-108" y="753"/>
      <point x="-154" y="785"/>
      <point x="-214" y="785" type="curve" smooth="yes"/>
      <point x="-235" y="785"/>
      <point x="-264" y="781"/>
      <point x="-280" y="781" type="curve" smooth="yes"/>
      <point x="-334" y="781"/>
      <point x="-349" y="809"/>
      <point x="-372" y="890" type="curve"/>
      <point x="-397" y="883" type="line"/>
      <point x="-371" y="795"/>
      <point x="-347" y="755"/>
      <point x="-283" y="755" type="curve" smooth="yes"/>
      <point x="-263" y="755"/>
      <point x="-240" y="759"/>
      <point x="-217" y="759" type="curve" smooth="yes"/>
      <point x="-154" y="759"/>
      <point x="-134" y="718"/>
    </contour>
    <contour>
      <point x="-115" y="814" type="curve" smooth="yes"/>
      <point x="-98" y="814"/>
      <point x="-85" y="826"/>
      <point x="-85" y="852" type="curve" smooth="yes"/>
      <point x="-85" y="875"/>
      <point x="-96" y="890"/>
      <point x="-115" y="890" type="curve" smooth="yes"/>
      <point x="-133" y="890"/>
      <point x="-146" y="876"/>
      <point x="-146" y="852" type="curve" smooth="yes"/>
      <point x="-146" y="827"/>
      <point x="-131" y="814"/>
    </contour>
  </outline>
</glyph>
<glyph name="oomatrabindiguru" format="2">
  <outline>
    <contour>
      <point x="-126" y="615" type="curve"/>
      <point x="-100" y="615" type="line"/>
      <point x="-109" y="753"/>
      <point x="-160" y="785"/>
      <point x="-229" y="785" type="curve" smooth="yes"/>
      <point x="-253" y="785"/>
      <point x="-286" y="781"/>
      <point x="-304" y="781" type="curve" smooth="yes"/>
      <point x="-363" y="781"/>
      <point x="-382" y="809"/>
      <point x="-409" y="890" type="curve"/>
      <point x="-434" y="883" type="line"/>
      <point x="-404" y="795"/>
      <point x="-377" y="755"/>
      <point x="-304" y="755" type="curve" smooth="yes"/>
      <point x="-282" y="755"/>
      <point x="-255" y="759"/>
      <point x="-229" y="759" type="curve" smooth="yes"/>
      <point x="-161" y="759"/>
      <point x="-135" y="718"/>
    </contour>
    <contour>
      <point x="-115" y="814" type="curve" smooth="yes"/>
      <point x="-98" y="814"/>
      <point x="-85" y="826"/>
      <point x="-85" y="852" type="curve" smooth="yes"/>
      <point x="-85" y="875"/>
      <point x="-96" y="890"/>
      <point x="-115" y="890" type="curve" smooth="yes"/>
      <point x="-133" y="890"/>
      <point x="-146" y="876"/>
      <point x="-146" y="852" type="curve" smooth="yes"/>
      <point x="-146" y="827"/>
      <point x="-131" y="814"/>
    </contour>
  </outline>
</glyph>
<glyph name="phuunuktaUIguru" format="2">
  <advance width="537"/>
  <outline>
    <contour>
      <point x="317" y="-143" type="curve" smooth="yes"/>
      <point x="390" y="-143"/>
      <point x="448" y="-122"/>
      <point x="486" y="-97" type="curve"/>
      <point x="482" y="-72" type="line"/>
      <point x="439" y="-98"/>
      <point x="390" y="-117"/>
      <point x="317" y="-117" type="curve" smooth="yes"/>
      <point x="242" y="-117"/>
      <point x="196" y="-98"/>
      <point x="153" y="-72" type="curve"/>
      <point x="149" y="-97" type="line"/>
      <point x="188" y="-123"/>
      <point x="242" y="-143"/>
    </contour>
    <contour>
      <point x="317" y="-263" type="curve" smooth="yes"/>
      <point x="390" y="-263"/>
      <point x="448" y="-242"/>
      <point x="486" y="-217" type="curve"/>
      <point x="482" y="-192" type="line"/>
      <point x="439" y="-218"/>
      <point x="390" y="-237"/>
      <point x="317" y="-237" type="curve" smooth="yes"/>
      <point x="242" y="-237"/>
      <point x="196" y="-218"/>
      <point x="153" y="-192" type="curve"/>
      <point x="149" y="-217" type="line"/>
      <point x="188" y="-243"/>
      <point x="242" y="-263"/>
    </contour>
    <component base="phaguru"/>
    <component base="nuktaguru" xOffset="370" yOffset="95"/>
  </outline>
</glyph>
<glyph name="raUIguru" format="2">
  <advance width="526"/>
  <outline>
    <contour>
      <point x="307" y="53" type="curve" smooth="yes"/>
      <point x="404" y="53"/>
      <point x="426" y="113"/>
      <point x="426" y="196" type="curve" smooth="yes"/>
      <point x="426" y="596" type="line"/>
      <point x="533" y="596" type="line"/>
      <point x="533" y="622" type="line"/>
      <point x="-7" y="622" type="line"/>
      <point x="-7" y="596" type="line"/>
      <point x="400" y="596" type="line"/>
      <point x="400" y="418" type="line"/>
      <point x="218" y="418" type="line" smooth="yes"/>
      <point x="145" y="418"/>
      <point x="110" y="405"/>
      <point x="83" y="381" type="curve" smooth="yes"/>
      <point x="59" y="360"/>
      <point x="46" y="330"/>
      <point x="46" y="291" type="curve" smooth="yes"/>
      <point x="46" y="179"/>
      <point x="180" y="53"/>
    </contour>
    <contour>
      <point x="306" y="79" type="curve" smooth="yes"/>
      <point x="196" y="79"/>
      <point x="73" y="192"/>
      <point x="73" y="291" type="curve" smooth="yes"/>
      <point x="73" y="322"/>
      <point x="83" y="345"/>
      <point x="102" y="363" type="curve" smooth="yes"/>
      <point x="123" y="382"/>
      <point x="154" y="392"/>
      <point x="222" y="392" type="curve" smooth="yes"/>
      <point x="400" y="392" type="line"/>
      <point x="400" y="207" type="line" smooth="yes"/>
      <point x="400" y="157"/>
      <point x="395" y="124"/>
      <point x="376" y="103" type="curve" smooth="yes"/>
      <point x="364" y="90"/>
      <point x="347" y="79"/>
    </contour>
  </outline>
</glyph>
<glyph name="rasubscriptguru" format="2">
  <outline>
    <contour>
      <point x="21" y="-248" type="curve"/>
      <point x="42" y="-232" type="line"/>
      <point x="-2" y="-176"/>
      <point x="-55" y="-135"/>
      <point x="-111" y="-109" type="curve"/>
      <point x="-103" y="-90"/>
      <point x="-100" y="-69"/>
      <point x="-100" y="-17" type="curve" smooth="yes"/>
      <point x="-100" y="0" type="line"/>
      <point x="-126" y="0" type="line"/>
      <point x="-126" y="-45" type="line" smooth="yes"/>
      <point x="-126" y="-77"/>
      <point x="-131" y="-95"/>
      <point x="-134" y="-100" type="curve"/>
      <point x="-147" y="-96"/>
      <point x="-166" y="-91"/>
      <point x="-194" y="-91" type="curve" smooth="yes"/>
      <point x="-242" y="-91"/>
      <point x="-258" y="-104"/>
      <point x="-258" y="-120" type="curve" smooth="yes"/>
      <point x="-258" y="-139"/>
      <point x="-240" y="-149"/>
      <point x="-201" y="-149" type="curve" smooth="yes"/>
      <point x="-171" y="-149"/>
      <point x="-146" y="-142"/>
      <point x="-127" y="-129" type="curve"/>
      <point x="-71" y="-155"/>
      <point x="-21" y="-195"/>
    </contour>
  </outline>
</glyph>
<glyph name="rasubscripthalantguru" format="2">
  <outline>
    <contour>
      <point x="21" y="-226" type="curve"/>
      <point x="42" y="-210" type="line"/>
      <point x="-2" y="-154"/>
      <point x="-55" y="-113"/>
      <point x="-111" y="-87" type="curve"/>
      <point x="-103" y="-68"/>
      <point x="-100" y="-47"/>
      <point x="-100" y="-3" type="curve" smooth="yes"/>
      <point x="-100" y="0" type="line"/>
      <point x="-126" y="0" type="line"/>
      <point x="-126" y="-23" type="line" smooth="yes"/>
      <point x="-126" y="-55"/>
      <point x="-131" y="-73"/>
      <point x="-134" y="-78" type="curve"/>
      <point x="-147" y="-74"/>
      <point x="-166" y="-69"/>
      <point x="-194" y="-69" type="curve" smooth="yes"/>
      <point x="-242" y="-69"/>
      <point x="-258" y="-82"/>
      <point x="-258" y="-98" type="curve" smooth="yes"/>
      <point x="-258" y="-117"/>
      <point x="-240" y="-127"/>
      <point x="-201" y="-127" type="curve" smooth="yes"/>
      <point x="-171" y="-127"/>
      <point x="-146" y="-120"/>
      <point x="-127" y="-107" type="curve"/>
      <point x="-71" y="-133"/>
      <point x="-21" y="-173"/>
    </contour>
    <contour>
      <point x="66" y="-394" type="curve"/>
      <point x="91" y="-386" type="line"/>
      <point x="37" y="-241"/>
      <point x="-66" y="-207"/>
      <point x="-158" y="-207" type="curve" smooth="yes"/>
      <point x="-164" y="-207"/>
      <point x="-172" y="-207"/>
      <point x="-181" y="-208" type="curve"/>
      <point x="-179" y="-234" type="line"/>
      <point x="-169" y="-233"/>
      <point x="-162" y="-233"/>
      <point x="-158" y="-233" type="curve" smooth="yes"/>
      <point x="-81" y="-233"/>
      <point x="15" y="-259"/>
    </contour>
  </outline>
</glyph>
<glyph name="rasubscriptuUIguru" format="2">
  <outline>
    <contour>
      <point x="21" y="-238" type="curve"/>
      <point x="42" y="-222" type="line"/>
      <point x="-2" y="-166"/>
      <point x="-55" y="-125"/>
      <point x="-111" y="-99" type="curve"/>
      <point x="-103" y="-80"/>
      <point x="-100" y="-59"/>
      <point x="-100" y="0" type="curve"/>
      <point x="-126" y="0" type="line"/>
      <point x="-126" y="-35" type="line" smooth="yes"/>
      <point x="-126" y="-67"/>
      <point x="-131" y="-85"/>
      <point x="-134" y="-90" type="curve"/>
      <point x="-147" y="-86"/>
      <point x="-166" y="-81"/>
      <point x="-194" y="-81" type="curve" smooth="yes"/>
      <point x="-242" y="-81"/>
      <point x="-258" y="-94"/>
      <point x="-258" y="-110" type="curve" smooth="yes"/>
      <point x="-258" y="-129"/>
      <point x="-240" y="-139"/>
      <point x="-201" y="-139" type="curve" smooth="yes"/>
      <point x="-171" y="-139"/>
      <point x="-146" y="-132"/>
      <point x="-127" y="-119" type="curve"/>
      <point x="-71" y="-145"/>
      <point x="-21" y="-185"/>
    </contour>
    <contour>
      <point x="-281" y="-260" type="curve" smooth="yes"/>
      <point x="-205" y="-260"/>
      <point x="-145" y="-239"/>
      <point x="-107" y="-214" type="curve"/>
      <point x="-111" y="-189" type="line"/>
      <point x="-154" y="-215"/>
      <point x="-205" y="-234"/>
      <point x="-281" y="-234" type="curve" smooth="yes"/>
      <point x="-359" y="-234"/>
      <point x="-407" y="-215"/>
      <point x="-450" y="-189" type="curve"/>
      <point x="-454" y="-214" type="line"/>
      <point x="-415" y="-240"/>
      <point x="-359" y="-260"/>
    </contour>
  </outline>
</glyph>
<glyph name="rasubscriptuuUIguru" format="2">
  <outline>
    <contour>
      <point x="21" y="-146" type="curve"/>
      <point x="42" y="-130" type="line"/>
      <point x="-2" y="-74"/>
      <point x="-55" y="-33"/>
      <point x="-111" y="-7" type="curve"/>
      <point x="-103" y="12"/>
      <point x="-100" y="33"/>
      <point x="-100" y="60" type="curve"/>
      <point x="-126" y="60" type="line"/>
      <point x="-126" y="56" type="line" smooth="yes"/>
      <point x="-126" y="25"/>
      <point x="-131" y="7"/>
      <point x="-134" y="2" type="curve"/>
      <point x="-147" y="6"/>
      <point x="-166" y="11"/>
      <point x="-194" y="11" type="curve" smooth="yes"/>
      <point x="-242" y="11"/>
      <point x="-258" y="-2"/>
      <point x="-258" y="-18" type="curve" smooth="yes"/>
      <point x="-258" y="-37"/>
      <point x="-240" y="-47"/>
      <point x="-201" y="-47" type="curve" smooth="yes"/>
      <point x="-171" y="-47"/>
      <point x="-146" y="-40"/>
      <point x="-127" y="-27" type="curve"/>
      <point x="-71" y="-53"/>
      <point x="-21" y="-93"/>
    </contour>
    <contour>
      <point x="-281" y="-151" type="curve" smooth="yes"/>
      <point x="-205" y="-151"/>
      <point x="-145" y="-130"/>
      <point x="-107" y="-105" type="curve"/>
      <point x="-111" y="-80" type="line"/>
      <point x="-154" y="-106"/>
      <point x="-205" y="-125"/>
      <point x="-281" y="-125" type="curve" smooth="yes"/>
      <point x="-359" y="-125"/>
      <point x="-407" y="-106"/>
      <point x="-450" y="-80" type="curve"/>
      <point x="-454" y="-105" type="line"/>
      <point x="-415" y="-131"/>
      <point x="-359" y="-151"/>
    </contour>
    <contour>
      <point x="-281" y="-271" type="curve" smooth="yes"/>
      <point x="-205" y="-271"/>
      <point x="-145" y="-250"/>
      <point x="-107" y="-225" type="curve"/>
      <point x="-111" y="-200" type="line"/>
      <point x="-154" y="-226"/>
      <point x="-205" y="-245"/>
      <point x="-281" y="-245" type="curve" smooth="yes"/>
      <point x="-359" y="-245"/>
      <point x="-407" y="-226"/>
      <point x="-450" y="-200" type="curve"/>
      <point x="-454" y="-225" type="line"/>
      <point x="-415" y="-251"/>
      <point x="-359" y="-271"/>
    </contour>
  </outline>
</glyph>
<glyph name="rasubscriptuuguru" format="2">
  <outline>
    <contour>
      <point x="21" y="-238" type="curve"/>
      <point x="42" y="-222" type="line"/>
      <point x="-2" y="-166"/>
      <point x="-55" y="-125"/>
      <point x="-111" y="-99" type="curve"/>
      <point x="-103" y="-80"/>
      <point x="-100" y="-59"/>
      <point x="-100" y="-7" type="curve" smooth="yes"/>
      <point x="-100" y="0" type="line"/>
      <point x="-126" y="0" type="line"/>
      <point x="-126" y="-35" type="line" smooth="yes"/>
      <point x="-126" y="-67"/>
      <point x="-131" y="-85"/>
      <point x="-134" y="-90" type="curve"/>
      <point x="-147" y="-86"/>
      <point x="-166" y="-81"/>
      <point x="-194" y="-81" type="curve" smooth="yes"/>
      <point x="-242" y="-81"/>
      <point x="-258" y="-94"/>
      <point x="-258" y="-110" type="curve" smooth="yes"/>
      <point x="-258" y="-129"/>
      <point x="-240" y="-139"/>
      <point x="-201" y="-139" type="curve" smooth="yes"/>
      <point x="-171" y="-139"/>
      <point x="-146" y="-132"/>
      <point x="-127" y="-119" type="curve"/>
      <point x="-71" y="-145"/>
      <point x="-21" y="-185"/>
    </contour>
    <contour>
      <point x="-281" y="-254" type="curve" smooth="yes"/>
      <point x="-205" y="-254"/>
      <point x="-145" y="-233"/>
      <point x="-107" y="-208" type="curve"/>
      <point x="-111" y="-183" type="line"/>
      <point x="-154" y="-209"/>
      <point x="-205" y="-228"/>
      <point x="-281" y="-228" type="curve" smooth="yes"/>
      <point x="-359" y="-228"/>
      <point x="-407" y="-209"/>
      <point x="-450" y="-183" type="curve"/>
      <point x="-454" y="-208" type="line"/>
      <point x="-415" y="-234"/>
      <point x="-359" y="-254"/>
    </contour>
    <contour>
      <point x="-281" y="-374" type="curve" smooth="yes"/>
      <point x="-205" y="-374"/>
      <point x="-145" y="-353"/>
      <point x="-107" y="-328" type="curve"/>
      <point x="-111" y="-303" type="line"/>
      <point x="-154" y="-329"/>
      <point x="-205" y="-348"/>
      <point x="-281" y="-348" type="curve" smooth="yes"/>
      <point x="-359" y="-348"/>
      <point x="-407" y="-329"/>
      <point x="-450" y="-303" type="curve"/>
      <point x="-454" y="-328" type="line"/>
      <point x="-415" y="-354"/>
      <point x="-359" y="-374"/>
    </contour>
  </outline>
</glyph>
<glyph name="sanuktaUIguru" format="2">
  <advance width="549"/>
  <outline>
    <contour>
      <point x="423" y="56" type="line"/>
      <point x="449" y="56" type="line"/>
      <point x="449" y="596" type="line"/>
      <point x="556" y="596" type="line"/>
      <point x="556" y="622" type="line"/>
      <point x="-7" y="622" type="line"/>
      <point x="-7" y="596" type="line"/>
      <point x="83" y="596" type="line"/>
      <point x="69" y="612" type="line"/>
      <point x="101" y="531"/>
      <point x="128" y="409"/>
      <point x="129" y="321" type="curve"/>
      <point x="101" y="274"/>
      <point x="68" y="199"/>
      <point x="68" y="157" type="curve" smooth="yes"/>
      <point x="68" y="142"/>
      <point x="73" y="132"/>
      <point x="84" y="132" type="curve" smooth="yes"/>
      <point x="112" y="132"/>
      <point x="145" y="208"/>
      <point x="154" y="311" type="curve"/>
      <point x="423" y="311" type="line"/>
    </contour>
    <contour>
      <point x="155" y="337" type="line"/>
      <point x="153" y="414"/>
      <point x="129" y="524"/>
      <point x="96" y="613" type="curve"/>
      <point x="87" y="596" type="line"/>
      <point x="423" y="596" type="line"/>
      <point x="423" y="337" type="line"/>
    </contour>
    <contour>
      <point x="250" y="56" type="curve" smooth="yes"/>
      <point x="267" y="56"/>
      <point x="280" y="68"/>
      <point x="280" y="94" type="curve" smooth="yes"/>
      <point x="280" y="117"/>
      <point x="269" y="132"/>
      <point x="250" y="132" type="curve" smooth="yes"/>
      <point x="232" y="132"/>
      <point x="219" y="118"/>
      <point x="219" y="94" type="curve" smooth="yes"/>
      <point x="219" y="69"/>
      <point x="234" y="56"/>
    </contour>
  </outline>
</glyph>
<glyph name="taUIguru" format="2">
  <advance width="517"/>
  <outline>
    <contour>
      <point x="234" y="39" type="curve" smooth="yes"/>
      <point x="369" y="39"/>
      <point x="452" y="99"/>
      <point x="452" y="211" type="curve" smooth="yes"/>
      <point x="452" y="290"/>
      <point x="407" y="346"/>
      <point x="323" y="384" type="curve"/>
      <point x="402" y="418"/>
      <point x="427" y="481"/>
      <point x="427" y="539" type="curve" smooth="yes"/>
      <point x="427" y="558"/>
      <point x="424" y="588"/>
      <point x="417" y="605" type="curve"/>
      <point x="410" y="596" type="line"/>
      <point x="524" y="596" type="line"/>
      <point x="524" y="622" type="line"/>
      <point x="-7" y="622" type="line"/>
      <point x="-7" y="596" type="line"/>
      <point x="401" y="596" type="line"/>
      <point x="389" y="605" type="line"/>
      <point x="397" y="590"/>
      <point x="401" y="561"/>
      <point x="401" y="539" type="curve" smooth="yes"/>
      <point x="401" y="478"/>
      <point x="369" y="425"/>
      <point x="293" y="396" type="curve"/>
      <point x="265" y="404"/>
      <point x="205" y="412"/>
      <point x="154" y="412" type="curve" smooth="yes"/>
      <point x="110" y="412"/>
      <point x="82" y="406"/>
      <point x="82" y="389" type="curve" smooth="yes"/>
      <point x="82" y="370"/>
      <point x="116" y="363"/>
      <point x="175" y="363" type="curve" smooth="yes"/>
      <point x="206" y="363"/>
      <point x="242" y="365"/>
      <point x="288" y="371" type="curve"/>
      <point x="359" y="349"/>
      <point x="425" y="301"/>
      <point x="425" y="211" type="curve" smooth="yes"/>
      <point x="425" y="111"/>
      <point x="349" y="65"/>
      <point x="233" y="65" type="curve" smooth="yes"/>
      <point x="155" y="65"/>
      <point x="85" y="92"/>
      <point x="26" y="132" type="curve"/>
      <point x="15" y="109" type="line"/>
      <point x="66" y="73"/>
      <point x="145" y="39"/>
    </contour>
  </outline>
</glyph>
<glyph name="uaddakaltguru" format="2">
  <advance width="682"/>
  <outline>
    <contour>
      <point x="688" y="596" type="line"/>
      <point x="688" y="622" type="line"/>
      <point x="629" y="622" type="line"/>
      <point x="629" y="596" type="line"/>
    </contour>
    <component base="uraaddakguru"/>
    <component base="umatraguru" xOffset="584"/>
  </outline>
</glyph>
<glyph name="udaatUIguru" format="2">
  <outline>
    <contour>
      <point x="85" y="-267" type="curve"/>
      <point x="92" y="-243" type="line"/>
      <point x="-17" y="-222"/>
      <point x="-63" y="-148"/>
      <point x="-97" y="-31" type="curve"/>
      <point x="-122" y="-39" type="line"/>
      <point x="-89" y="-168"/>
      <point x="-20" y="-253"/>
    </contour>
  </outline>
</glyph>
<glyph name="udaathalantguru" format="2">
  <outline>
    <contour>
      <point x="85" y="-247" type="curve"/>
      <point x="92" y="-223" type="line"/>
      <point x="-16" y="-198"/>
      <point x="-69" y="-128"/>
      <point x="-97" y="-31" type="curve"/>
      <point x="-122" y="-39" type="line"/>
      <point x="-94" y="-148"/>
      <point x="-23" y="-225"/>
    </contour>
    <contour>
      <point x="74" y="-398" type="curve"/>
      <point x="99" y="-390" type="line"/>
      <point x="49" y="-270"/>
      <point x="-32" y="-225"/>
      <point x="-118" y="-225" type="curve" smooth="yes"/>
      <point x="-124" y="-225"/>
      <point x="-132" y="-225"/>
      <point x="-141" y="-226" type="curve"/>
      <point x="-139" y="-252" type="line"/>
      <point x="-129" y="-251"/>
      <point x="-122" y="-251"/>
      <point x="-118" y="-251" type="curve" smooth="yes"/>
      <point x="-47" y="-251"/>
      <point x="27" y="-287"/>
    </contour>
  </outline>
</glyph>
<glyph name="udaatuUIguru" format="2">
  <outline>
    <contour>
      <point x="85" y="-267" type="curve"/>
      <point x="92" y="-243" type="line"/>
      <point x="-17" y="-222"/>
      <point x="-63" y="-148"/>
      <point x="-97" y="-31" type="curve"/>
      <point x="-122" y="-39" type="line"/>
      <point x="-89" y="-168"/>
      <point x="-20" y="-253"/>
    </contour>
    <contour>
      <point x="-305" y="-256" type="curve" smooth="yes"/>
      <point x="-226" y="-256"/>
      <point x="-162" y="-231"/>
      <point x="-122" y="-205" type="curve"/>
      <point x="-127" y="-184" type="line"/>
      <point x="-172" y="-210"/>
      <point x="-228" y="-232"/>
      <point x="-305" y="-232" type="curve" smooth="yes"/>
      <point x="-384" y="-232"/>
      <point x="-437" y="-210"/>
      <point x="-482" y="-184" type="curve"/>
      <point x="-487" y="-205" type="line"/>
      <point x="-446" y="-233"/>
      <point x="-388" y="-256"/>
    </contour>
  </outline>
</glyph>
<glyph name="udaatuguru" format="2">
  <outline>
    <contour>
      <point x="142" y="-281" type="curve"/>
      <point x="144" y="-255" type="line"/>
      <point x="139" y="-256"/>
      <point x="133" y="-256"/>
      <point x="128" y="-256" type="curve" smooth="yes"/>
      <point x="11" y="-256"/>
      <point x="-54" y="-193"/>
      <point x="-97" y="-31" type="curve"/>
      <point x="-122" y="-39" type="line"/>
      <point x="-79" y="-208"/>
      <point x="-2" y="-282"/>
      <point x="127" y="-282" type="curve" smooth="yes"/>
      <point x="130" y="-282"/>
      <point x="137" y="-282"/>
    </contour>
    <contour>
      <point x="-281" y="-276" type="curve" smooth="yes"/>
      <point x="-205" y="-276"/>
      <point x="-145" y="-255"/>
      <point x="-107" y="-230" type="curve"/>
      <point x="-111" y="-205" type="line"/>
      <point x="-154" y="-231"/>
      <point x="-205" y="-250"/>
      <point x="-281" y="-250" type="curve" smooth="yes"/>
      <point x="-359" y="-250"/>
      <point x="-407" y="-231"/>
      <point x="-450" y="-205" type="curve"/>
      <point x="-454" y="-230" type="line"/>
      <point x="-415" y="-256"/>
      <point x="-359" y="-276"/>
    </contour>
  </outline>
</glyph>
<glyph name="udaatuuUIguru" format="2">
  <outline>
    <contour>
      <point x="90" y="-249" type="curve"/>
      <point x="97" y="-225" type="line"/>
      <point x="-12" y="-204"/>
      <point x="-58" y="-130"/>
      <point x="-92" y="-13" type="curve"/>
      <point x="-117" y="-21" type="line"/>
      <point x="-84" y="-150"/>
      <point x="-15" y="-235"/>
    </contour>
    <contour>
      <point x="-277" y="-147" type="curve" smooth="yes"/>
      <point x="-212" y="-147"/>
      <point x="-154" y="-126"/>
      <point x="-116" y="-101" type="curve"/>
      <point x="-120" y="-76" type="line"/>
      <point x="-163" y="-102"/>
      <point x="-212" y="-121"/>
      <point x="-277" y="-121" type="curve" smooth="yes"/>
      <point x="-344" y="-121"/>
      <point x="-390" y="-102"/>
      <point x="-433" y="-76" type="curve"/>
      <point x="-437" y="-101" type="line"/>
      <point x="-398" y="-127"/>
      <point x="-344" y="-147"/>
    </contour>
    <contour>
      <point x="-277" y="-267" type="curve" smooth="yes"/>
      <point x="-212" y="-267"/>
      <point x="-154" y="-246"/>
      <point x="-116" y="-221" type="curve"/>
      <point x="-120" y="-196" type="line"/>
      <point x="-163" y="-222"/>
      <point x="-212" y="-241"/>
      <point x="-277" y="-241" type="curve" smooth="yes"/>
      <point x="-344" y="-241"/>
      <point x="-390" y="-222"/>
      <point x="-433" y="-196" type="curve"/>
      <point x="-437" y="-221" type="line"/>
      <point x="-398" y="-247"/>
      <point x="-344" y="-267"/>
    </contour>
  </outline>
</glyph>
<glyph name="udaatuuguru" format="2">
  <outline>
    <contour>
      <point x="85" y="-247" type="curve"/>
      <point x="92" y="-223" type="line"/>
      <point x="-16" y="-198"/>
      <point x="-69" y="-128"/>
      <point x="-97" y="-31" type="curve"/>
      <point x="-122" y="-39" type="line"/>
      <point x="-94" y="-148"/>
      <point x="-23" y="-225"/>
    </contour>
    <contour>
      <point x="-281" y="-254" type="curve" smooth="yes"/>
      <point x="-205" y="-254"/>
      <point x="-145" y="-233"/>
      <point x="-107" y="-208" type="curve"/>
      <point x="-111" y="-183" type="line"/>
      <point x="-154" y="-209"/>
      <point x="-205" y="-228"/>
      <point x="-281" y="-228" type="curve" smooth="yes"/>
      <point x="-359" y="-228"/>
      <point x="-407" y="-209"/>
      <point x="-450" y="-183" type="curve"/>
      <point x="-454" y="-208" type="line"/>
      <point x="-415" y="-234"/>
      <point x="-359" y="-254"/>
    </contour>
    <contour>
      <point x="-281" y="-374" type="curve" smooth="yes"/>
      <point x="-205" y="-374"/>
      <point x="-145" y="-353"/>
      <point x="-107" y="-328" type="curve"/>
      <point x="-111" y="-303" type="line"/>
      <point x="-154" y="-329"/>
      <point x="-205" y="-348"/>
      <point x="-281" y="-348" type="curve" smooth="yes"/>
      <point x="-359" y="-348"/>
      <point x="-407" y="-329"/>
      <point x="-450" y="-303" type="curve"/>
      <point x="-454" y="-328" type="line"/>
      <point x="-415" y="-354"/>
      <point x="-359" y="-374"/>
    </contour>
  </outline>
</glyph>
<glyph name="umatralow1guru" format="2">
  <outline>
    <contour>
      <point x="-305" y="-195" type="curve" smooth="yes"/>
      <point x="-229" y="-195"/>
      <point x="-169" y="-174"/>
      <point x="-131" y="-149" type="curve"/>
      <point x="-135" y="-124" type="line"/>
      <point x="-178" y="-150"/>
      <point x="-229" y="-169"/>
      <point x="-305" y="-169" type="curve" smooth="yes"/>
      <point x="-383" y="-169"/>
      <point x="-431" y="-150"/>
      <point x="-474" y="-124" type="curve"/>
      <point x="-478" y="-149" type="line"/>
      <point x="-439" y="-175"/>
      <point x="-383" y="-195"/>
    </contour>
  </outline>
</glyph>
<glyph name="umatralowUIguru" format="2">
  <outline>
    <contour>
      <point x="-305" y="-256" type="curve" smooth="yes"/>
      <point x="-226" y="-256"/>
      <point x="-162" y="-231"/>
      <point x="-122" y="-205" type="curve"/>
      <point x="-127" y="-184" type="line"/>
      <point x="-172" y="-210"/>
      <point x="-228" y="-232"/>
      <point x="-305" y="-232" type="curve" smooth="yes"/>
      <point x="-384" y="-232"/>
      <point x="-437" y="-210"/>
      <point x="-482" y="-184" type="curve"/>
      <point x="-487" y="-205" type="line"/>
      <point x="-446" y="-233"/>
      <point x="-388" y="-256"/>
    </contour>
  </outline>
</glyph>
<glyph name="umatralowguru" format="2">
  <outline>
    <contour>
      <point x="-305" y="-256" type="curve" smooth="yes"/>
      <point x="-226" y="-256"/>
      <point x="-162" y="-231"/>
      <point x="-122" y="-205" type="curve"/>
      <point x="-127" y="-184" type="line"/>
      <point x="-172" y="-210"/>
      <point x="-228" y="-232"/>
      <point x="-305" y="-232" type="curve" smooth="yes"/>
      <point x="-384" y="-232"/>
      <point x="-437" y="-210"/>
      <point x="-482" y="-184" type="curve"/>
      <point x="-487" y="-205" type="line"/>
      <point x="-446" y="-233"/>
      <point x="-388" y="-256"/>
    </contour>
  </outline>
</glyph>
<glyph name="uraaddakguru" format="2">
  <advance width="617"/>
  <outline>
    <contour>
      <point x="332" y="0" type="curve" smooth="yes"/>
      <point x="441" y="0"/>
      <point x="508" y="59"/>
      <point x="508" y="168" type="curve" smooth="yes"/>
      <point x="508" y="269"/>
      <point x="448" y="331"/>
      <point x="338" y="345" type="curve"/>
      <point x="336" y="341" type="line"/>
      <point x="473" y="351"/>
      <point x="574" y="408"/>
      <point x="574" y="586" type="curve" smooth="yes"/>
      <point x="574" y="672"/>
      <point x="556" y="720"/>
      <point x="526" y="764" type="curve"/>
      <point x="490" y="823"/>
      <point x="436" y="852"/>
      <point x="355" y="852" type="curve" smooth="yes"/>
      <point x="216" y="852"/>
      <point x="132" y="754"/>
      <point x="96" y="617" type="curve"/>
      <point x="94" y="607" type="line"/>
      <point x="81" y="551"/>
      <point x="74" y="486"/>
      <point x="74" y="419" type="curve" smooth="yes"/>
      <point x="74" y="123"/>
      <point x="181" y="0"/>
    </contour>
    <contour>
      <point x="331" y="26" type="curve" smooth="yes"/>
      <point x="202" y="26"/>
      <point x="101" y="130"/>
      <point x="101" y="419" type="curve" smooth="yes"/>
      <point x="101" y="484"/>
      <point x="108" y="549"/>
      <point x="122" y="605" type="curve"/>
      <point x="124" y="615" type="line"/>
      <point x="159" y="741"/>
      <point x="231" y="826"/>
      <point x="355" y="826" type="curve" smooth="yes"/>
      <point x="481" y="826"/>
      <point x="548" y="740"/>
      <point x="548" y="592" type="curve" smooth="yes"/>
      <point x="548" y="578" type="line" smooth="yes"/>
      <point x="548" y="486"/>
      <point x="516" y="432"/>
      <point x="462" y="400" type="curve" smooth="yes"/>
      <point x="416" y="372"/>
      <point x="358" y="359"/>
      <point x="245" y="359" type="curve" smooth="yes"/>
      <point x="88" y="359" type="line"/>
      <point x="98" y="333" type="line"/>
      <point x="238" y="333" type="line" smooth="yes"/>
      <point x="323" y="333"/>
      <point x="367" y="322"/>
      <point x="403" y="304" type="curve" smooth="yes"/>
      <point x="456" y="276"/>
      <point x="481" y="234"/>
      <point x="481" y="167" type="curve" smooth="yes"/>
      <point x="481" y="74"/>
      <point x="425" y="26"/>
    </contour>
    <contour>
      <point x="-7" y="596" type="line"/>
      <point x="634" y="596" type="line"/>
      <point x="634" y="622" type="line"/>
      <point x="-7" y="622" type="line"/>
    </contour>
    <contour>
      <point x="630" y="696" type="curve" smooth="yes"/>
      <point x="709" y="696"/>
      <point x="755" y="755"/>
      <point x="757" y="864" type="curve"/>
      <point x="731" y="866" type="line"/>
      <point x="727" y="773"/>
      <point x="696" y="721"/>
      <point x="630" y="721" type="curve" smooth="yes"/>
      <point x="560" y="721"/>
      <point x="530" y="773"/>
      <point x="525" y="866" type="curve"/>
      <point x="499" y="864" type="line"/>
      <point x="501" y="822"/>
      <point x="505" y="792"/>
      <point x="532" y="751" type="curve"/>
      <point x="553" y="715"/>
      <point x="583" y="696"/>
    </contour>
  </outline>
</glyph>
<glyph name="uumatraUIguru" format="2">
  <outline>
    <contour>
      <point x="-281" y="-133" type="curve" smooth="yes"/>
      <point x="-205" y="-133"/>
      <point x="-145" y="-112"/>
      <point x="-107" y="-87" type="curve"/>
      <point x="-111" y="-62" type="line"/>
      <point x="-154" y="-88"/>
      <point x="-205" y="-107"/>
      <point x="-281" y="-107" type="curve" smooth="yes"/>
      <point x="-359" y="-107"/>
      <point x="-407" y="-88"/>
      <point x="-450" y="-62" type="curve"/>
      <point x="-454" y="-87" type="line"/>
      <point x="-415" y="-113"/>
      <point x="-359" y="-133"/>
    </contour>
    <contour>
      <point x="-281" y="-253" type="curve" smooth="yes"/>
      <point x="-205" y="-253"/>
      <point x="-145" y="-232"/>
      <point x="-107" y="-207" type="curve"/>
      <point x="-111" y="-182" type="line"/>
      <point x="-154" y="-208"/>
      <point x="-205" y="-227"/>
      <point x="-281" y="-227" type="curve" smooth="yes"/>
      <point x="-359" y="-227"/>
      <point x="-407" y="-208"/>
      <point x="-450" y="-182" type="curve"/>
      <point x="-454" y="-207" type="line"/>
      <point x="-415" y="-233"/>
      <point x="-359" y="-253"/>
    </contour>
  </outline>
</glyph>
